<?xml version="1.0" encoding="UTF-8" standalone="no"?><svg xmlns="http://www.w3.org/2000/svg" xmlns:xlink="http://www.w3.org/1999/xlink" contentScriptType="application/ecmascript" contentStyleType="text/css" height="285px" preserveAspectRatio="none" style="width:779px;height:285px;" version="1.1" viewBox="0 0 779 285" width="779px" zoomAndPan="magnify"><defs><filter height="300%" id="f1qsi4g1rqx6n0" width="300%" x="-1" y="-1"><feGaussianBlur result="blurOut" stdDeviation="2.0"/><feColorMatrix in="blurOut" result="blurOut2" type="matrix" values="0 0 0 0 0 0 0 0 0 0 0 0 0 0 0 0 0 0 .4 0"/><feOffset dx="4.0" dy="4.0" in="blurOut2" result="blurOut3"/><feBlend in="SourceGraphic" in2="blurOut3" mode="normal"/></filter></defs><g><!--MD5=[e496c8ccb40abcb9b4f840cac8f8d9f4]
class artist--><rect codeLine="2" fill="#FEFECE" filter="url(#f1qsi4g1rqx6n0)" height="48" id="artist" style="stroke: #A80036; stroke-width: 1.5;" width="65" x="437" y="7"/><ellipse cx="452" cy="23" fill="#ADD1B2" rx="11" ry="11" style="stroke: #A80036; stroke-width: 1.0;"/><path d="M456.1094,29 L448.3906,29 L448.3906,16.6094 L456.1094,16.6094 L456.1094,18.7656 L450.8438,18.7656 L450.8438,21.4375 L455.6094,21.4375 L455.6094,23.5938 L450.8438,23.5938 L450.8438,26.8438 L456.1094,26.8438 L456.1094,29 Z "/><text fill="#000000" font-family="sans-serif" font-size="12" lengthAdjust="spacingAndGlyphs" textLength="33" x="466" y="27.1543">artist</text><line style="stroke: #A80036; stroke-width: 1.5;" x1="438" x2="501" y1="39" y2="39"/><line style="stroke: #A80036; stroke-width: 1.5;" x1="438" x2="501" y1="47" y2="47"/><!--MD5=[878dcce6574601ff68e834d99fe16dba]
class energy_basic--><rect codeLine="3" fill="#FEFECE" filter="url(#f1qsi4g1rqx6n0)" height="48" id="energy_basic" style="stroke: #A80036; stroke-width: 1.5;" width="114" x="235.5" y="223"/><ellipse cx="250.5" cy="239" fill="#ADD1B2" rx="11" ry="11" style="stroke: #A80036; stroke-width: 1.0;"/><path d="M254.6094,245 L246.8906,245 L246.8906,232.6094 L254.6094,232.6094 L254.6094,234.7656 L249.3438,234.7656 L249.3438,237.4375 L254.1094,237.4375 L254.1094,239.5938 L249.3438,239.5938 L249.3438,242.8438 L254.6094,242.8438 L254.6094,245 Z "/><text fill="#000000" font-family="sans-serif" font-size="12" lengthAdjust="spacingAndGlyphs" textLength="82" x="264.5" y="243.1543">energy_basic</text><line style="stroke: #A80036; stroke-width: 1.5;" x1="236.5" x2="348.5" y1="255" y2="255"/><line style="stroke: #A80036; stroke-width: 1.5;" x1="236.5" x2="348.5" y1="263" y2="263"/><!--MD5=[c030e977c4f8385909f84dee8fee5198]
class energy_special--><rect codeLine="4" fill="#FEFECE" filter="url(#f1qsi4g1rqx6n0)" height="48" id="energy_special" style="stroke: #A80036; stroke-width: 1.5;" width="125" x="385" y="223"/><ellipse cx="400" cy="239" fill="#ADD1B2" rx="11" ry="11" style="stroke: #A80036; stroke-width: 1.0;"/><path d="M404.1094,245 L396.3906,245 L396.3906,232.6094 L404.1094,232.6094 L404.1094,234.7656 L398.8438,234.7656 L398.8438,237.4375 L403.6094,237.4375 L403.6094,239.5938 L398.8438,239.5938 L398.8438,242.8438 L404.1094,242.8438 L404.1094,245 Z "/><text fill="#000000" font-family="sans-serif" font-size="12" lengthAdjust="spacingAndGlyphs" textLength="93" x="414" y="243.1543">energy_special</text><line style="stroke: #A80036; stroke-width: 1.5;" x1="386" x2="509" y1="255" y2="255"/><line style="stroke: #A80036; stroke-width: 1.5;" x1="386" x2="509" y1="263" y2="263"/><!--MD5=[4a819daee672845cad70c7a48311cd4a]
class extended_attributes_special_pokemon--><rect codeLine="5" fill="#FEFECE" filter="url(#f1qsi4g1rqx6n0)" height="48" id="extended_attributes_special_pokemon" style="stroke: #A80036; stroke-width: 1.5;" width="273" x="7" y="115"/><ellipse cx="22" cy="131" fill="#ADD1B2" rx="11" ry="11" style="stroke: #A80036; stroke-width: 1.0;"/><path d="M26.1094,137 L18.3906,137 L18.3906,124.6094 L26.1094,124.6094 L26.1094,126.7656 L20.8438,126.7656 L20.8438,129.4375 L25.6094,129.4375 L25.6094,131.5938 L20.8438,131.5938 L20.8438,134.8438 L26.1094,134.8438 L26.1094,137 Z "/><text fill="#000000" font-family="sans-serif" font-size="12" lengthAdjust="spacingAndGlyphs" textLength="241" x="36" y="135.1543">extended_attributes_special_pokemon</text><line style="stroke: #A80036; stroke-width: 1.5;" x1="8" x2="279" y1="147" y2="147"/><line style="stroke: #A80036; stroke-width: 1.5;" x1="8" x2="279" y1="155" y2="155"/><!--MD5=[054a44254ebf563cd77b023f4bfa137f]
class extended_attributes_special_pokemon_type--><rect codeLine="6" fill="#FEFECE" filter="url(#f1qsi4g1rqx6n0)" height="48" id="extended_attributes_special_pokemon_type" style="stroke: #A80036; stroke-width: 1.5;" width="306" x="459.5" y="115"/><ellipse cx="474.5" cy="131" fill="#ADD1B2" rx="11" ry="11" style="stroke: #A80036; stroke-width: 1.0;"/><path d="M478.6094,137 L470.8906,137 L470.8906,124.6094 L478.6094,124.6094 L478.6094,126.7656 L473.3438,126.7656 L473.3438,129.4375 L478.1094,129.4375 L478.1094,131.5938 L473.3438,131.5938 L473.3438,134.8438 L478.6094,134.8438 L478.6094,137 Z "/><text fill="#000000" font-family="sans-serif" font-size="12" lengthAdjust="spacingAndGlyphs" textLength="274" x="488.5" y="135.1543">extended_attributes_special_pokemon_type</text><line style="stroke: #A80036; stroke-width: 1.5;" x1="460.5" x2="764.5" y1="147" y2="147"/><line style="stroke: #A80036; stroke-width: 1.5;" x1="460.5" x2="764.5" y1="155" y2="155"/><!--MD5=[0226e7a91aa78cb2dba1b9ba67fa7cec]
class rarity--><rect codeLine="7" fill="#FEFECE" filter="url(#f1qsi4g1rqx6n0)" height="48" id="rarity" style="stroke: #A80036; stroke-width: 1.5;" width="64" x="337.5" y="7"/><ellipse cx="352.5" cy="23" fill="#ADD1B2" rx="11" ry="11" style="stroke: #A80036; stroke-width: 1.0;"/><path d="M356.6094,29 L348.8906,29 L348.8906,16.6094 L356.6094,16.6094 L356.6094,18.7656 L351.3438,18.7656 L351.3438,21.4375 L356.1094,21.4375 L356.1094,23.5938 L351.3438,23.5938 L351.3438,26.8438 L356.6094,26.8438 L356.6094,29 Z "/><text fill="#000000" font-family="sans-serif" font-size="12" lengthAdjust="spacingAndGlyphs" textLength="32" x="366.5" y="27.1543">rarity</text><line style="stroke: #A80036; stroke-width: 1.5;" x1="338.5" x2="400.5" y1="39" y2="39"/><line style="stroke: #A80036; stroke-width: 1.5;" x1="338.5" x2="400.5" y1="47" y2="47"/><!--MD5=[36b0e245bf430e2a9a71d9dcae4d8422]
class set--><rect codeLine="8" fill="#FEFECE" filter="url(#f1qsi4g1rqx6n0)" height="48" id="set" style="stroke: #A80036; stroke-width: 1.5;" width="52" x="250.5" y="7"/><ellipse cx="265.5" cy="23" fill="#ADD1B2" rx="11" ry="11" style="stroke: #A80036; stroke-width: 1.0;"/><path d="M269.6094,29 L261.8906,29 L261.8906,16.6094 L269.6094,16.6094 L269.6094,18.7656 L264.3438,18.7656 L264.3438,21.4375 L269.1094,21.4375 L269.1094,23.5938 L264.3438,23.5938 L264.3438,26.8438 L269.6094,26.8438 L269.6094,29 Z "/><text fill="#000000" font-family="sans-serif" font-size="12" lengthAdjust="spacingAndGlyphs" textLength="20" x="279.5" y="27.1543">set</text><line style="stroke: #A80036; stroke-width: 1.5;" x1="251.5" x2="301.5" y1="39" y2="39"/><line style="stroke: #A80036; stroke-width: 1.5;" x1="251.5" x2="301.5" y1="47" y2="47"/><!--MD5=[32bf819a8bcbdde7b71921ac65fcb81b]
class energy_card--><rect fill="#FEFECE" filter="url(#f1qsi4g1rqx6n0)" height="48" id="energy_card" style="stroke: #A80036; stroke-width: 1.5;" width="109" x="315" y="115"/><ellipse cx="330" cy="131" fill="#ADD1B2" rx="11" ry="11" style="stroke: #A80036; stroke-width: 1.0;"/><path d="M332.9688,136.6406 Q332.3906,136.9375 331.75,137.0781 Q331.1094,137.2344 330.4063,137.2344 Q327.9063,137.2344 326.5781,135.5938 Q325.2656,133.9375 325.2656,130.8125 Q325.2656,127.6875 326.5781,126.0313 Q327.9063,124.375 330.4063,124.375 Q331.1094,124.375 331.75,124.5313 Q332.4063,124.6875 332.9688,124.9844 L332.9688,127.7031 Q332.3438,127.125 331.75,126.8594 Q331.1563,126.5781 330.5313,126.5781 Q329.1875,126.5781 328.5,127.6563 Q327.8125,128.7188 327.8125,130.8125 Q327.8125,132.9063 328.5,133.9844 Q329.1875,135.0469 330.5313,135.0469 Q331.1563,135.0469 331.75,134.7813 Q332.3438,134.5 332.9688,133.9219 L332.9688,136.6406 Z "/><text fill="#000000" font-family="sans-serif" font-size="12" lengthAdjust="spacingAndGlyphs" textLength="77" x="344" y="135.1543">energy_card</text><line style="stroke: #A80036; stroke-width: 1.5;" x1="316" x2="423" y1="147" y2="147"/><line style="stroke: #A80036; stroke-width: 1.5;" x1="316" x2="423" y1="155" y2="155"/><!--MD5=[a6dce8836e7f9e8349bf519ec474f45c]
link artist to energy_card--><path codeLine="10" d="M442.96,60.13 C428.66,75.29 411.04,93.96 396.65,109.22 " fill="none" id="artist-energy_card" style="stroke: #A80036; stroke-width: 1.0; stroke-dasharray: 7.0,7.0;"/><line style="stroke: #A80036; stroke-width: 1.0;" x1="397.1543" x2="391.3287" y1="114.5087" y2="109.0257"/><line style="stroke: #A80036; stroke-width: 1.0;" x1="399.2104" x2="393.3848" y1="112.3241" y2="106.8411"/><line style="stroke: #A80036; stroke-width: 1.0;" x1="396.9829" x2="391.5" y1="108.8544" y2="114.68"/><line style="stroke: #A80036; stroke-width: 1.0;" x1="442.1455" x2="447.9634" y1="55.1634" y2="60.6545"/><line style="stroke: #A80036; stroke-width: 1.0;" x1="440.0864" x2="445.9043" y1="57.3451" y2="62.8362"/><line style="stroke: #A80036; stroke-width: 1.0;" x1="442.3089" x2="447.8" y1="60.8179" y2="55"/><!--MD5=[b6aadfb0bf490b3c285f5dc2c4c7e49f]
link energy_card to energy_basic--><path codeLine="11" d="M348.42,169.01 C337.6,183.91 324.45,202.02 313.62,216.93 " fill="none" id="energy_card-energy_basic" style="stroke: #A80036; stroke-width: 1.0; stroke-dasharray: 7.0,7.0;"/><line style="stroke: #A80036; stroke-width: 1.0;" x1="315.0251" x2="308.5418" y1="221.7818" y2="217.0949"/><line style="stroke: #A80036; stroke-width: 1.0;" x1="316.7827" x2="310.2994" y1="219.3506" y2="214.6637"/><line style="stroke: #A80036; stroke-width: 1.0;" x1="314.1269" x2="309.44" y1="216.1967" y2="222.68"/><line style="stroke: #A80036; stroke-width: 1.0;" x1="347.2024" x2="353.6723" y1="163.8823" y2="168.5876"/><line style="stroke: #A80036; stroke-width: 1.0;" x1="345.4379" x2="351.9077" y1="166.3085" y2="171.0138"/><line style="stroke: #A80036; stroke-width: 1.0;" x1="348.0846" x2="352.79" y1="169.4699" y2="163"/><!--MD5=[2dcd5f058e76920105dc9a0b4c22aee9]
link energy_card to energy_special--><path codeLine="12" d="M390.85,169.01 C401.81,183.91 415.14,202.02 426.11,216.93 " fill="none" id="energy_card-energy_special" style="stroke: #A80036; stroke-width: 1.0; stroke-dasharray: 7.0,7.0;"/><line style="stroke: #A80036; stroke-width: 1.0;" x1="431.1903" x2="424.7474" y1="217.0874" y2="221.8297"/><line style="stroke: #A80036; stroke-width: 1.0;" x1="429.412" x2="422.9691" y1="214.6713" y2="219.4136"/><line style="stroke: #A80036; stroke-width: 1.0;" x1="425.5978" x2="430.34" y1="216.2371" y2="222.68"/><line style="stroke: #A80036; stroke-width: 1.0;" x1="385.5629" x2="392.0115" y1="168.5915" y2="163.8571"/><line style="stroke: #A80036; stroke-width: 1.0;" x1="387.3383" x2="393.787" y1="171.0098" y2="166.2753"/><line style="stroke: #A80036; stroke-width: 1.0;" x1="391.1544" x2="386.42" y1="169.4486" y2="163"/><!--MD5=[7d4c79e179d81edce053dc7160335502]
link extended_attributes_special_pokemon to energy_card--><path codeLine="13" d="M287.34,139 C294.07,139 300.79,139 307.52,139 " fill="none" id="extended_attributes_special_pokemon-energy_card" style="stroke: #A80036; stroke-width: 1.0; stroke-dasharray: 7.0,7.0;"/><line style="stroke: #A80036; stroke-width: 1.0;" x1="310.82" x2="310.82" y1="135" y2="143"/><line style="stroke: #A80036; stroke-width: 1.0;" x1="307.82" x2="307.82" y1="135" y2="143"/><line style="stroke: #A80036; stroke-width: 1.0;" x1="306.82" x2="314.82" y1="139" y2="139"/><line style="stroke: #A80036; stroke-width: 1.0;" x1="284.34" x2="284.34" y1="143" y2="135"/><line style="stroke: #A80036; stroke-width: 1.0;" x1="287.34" x2="287.34" y1="143" y2="135"/><line style="stroke: #A80036; stroke-width: 1.0;" x1="288.34" x2="280.34" y1="139" y2="139"/><!--MD5=[bc891ff2cdcfca2c1bba1b94841602af]
link energy_card to extended_attributes_special_pokemon_type--><path codeLine="14" d="M431.26,139 C438.29,139 445.33,139 452.37,139 " fill="none" id="energy_card-extended_attributes_special_pokemon_type" style="stroke: #A80036; stroke-width: 1.0; stroke-dasharray: 7.0,7.0;"/><line style="stroke: #A80036; stroke-width: 1.0;" x1="455.41" x2="455.41" y1="135" y2="143"/><line style="stroke: #A80036; stroke-width: 1.0;" x1="452.41" x2="452.41" y1="135" y2="143"/><line style="stroke: #A80036; stroke-width: 1.0;" x1="451.41" x2="459.41" y1="139" y2="139"/><line style="stroke: #A80036; stroke-width: 1.0;" x1="428.08" x2="428.08" y1="143" y2="135"/><line style="stroke: #A80036; stroke-width: 1.0;" x1="431.08" x2="431.08" y1="143" y2="135"/><line style="stroke: #A80036; stroke-width: 1.0;" x1="432.08" x2="424.08" y1="139" y2="139"/><!--MD5=[7c6106b9038f68f3a4be9d176563f3da]
link rarity to energy_card--><path codeLine="15" d="M369.5,62.36 C369.5,76.52 369.5,93.35 369.5,107.53 " fill="none" id="rarity-energy_card" style="stroke: #A80036; stroke-width: 1.0; stroke-dasharray: 7.0,7.0;"/><line style="stroke: #A80036; stroke-width: 1.0;" x1="373.5" x2="365.5" y1="110.68" y2="110.68"/><line style="stroke: #A80036; stroke-width: 1.0;" x1="373.5" x2="365.5" y1="107.68" y2="107.68"/><line style="stroke: #A80036; stroke-width: 1.0;" x1="369.5" x2="369.5" y1="106.68" y2="114.68"/><line style="stroke: #A80036; stroke-width: 1.0;" x1="365.5" x2="373.5" y1="59" y2="59"/><line style="stroke: #A80036; stroke-width: 1.0;" x1="365.5" x2="373.5" y1="62" y2="62"/><line style="stroke: #A80036; stroke-width: 1.0;" x1="369.5" x2="369.5" y1="63" y2="55"/><!--MD5=[abde0989ac163bd9915579b0c6f44826]
link set to energy_card--><path codeLine="16" d="M301.57,60.57 C314.81,75.67 331.03,94.15 344.3,109.27 " fill="none" id="set-energy_card" style="stroke: #A80036; stroke-width: 1.0; stroke-dasharray: 7.0,7.0;"/><line style="stroke: #A80036; stroke-width: 1.0;" x1="349.4076" x2="343.3951" y1="109.0351" y2="114.3124"/><line style="stroke: #A80036; stroke-width: 1.0;" x1="347.4286" x2="341.4161" y1="106.7804" y2="112.0577"/><line style="stroke: #A80036; stroke-width: 1.0;" x1="343.7627" x2="349.04" y1="108.6675" y2="114.68"/><line style="stroke: #A80036; stroke-width: 1.0;" x1="296.3048" x2="302.3244" y1="60.6444" y2="55.3752"/><line style="stroke: #A80036; stroke-width: 1.0;" x1="298.2807" x2="304.3003" y1="62.9017" y2="57.6326"/><line style="stroke: #A80036; stroke-width: 1.0;" x1="301.9492" x2="296.68" y1="61.0196" y2="55"/><!--MD5=[60ef34e983de02dbff7fc7090c492890]
@startuml energy-card-relationships

entity "artist" as artist {}
entity "energy_basic" as energy_basic {}
entity "energy_special" as energy_special {}
entity "extended_attributes_special_pokemon" as extended_attributes_special_pokemon {}
entity "extended_attributes_special_pokemon_type" as extended_attributes_special_pokemon_type {}
entity "rarity" as rarity {}
entity "set" as set {}

energy_card ||..up|| artist
energy_card ||..|| energy_basic
energy_card ||..|| energy_special
energy_card ||..left|| extended_attributes_special_pokemon
energy_card ||..right|| extended_attributes_special_pokemon_type
energy_card ||..up|| rarity
energy_card ||..up|| set

@enduml

PlantUML version 1.2020.18(Wed Sep 30 20:40:44 BST 2020)
(GPL source distribution)
Java Runtime: OpenJDK Runtime Environment
JVM: OpenJDK 64-Bit Server VM
Default Encoding: UTF-8
Language: en
Country: GB
--></g></svg>