<?xml version="1.0" encoding="UTF-8" standalone="no"?><svg xmlns="http://www.w3.org/2000/svg" xmlns:xlink="http://www.w3.org/1999/xlink" contentScriptType="application/ecmascript" contentStyleType="text/css" height="285px" preserveAspectRatio="none" style="width:677px;height:285px;" version="1.1" viewBox="0 0 677 285" width="677px" zoomAndPan="magnify"><defs><filter height="300%" id="f1efyn7kbvg5o9" width="300%" x="-1" y="-1"><feGaussianBlur result="blurOut" stdDeviation="2.0"/><feColorMatrix in="blurOut" result="blurOut2" type="matrix" values="0 0 0 0 0 0 0 0 0 0 0 0 0 0 0 0 0 0 .4 0"/><feOffset dx="4.0" dy="4.0" in="blurOut2" result="blurOut3"/><feBlend in="SourceGraphic" in2="blurOut3" mode="normal"/></filter></defs><g><!--MD5=[e496c8ccb40abcb9b4f840cac8f8d9f4]
class artist--><rect codeLine="2" fill="#FEFECE" filter="url(#f1efyn7kbvg5o9)" height="48" id="artist" style="stroke:#A80036;stroke-width:1.5;" width="65" x="286.5" y="7"/><ellipse cx="301.5" cy="23" fill="#ADD1B2" rx="11" ry="11" style="stroke:#A80036;stroke-width:1.0;"/><path d="M305.6094,29 L297.8906,29 L297.8906,16.6094 L305.6094,16.6094 L305.6094,18.7656 L300.3438,18.7656 L300.3438,21.4375 L305.1094,21.4375 L305.1094,23.5938 L300.3438,23.5938 L300.3438,26.8438 L305.6094,26.8438 L305.6094,29 Z " fill="#000000"/><text fill="#000000" font-family="sans-serif" font-size="12" lengthAdjust="spacingAndGlyphs" textLength="33" x="315.5" y="27.1543">artist</text><line style="stroke:#A80036;stroke-width:1.5;" x1="287.5" x2="350.5" y1="39" y2="39"/><line style="stroke:#A80036;stroke-width:1.5;" x1="287.5" x2="350.5" y1="47" y2="47"/><!--MD5=[878dcce6574601ff68e834d99fe16dba]
class energy_basic--><rect codeLine="3" fill="#FEFECE" filter="url(#f1efyn7kbvg5o9)" height="48" id="energy_basic" style="stroke:#A80036;stroke-width:1.5;" width="114" x="7" y="223"/><ellipse cx="22" cy="239" fill="#ADD1B2" rx="11" ry="11" style="stroke:#A80036;stroke-width:1.0;"/><path d="M26.1094,245 L18.3906,245 L18.3906,232.6094 L26.1094,232.6094 L26.1094,234.7656 L20.8438,234.7656 L20.8438,237.4375 L25.6094,237.4375 L25.6094,239.5938 L20.8438,239.5938 L20.8438,242.8438 L26.1094,242.8438 L26.1094,245 Z " fill="#000000"/><text fill="#000000" font-family="sans-serif" font-size="12" lengthAdjust="spacingAndGlyphs" textLength="82" x="36" y="243.1543">energy_basic</text><line style="stroke:#A80036;stroke-width:1.5;" x1="8" x2="120" y1="255" y2="255"/><line style="stroke:#A80036;stroke-width:1.5;" x1="8" x2="120" y1="263" y2="263"/><!--MD5=[c030e977c4f8385909f84dee8fee5198]
class energy_special--><rect codeLine="4" fill="#FEFECE" filter="url(#f1efyn7kbvg5o9)" height="48" id="energy_special" style="stroke:#A80036;stroke-width:1.5;" width="125" x="156.5" y="223"/><ellipse cx="171.5" cy="239" fill="#ADD1B2" rx="11" ry="11" style="stroke:#A80036;stroke-width:1.0;"/><path d="M175.6094,245 L167.8906,245 L167.8906,232.6094 L175.6094,232.6094 L175.6094,234.7656 L170.3438,234.7656 L170.3438,237.4375 L175.1094,237.4375 L175.1094,239.5938 L170.3438,239.5938 L170.3438,242.8438 L175.6094,242.8438 L175.6094,245 Z " fill="#000000"/><text fill="#000000" font-family="sans-serif" font-size="12" lengthAdjust="spacingAndGlyphs" textLength="93" x="185.5" y="243.1543">energy_special</text><line style="stroke:#A80036;stroke-width:1.5;" x1="157.5" x2="280.5" y1="255" y2="255"/><line style="stroke:#A80036;stroke-width:1.5;" x1="157.5" x2="280.5" y1="263" y2="263"/><!--MD5=[36fef931eaaaa86bf05843aa429d17ea]
class extended_attributes_core--><rect codeLine="5" fill="#FEFECE" filter="url(#f1efyn7kbvg5o9)" height="48" id="extended_attributes_core" style="stroke:#A80036;stroke-width:1.5;" width="193" x="316.5" y="223"/><ellipse cx="331.5" cy="239" fill="#ADD1B2" rx="11" ry="11" style="stroke:#A80036;stroke-width:1.0;"/><path d="M335.6094,245 L327.8906,245 L327.8906,232.6094 L335.6094,232.6094 L335.6094,234.7656 L330.3438,234.7656 L330.3438,237.4375 L335.1094,237.4375 L335.1094,239.5938 L330.3438,239.5938 L330.3438,242.8438 L335.6094,242.8438 L335.6094,245 Z " fill="#000000"/><text fill="#000000" font-family="sans-serif" font-size="12" lengthAdjust="spacingAndGlyphs" textLength="161" x="345.5" y="243.1543">extended_attributes_core</text><line style="stroke:#A80036;stroke-width:1.5;" x1="317.5" x2="508.5" y1="255" y2="255"/><line style="stroke:#A80036;stroke-width:1.5;" x1="317.5" x2="508.5" y1="263" y2="263"/><!--MD5=[de3056f63fe13fdcdcfe459f38f4258e]
class extended_attributes_special_pokemon_type_lookup--><rect codeLine="6" fill="#FEFECE" filter="url(#f1efyn7kbvg5o9)" height="48" id="extended_attributes_special_pokemon_type_lookup" style="stroke:#A80036;stroke-width:1.5;" width="354" x="309" y="115"/><ellipse cx="324" cy="131" fill="#ADD1B2" rx="11" ry="11" style="stroke:#A80036;stroke-width:1.0;"/><path d="M328.1094,137 L320.3906,137 L320.3906,124.6094 L328.1094,124.6094 L328.1094,126.7656 L322.8438,126.7656 L322.8438,129.4375 L327.6094,129.4375 L327.6094,131.5938 L322.8438,131.5938 L322.8438,134.8438 L328.1094,134.8438 L328.1094,137 Z " fill="#000000"/><text fill="#000000" font-family="sans-serif" font-size="12" lengthAdjust="spacingAndGlyphs" textLength="322" x="338" y="135.1543">extended_attributes_special_pokemon_type_lookup</text><line style="stroke:#A80036;stroke-width:1.5;" x1="310" x2="662" y1="147" y2="147"/><line style="stroke:#A80036;stroke-width:1.5;" x1="310" x2="662" y1="155" y2="155"/><!--MD5=[0226e7a91aa78cb2dba1b9ba67fa7cec]
class rarity--><rect codeLine="7" fill="#FEFECE" filter="url(#f1efyn7kbvg5o9)" height="48" id="rarity" style="stroke:#A80036;stroke-width:1.5;" width="64" x="187" y="7"/><ellipse cx="202" cy="23" fill="#ADD1B2" rx="11" ry="11" style="stroke:#A80036;stroke-width:1.0;"/><path d="M206.1094,29 L198.3906,29 L198.3906,16.6094 L206.1094,16.6094 L206.1094,18.7656 L200.8438,18.7656 L200.8438,21.4375 L205.6094,21.4375 L205.6094,23.5938 L200.8438,23.5938 L200.8438,26.8438 L206.1094,26.8438 L206.1094,29 Z " fill="#000000"/><text fill="#000000" font-family="sans-serif" font-size="12" lengthAdjust="spacingAndGlyphs" textLength="32" x="216" y="27.1543">rarity</text><line style="stroke:#A80036;stroke-width:1.5;" x1="188" x2="250" y1="39" y2="39"/><line style="stroke:#A80036;stroke-width:1.5;" x1="188" x2="250" y1="47" y2="47"/><!--MD5=[36b0e245bf430e2a9a71d9dcae4d8422]
class set--><rect codeLine="8" fill="#FEFECE" filter="url(#f1efyn7kbvg5o9)" height="48" id="set" style="stroke:#A80036;stroke-width:1.5;" width="52" x="100" y="7"/><ellipse cx="115" cy="23" fill="#ADD1B2" rx="11" ry="11" style="stroke:#A80036;stroke-width:1.0;"/><path d="M119.1094,29 L111.3906,29 L111.3906,16.6094 L119.1094,16.6094 L119.1094,18.7656 L113.8438,18.7656 L113.8438,21.4375 L118.6094,21.4375 L118.6094,23.5938 L113.8438,23.5938 L113.8438,26.8438 L119.1094,26.8438 L119.1094,29 Z " fill="#000000"/><text fill="#000000" font-family="sans-serif" font-size="12" lengthAdjust="spacingAndGlyphs" textLength="20" x="129" y="27.1543">set</text><line style="stroke:#A80036;stroke-width:1.5;" x1="101" x2="151" y1="39" y2="39"/><line style="stroke:#A80036;stroke-width:1.5;" x1="101" x2="151" y1="47" y2="47"/><!--MD5=[32bf819a8bcbdde7b71921ac65fcb81b]
class energy_card--><rect fill="#FEFECE" filter="url(#f1efyn7kbvg5o9)" height="48" id="energy_card" style="stroke:#A80036;stroke-width:1.5;" width="109" x="164.5" y="115"/><ellipse cx="179.5" cy="131" fill="#ADD1B2" rx="11" ry="11" style="stroke:#A80036;stroke-width:1.0;"/><path d="M182.4688,136.6406 Q181.8906,136.9375 181.25,137.0781 Q180.6094,137.2344 179.9063,137.2344 Q177.4063,137.2344 176.0781,135.5938 Q174.7656,133.9375 174.7656,130.8125 Q174.7656,127.6875 176.0781,126.0313 Q177.4063,124.375 179.9063,124.375 Q180.6094,124.375 181.25,124.5313 Q181.9063,124.6875 182.4688,124.9844 L182.4688,127.7031 Q181.8438,127.125 181.25,126.8594 Q180.6563,126.5781 180.0313,126.5781 Q178.6875,126.5781 178,127.6563 Q177.3125,128.7188 177.3125,130.8125 Q177.3125,132.9063 178,133.9844 Q178.6875,135.0469 180.0313,135.0469 Q180.6563,135.0469 181.25,134.7813 Q181.8438,134.5 182.4688,133.9219 L182.4688,136.6406 Z " fill="#000000"/><text fill="#000000" font-family="sans-serif" font-size="12" lengthAdjust="spacingAndGlyphs" textLength="77" x="193.5" y="135.1543">energy_card</text><line style="stroke:#A80036;stroke-width:1.5;" x1="165.5" x2="272.5" y1="147" y2="147"/><line style="stroke:#A80036;stroke-width:1.5;" x1="165.5" x2="272.5" y1="155" y2="155"/><!--MD5=[a6dce8836e7f9e8349bf519ec474f45c]
link artist to energy_card--><path codeLine="10" d="M292.46,60.13 C278.16,75.29 260.54,93.96 246.15,109.22 " fill="none" id="artist-energy_card" style="stroke:#A80036;stroke-width:1.0;stroke-dasharray:7.0,7.0;"/><line style="stroke:#A80036;stroke-width:1.0;" x1="246.6543" x2="240.8287" y1="114.5087" y2="109.0257"/><line style="stroke:#A80036;stroke-width:1.0;" x1="248.7104" x2="242.8848" y1="112.3241" y2="106.8411"/><line style="stroke:#A80036;stroke-width:1.0;" x1="246.4829" x2="241" y1="108.8544" y2="114.68"/><line style="stroke:#A80036;stroke-width:1.0;" x1="291.6455" x2="297.4634" y1="55.1634" y2="60.6545"/><line style="stroke:#A80036;stroke-width:1.0;" x1="289.5864" x2="295.4043" y1="57.3451" y2="62.8362"/><line style="stroke:#A80036;stroke-width:1.0;" x1="291.8089" x2="297.3" y1="60.8179" y2="55"/><!--MD5=[b6aadfb0bf490b3c285f5dc2c4c7e49f]
link energy_card to energy_basic--><path codeLine="11" d="M179.45,167.05 C156.29,182.89 127.13,202.83 103.91,218.71 " fill="none" id="energy_card-energy_basic" style="stroke:#A80036;stroke-width:1.0;stroke-dasharray:7.0,7.0;"/><line style="stroke:#A80036;stroke-width:1.0;" x1="103.391" x2="98.8671" y1="223.8971" y2="217.299"/><line style="stroke:#A80036;stroke-width:1.0;" x1="105.8652" x2="101.3413" y1="222.2006" y2="215.6026"/><line style="stroke:#A80036;stroke-width:1.0;" x1="104.428" x2="97.83" y1="218.3361" y2="222.86"/><line style="stroke:#A80036;stroke-width:1.0;" x1="179.8108" x2="184.3236" y1="161.9536" y2="168.5592"/><line style="stroke:#A80036;stroke-width:1.0;" x1="177.3337" x2="181.8464" y1="163.6459" y2="170.2515"/><line style="stroke:#A80036;stroke-width:1.0;" x1="178.7643" x2="185.37" y1="167.5128" y2="163"/><!--MD5=[2dcd5f058e76920105dc9a0b4c22aee9]
link energy_card to energy_special--><path codeLine="12" d="M219,170.36 C219,184.52 219,201.35 219,215.53 " fill="none" id="energy_card-energy_special" style="stroke:#A80036;stroke-width:1.0;stroke-dasharray:7.0,7.0;"/><line style="stroke:#A80036;stroke-width:1.0;" x1="223" x2="215" y1="218.68" y2="218.68"/><line style="stroke:#A80036;stroke-width:1.0;" x1="223" x2="215" y1="215.68" y2="215.68"/><line style="stroke:#A80036;stroke-width:1.0;" x1="219" x2="219" y1="214.68" y2="222.68"/><line style="stroke:#A80036;stroke-width:1.0;" x1="215" x2="223" y1="167" y2="167"/><line style="stroke:#A80036;stroke-width:1.0;" x1="215" x2="223" y1="170" y2="170"/><line style="stroke:#A80036;stroke-width:1.0;" x1="219" x2="219" y1="171" y2="163"/><!--MD5=[885dcdfbbc75833e7acda53689f2fceb]
link energy_card to extended_attributes_core--><path codeLine="13" d="M268.51,167.05 C297.62,182.96 334.3,203 363.42,218.91 " fill="none" id="energy_card-extended_attributes_core" style="stroke:#A80036;stroke-width:1.0;stroke-dasharray:7.0,7.0;"/><line style="stroke:#A80036;stroke-width:1.0;" x1="363.6279" x2="373.5246" y1="219.0272" y2="217.5934"/><line style="stroke:#A80036;stroke-width:1.0;" x1="363.6279" x2="367.7754" y1="219.0272" y2="228.1266"/><line style="stroke:#A80036;stroke-width:1.0;" x1="363.6279" x2="370.65" y1="219.0272" y2="222.86"/><line style="stroke:#A80036;stroke-width:1.0;" x1="363.7888" x2="359.956" y1="214.5579" y2="221.58"/><line style="stroke:#A80036;stroke-width:1.0;" x1="262.6861" x2="266.5299" y1="168.4299" y2="161.4139"/><line style="stroke:#A80036;stroke-width:1.0;" x1="265.3171" x2="269.161" y1="169.8714" y2="162.8553"/><line style="stroke:#A80036;stroke-width:1.0;" x1="268.1161" x2="261.1" y1="166.8438" y2="163"/><!--MD5=[35e175262ffc257b26446dfac71ffa08]
link energy_card to extended_attributes_special_pokemon_type_lookup--><path codeLine="14" d="M280.91,139 C287.93,139 294.95,139 301.97,139 " fill="none" id="energy_card-extended_attributes_special_pokemon_type_lookup" style="stroke:#A80036;stroke-width:1.0;stroke-dasharray:7.0,7.0;"/><line style="stroke:#A80036;stroke-width:1.0;" x1="304.99" x2="304.99" y1="135" y2="143"/><line style="stroke:#A80036;stroke-width:1.0;" x1="301.99" x2="301.99" y1="135" y2="143"/><line style="stroke:#A80036;stroke-width:1.0;" x1="300.99" x2="308.99" y1="139" y2="139"/><line style="stroke:#A80036;stroke-width:1.0;" x1="277.76" x2="277.76" y1="143" y2="135"/><line style="stroke:#A80036;stroke-width:1.0;" x1="280.76" x2="280.76" y1="143" y2="135"/><line style="stroke:#A80036;stroke-width:1.0;" x1="281.76" x2="273.76" y1="139" y2="139"/><!--MD5=[7c6106b9038f68f3a4be9d176563f3da]
link rarity to energy_card--><path codeLine="15" d="M219,62.36 C219,76.52 219,93.35 219,107.53 " fill="none" id="rarity-energy_card" style="stroke:#A80036;stroke-width:1.0;stroke-dasharray:7.0,7.0;"/><line style="stroke:#A80036;stroke-width:1.0;" x1="223" x2="215" y1="110.68" y2="110.68"/><line style="stroke:#A80036;stroke-width:1.0;" x1="223" x2="215" y1="107.68" y2="107.68"/><line style="stroke:#A80036;stroke-width:1.0;" x1="219" x2="219" y1="106.68" y2="114.68"/><line style="stroke:#A80036;stroke-width:1.0;" x1="215" x2="223" y1="59" y2="59"/><line style="stroke:#A80036;stroke-width:1.0;" x1="215" x2="223" y1="62" y2="62"/><line style="stroke:#A80036;stroke-width:1.0;" x1="219" x2="219" y1="63" y2="55"/><!--MD5=[abde0989ac163bd9915579b0c6f44826]
link set to energy_card--><path codeLine="16" d="M151.07,60.57 C164.31,75.67 180.53,94.15 193.8,109.27 " fill="none" id="set-energy_card" style="stroke:#A80036;stroke-width:1.0;stroke-dasharray:7.0,7.0;"/><line style="stroke:#A80036;stroke-width:1.0;" x1="198.9076" x2="192.8951" y1="109.0351" y2="114.3124"/><line style="stroke:#A80036;stroke-width:1.0;" x1="196.9286" x2="190.9161" y1="106.7804" y2="112.0577"/><line style="stroke:#A80036;stroke-width:1.0;" x1="193.2627" x2="198.54" y1="108.6675" y2="114.68"/><line style="stroke:#A80036;stroke-width:1.0;" x1="145.8048" x2="151.8244" y1="60.6444" y2="55.3752"/><line style="stroke:#A80036;stroke-width:1.0;" x1="147.7807" x2="153.8003" y1="62.9017" y2="57.6326"/><line style="stroke:#A80036;stroke-width:1.0;" x1="151.4492" x2="146.18" y1="61.0196" y2="55"/><!--MD5=[2ad322e1e6eb46827704bc66c892142f]
@startuml energy-card-relationships

entity "artist" as artist {}
entity "energy_basic" as energy_basic {}
entity "energy_special" as energy_special {}
entity "extended_attributes_core" as extended_attributes_core {}
entity "extended_attributes_special_pokemon_type_lookup" as extended_attributes_special_pokemon_type_lookup {}
entity "rarity" as rarity {}
entity "set" as set {}

energy_card ||..up|| artist
energy_card ||..|| energy_basic
energy_card ||..|| energy_special
energy_card ||..|{ extended_attributes_core
energy_card ||..right|| extended_attributes_special_pokemon_type_lookup
energy_card ||..up|| rarity
energy_card ||..up|| set

@enduml

PlantUML version 1.2020.22(Sun Dec 06 09:36:27 GMT 2020)
(GPL source distribution)
Java Runtime: OpenJDK Runtime Environment
JVM: OpenJDK 64-Bit Server VM
Default Encoding: UTF-8
Language: en
Country: GB
--></g></svg>