<?xml version="1.0" encoding="UTF-8" standalone="no"?><svg xmlns="http://www.w3.org/2000/svg" xmlns:xlink="http://www.w3.org/1999/xlink" contentScriptType="application/ecmascript" contentStyleType="text/css" height="285px" preserveAspectRatio="none" style="width:599px;height:285px;" version="1.1" viewBox="0 0 599 285" width="599px" zoomAndPan="magnify"><defs><filter height="300%" id="f1nr94uebubobd" width="300%" x="-1" y="-1"><feGaussianBlur result="blurOut" stdDeviation="2.0"/><feColorMatrix in="blurOut" result="blurOut2" type="matrix" values="0 0 0 0 0 0 0 0 0 0 0 0 0 0 0 0 0 0 .4 0"/><feOffset dx="4.0" dy="4.0" in="blurOut2" result="blurOut3"/><feBlend in="SourceGraphic" in2="blurOut3" mode="normal"/></filter></defs><g><!--MD5=[e496c8ccb40abcb9b4f840cac8f8d9f4]
class artist--><rect codeLine="2" fill="#FEFECE" filter="url(#f1nr94uebubobd)" height="48" id="artist" style="stroke:#A80036;stroke-width:1.5;" width="65" x="208.5" y="7"/><ellipse cx="223.5" cy="23" fill="#ADD1B2" rx="11" ry="11" style="stroke:#A80036;stroke-width:1.0;"/><path d="M227.6094,29 L219.8906,29 L219.8906,16.6094 L227.6094,16.6094 L227.6094,18.7656 L222.3438,18.7656 L222.3438,21.4375 L227.1094,21.4375 L227.1094,23.5938 L222.3438,23.5938 L222.3438,26.8438 L227.6094,26.8438 L227.6094,29 Z " fill="#000000"/><text fill="#000000" font-family="sans-serif" font-size="12" lengthAdjust="spacingAndGlyphs" textLength="33" x="237.5" y="27.1543">artist</text><line style="stroke:#A80036;stroke-width:1.5;" x1="209.5" x2="272.5" y1="39" y2="39"/><line style="stroke:#A80036;stroke-width:1.5;" x1="209.5" x2="272.5" y1="47" y2="47"/><!--MD5=[878dcce6574601ff68e834d99fe16dba]
class energy_basic--><rect codeLine="3" fill="#FEFECE" filter="url(#f1nr94uebubobd)" height="48" id="energy_basic" style="stroke:#A80036;stroke-width:1.5;" width="114" x="7" y="223"/><ellipse cx="22" cy="239" fill="#ADD1B2" rx="11" ry="11" style="stroke:#A80036;stroke-width:1.0;"/><path d="M26.1094,245 L18.3906,245 L18.3906,232.6094 L26.1094,232.6094 L26.1094,234.7656 L20.8438,234.7656 L20.8438,237.4375 L25.6094,237.4375 L25.6094,239.5938 L20.8438,239.5938 L20.8438,242.8438 L26.1094,242.8438 L26.1094,245 Z " fill="#000000"/><text fill="#000000" font-family="sans-serif" font-size="12" lengthAdjust="spacingAndGlyphs" textLength="82" x="36" y="243.1543">energy_basic</text><line style="stroke:#A80036;stroke-width:1.5;" x1="8" x2="120" y1="255" y2="255"/><line style="stroke:#A80036;stroke-width:1.5;" x1="8" x2="120" y1="263" y2="263"/><!--MD5=[c030e977c4f8385909f84dee8fee5198]
class energy_special--><rect codeLine="4" fill="#FEFECE" filter="url(#f1nr94uebubobd)" height="48" id="energy_special" style="stroke:#A80036;stroke-width:1.5;" width="125" x="156.5" y="223"/><ellipse cx="171.5" cy="239" fill="#ADD1B2" rx="11" ry="11" style="stroke:#A80036;stroke-width:1.0;"/><path d="M175.6094,245 L167.8906,245 L167.8906,232.6094 L175.6094,232.6094 L175.6094,234.7656 L170.3438,234.7656 L170.3438,237.4375 L175.1094,237.4375 L175.1094,239.5938 L170.3438,239.5938 L170.3438,242.8438 L175.6094,242.8438 L175.6094,245 Z " fill="#000000"/><text fill="#000000" font-family="sans-serif" font-size="12" lengthAdjust="spacingAndGlyphs" textLength="93" x="185.5" y="243.1543">energy_special</text><line style="stroke:#A80036;stroke-width:1.5;" x1="157.5" x2="280.5" y1="255" y2="255"/><line style="stroke:#A80036;stroke-width:1.5;" x1="157.5" x2="280.5" y1="263" y2="263"/><!--MD5=[de3056f63fe13fdcdcfe459f38f4258e]
class extended_attributes_special_pokemon_type_lookup--><rect codeLine="5" fill="#FEFECE" filter="url(#f1nr94uebubobd)" height="48" id="extended_attributes_special_pokemon_type_lookup" style="stroke:#A80036;stroke-width:1.5;" width="354" x="231" y="115"/><ellipse cx="246" cy="131" fill="#ADD1B2" rx="11" ry="11" style="stroke:#A80036;stroke-width:1.0;"/><path d="M250.1094,137 L242.3906,137 L242.3906,124.6094 L250.1094,124.6094 L250.1094,126.7656 L244.8438,126.7656 L244.8438,129.4375 L249.6094,129.4375 L249.6094,131.5938 L244.8438,131.5938 L244.8438,134.8438 L250.1094,134.8438 L250.1094,137 Z " fill="#000000"/><text fill="#000000" font-family="sans-serif" font-size="12" lengthAdjust="spacingAndGlyphs" textLength="322" x="260" y="135.1543">extended_attributes_special_pokemon_type_lookup</text><line style="stroke:#A80036;stroke-width:1.5;" x1="232" x2="584" y1="147" y2="147"/><line style="stroke:#A80036;stroke-width:1.5;" x1="232" x2="584" y1="155" y2="155"/><!--MD5=[0226e7a91aa78cb2dba1b9ba67fa7cec]
class rarity--><rect codeLine="6" fill="#FEFECE" filter="url(#f1nr94uebubobd)" height="48" id="rarity" style="stroke:#A80036;stroke-width:1.5;" width="64" x="109" y="7"/><ellipse cx="124" cy="23" fill="#ADD1B2" rx="11" ry="11" style="stroke:#A80036;stroke-width:1.0;"/><path d="M128.1094,29 L120.3906,29 L120.3906,16.6094 L128.1094,16.6094 L128.1094,18.7656 L122.8438,18.7656 L122.8438,21.4375 L127.6094,21.4375 L127.6094,23.5938 L122.8438,23.5938 L122.8438,26.8438 L128.1094,26.8438 L128.1094,29 Z " fill="#000000"/><text fill="#000000" font-family="sans-serif" font-size="12" lengthAdjust="spacingAndGlyphs" textLength="32" x="138" y="27.1543">rarity</text><line style="stroke:#A80036;stroke-width:1.5;" x1="110" x2="172" y1="39" y2="39"/><line style="stroke:#A80036;stroke-width:1.5;" x1="110" x2="172" y1="47" y2="47"/><!--MD5=[36b0e245bf430e2a9a71d9dcae4d8422]
class set--><rect codeLine="7" fill="#FEFECE" filter="url(#f1nr94uebubobd)" height="48" id="set" style="stroke:#A80036;stroke-width:1.5;" width="52" x="22" y="7"/><ellipse cx="37" cy="23" fill="#ADD1B2" rx="11" ry="11" style="stroke:#A80036;stroke-width:1.0;"/><path d="M41.1094,29 L33.3906,29 L33.3906,16.6094 L41.1094,16.6094 L41.1094,18.7656 L35.8438,18.7656 L35.8438,21.4375 L40.6094,21.4375 L40.6094,23.5938 L35.8438,23.5938 L35.8438,26.8438 L41.1094,26.8438 L41.1094,29 Z " fill="#000000"/><text fill="#000000" font-family="sans-serif" font-size="12" lengthAdjust="spacingAndGlyphs" textLength="20" x="51" y="27.1543">set</text><line style="stroke:#A80036;stroke-width:1.5;" x1="23" x2="73" y1="39" y2="39"/><line style="stroke:#A80036;stroke-width:1.5;" x1="23" x2="73" y1="47" y2="47"/><!--MD5=[32bf819a8bcbdde7b71921ac65fcb81b]
class energy_card--><rect fill="#FEFECE" filter="url(#f1nr94uebubobd)" height="48" id="energy_card" style="stroke:#A80036;stroke-width:1.5;" width="109" x="86.5" y="115"/><ellipse cx="101.5" cy="131" fill="#ADD1B2" rx="11" ry="11" style="stroke:#A80036;stroke-width:1.0;"/><path d="M104.4688,136.6406 Q103.8906,136.9375 103.25,137.0781 Q102.6094,137.2344 101.9063,137.2344 Q99.4063,137.2344 98.0781,135.5938 Q96.7656,133.9375 96.7656,130.8125 Q96.7656,127.6875 98.0781,126.0313 Q99.4063,124.375 101.9063,124.375 Q102.6094,124.375 103.25,124.5313 Q103.9063,124.6875 104.4688,124.9844 L104.4688,127.7031 Q103.8438,127.125 103.25,126.8594 Q102.6563,126.5781 102.0313,126.5781 Q100.6875,126.5781 100,127.6563 Q99.3125,128.7188 99.3125,130.8125 Q99.3125,132.9063 100,133.9844 Q100.6875,135.0469 102.0313,135.0469 Q102.6563,135.0469 103.25,134.7813 Q103.8438,134.5 104.4688,133.9219 L104.4688,136.6406 Z " fill="#000000"/><text fill="#000000" font-family="sans-serif" font-size="12" lengthAdjust="spacingAndGlyphs" textLength="77" x="115.5" y="135.1543">energy_card</text><line style="stroke:#A80036;stroke-width:1.5;" x1="87.5" x2="194.5" y1="147" y2="147"/><line style="stroke:#A80036;stroke-width:1.5;" x1="87.5" x2="194.5" y1="155" y2="155"/><!--MD5=[a6dce8836e7f9e8349bf519ec474f45c]
link artist to energy_card--><path codeLine="9" d="M214.46,60.13 C200.16,75.29 182.54,93.96 168.15,109.22 " fill="none" id="artist-energy_card" style="stroke:#A80036;stroke-width:1.0;stroke-dasharray:7.0,7.0;"/><line style="stroke:#A80036;stroke-width:1.0;" x1="168.6543" x2="162.8287" y1="114.5087" y2="109.0257"/><line style="stroke:#A80036;stroke-width:1.0;" x1="170.7104" x2="164.8848" y1="112.3241" y2="106.8411"/><line style="stroke:#A80036;stroke-width:1.0;" x1="168.4829" x2="163" y1="108.8544" y2="114.68"/><line style="stroke:#A80036;stroke-width:1.0;" x1="213.6455" x2="219.4634" y1="55.1634" y2="60.6545"/><line style="stroke:#A80036;stroke-width:1.0;" x1="211.5864" x2="217.4043" y1="57.3451" y2="62.8362"/><line style="stroke:#A80036;stroke-width:1.0;" x1="213.8089" x2="219.3" y1="60.8179" y2="55"/><!--MD5=[b6aadfb0bf490b3c285f5dc2c4c7e49f]
link energy_card to energy_basic--><path codeLine="10" d="M119.92,169.01 C109.1,183.91 95.95,202.02 85.12,216.93 " fill="none" id="energy_card-energy_basic" style="stroke:#A80036;stroke-width:1.0;stroke-dasharray:7.0,7.0;"/><line style="stroke:#A80036;stroke-width:1.0;" x1="86.5251" x2="80.0418" y1="221.7818" y2="217.0949"/><line style="stroke:#A80036;stroke-width:1.0;" x1="88.2827" x2="81.7994" y1="219.3506" y2="214.6637"/><line style="stroke:#A80036;stroke-width:1.0;" x1="85.6269" x2="80.94" y1="216.1967" y2="222.68"/><line style="stroke:#A80036;stroke-width:1.0;" x1="118.7024" x2="125.1723" y1="163.8823" y2="168.5876"/><line style="stroke:#A80036;stroke-width:1.0;" x1="116.9379" x2="123.4077" y1="166.3085" y2="171.0138"/><line style="stroke:#A80036;stroke-width:1.0;" x1="119.5846" x2="124.29" y1="169.4699" y2="163"/><!--MD5=[2dcd5f058e76920105dc9a0b4c22aee9]
link energy_card to energy_special--><path codeLine="11" d="M162.35,169.01 C173.31,183.91 186.64,202.02 197.61,216.93 " fill="none" id="energy_card-energy_special" style="stroke:#A80036;stroke-width:1.0;stroke-dasharray:7.0,7.0;"/><line style="stroke:#A80036;stroke-width:1.0;" x1="202.6903" x2="196.2474" y1="217.0874" y2="221.8297"/><line style="stroke:#A80036;stroke-width:1.0;" x1="200.912" x2="194.4691" y1="214.6713" y2="219.4136"/><line style="stroke:#A80036;stroke-width:1.0;" x1="197.0978" x2="201.84" y1="216.2371" y2="222.68"/><line style="stroke:#A80036;stroke-width:1.0;" x1="157.0629" x2="163.5115" y1="168.5915" y2="163.8571"/><line style="stroke:#A80036;stroke-width:1.0;" x1="158.8383" x2="165.287" y1="171.0098" y2="166.2753"/><line style="stroke:#A80036;stroke-width:1.0;" x1="162.6544" x2="157.92" y1="169.4486" y2="163"/><!--MD5=[35e175262ffc257b26446dfac71ffa08]
link energy_card to extended_attributes_special_pokemon_type_lookup--><path codeLine="12" d="M202.91,139 C209.93,139 216.95,139 223.97,139 " fill="none" id="energy_card-extended_attributes_special_pokemon_type_lookup" style="stroke:#A80036;stroke-width:1.0;stroke-dasharray:7.0,7.0;"/><line style="stroke:#A80036;stroke-width:1.0;" x1="226.99" x2="226.99" y1="135" y2="143"/><line style="stroke:#A80036;stroke-width:1.0;" x1="223.99" x2="223.99" y1="135" y2="143"/><line style="stroke:#A80036;stroke-width:1.0;" x1="222.99" x2="230.99" y1="139" y2="139"/><line style="stroke:#A80036;stroke-width:1.0;" x1="199.76" x2="199.76" y1="143" y2="135"/><line style="stroke:#A80036;stroke-width:1.0;" x1="202.76" x2="202.76" y1="143" y2="135"/><line style="stroke:#A80036;stroke-width:1.0;" x1="203.76" x2="195.76" y1="139" y2="139"/><!--MD5=[7c6106b9038f68f3a4be9d176563f3da]
link rarity to energy_card--><path codeLine="13" d="M141,62.36 C141,76.52 141,93.35 141,107.53 " fill="none" id="rarity-energy_card" style="stroke:#A80036;stroke-width:1.0;stroke-dasharray:7.0,7.0;"/><line style="stroke:#A80036;stroke-width:1.0;" x1="145" x2="137" y1="110.68" y2="110.68"/><line style="stroke:#A80036;stroke-width:1.0;" x1="145" x2="137" y1="107.68" y2="107.68"/><line style="stroke:#A80036;stroke-width:1.0;" x1="141" x2="141" y1="106.68" y2="114.68"/><line style="stroke:#A80036;stroke-width:1.0;" x1="137" x2="145" y1="59" y2="59"/><line style="stroke:#A80036;stroke-width:1.0;" x1="137" x2="145" y1="62" y2="62"/><line style="stroke:#A80036;stroke-width:1.0;" x1="141" x2="141" y1="63" y2="55"/><!--MD5=[abde0989ac163bd9915579b0c6f44826]
link set to energy_card--><path codeLine="14" d="M73.07,60.57 C86.31,75.67 102.53,94.15 115.8,109.27 " fill="none" id="set-energy_card" style="stroke:#A80036;stroke-width:1.0;stroke-dasharray:7.0,7.0;"/><line style="stroke:#A80036;stroke-width:1.0;" x1="120.9076" x2="114.8951" y1="109.0351" y2="114.3124"/><line style="stroke:#A80036;stroke-width:1.0;" x1="118.9286" x2="112.9161" y1="106.7804" y2="112.0577"/><line style="stroke:#A80036;stroke-width:1.0;" x1="115.2627" x2="120.54" y1="108.6675" y2="114.68"/><line style="stroke:#A80036;stroke-width:1.0;" x1="67.8048" x2="73.8244" y1="60.6444" y2="55.3752"/><line style="stroke:#A80036;stroke-width:1.0;" x1="69.7807" x2="75.8003" y1="62.9017" y2="57.6326"/><line style="stroke:#A80036;stroke-width:1.0;" x1="73.4492" x2="68.18" y1="61.0196" y2="55"/><!--MD5=[94e1d66fee8825b237292fef2c6e6f0a]
@startuml energy-card-relationships

entity "artist" as artist {}
entity "energy_basic" as energy_basic {}
entity "energy_special" as energy_special {}
entity "extended_attributes_special_pokemon_type_lookup" as extended_attributes_special_pokemon_type_lookup {}
entity "rarity" as rarity {}
entity "set" as set {}

energy_card ||..up|| artist
energy_card ||..|| energy_basic
energy_card ||..|| energy_special
energy_card ||..right|| extended_attributes_special_pokemon_type_lookup
energy_card ||..up|| rarity
energy_card ||..up|| set

@enduml

PlantUML version 1.2020.22(Sun Dec 06 09:36:27 GMT 2020)
(GPL source distribution)
Java Runtime: OpenJDK Runtime Environment
JVM: OpenJDK 64-Bit Server VM
Default Encoding: UTF-8
Language: en
Country: GB
--></g></svg>