<?xml version="1.0" encoding="UTF-8" standalone="no"?><svg xmlns="http://www.w3.org/2000/svg" xmlns:xlink="http://www.w3.org/1999/xlink" contentScriptType="application/ecmascript" contentStyleType="text/css" height="285px" preserveAspectRatio="none" style="width:724px;height:285px;" version="1.1" viewBox="0 0 724 285" width="724px" zoomAndPan="magnify"><defs><filter height="300%" id="f1nvz88vp0docc" width="300%" x="-1" y="-1"><feGaussianBlur result="blurOut" stdDeviation="2.0"/><feColorMatrix in="blurOut" result="blurOut2" type="matrix" values="0 0 0 0 0 0 0 0 0 0 0 0 0 0 0 0 0 0 .4 0"/><feOffset dx="4.0" dy="4.0" in="blurOut2" result="blurOut3"/><feBlend in="SourceGraphic" in2="blurOut3" mode="normal"/></filter></defs><g><!--MD5=[e496c8ccb40abcb9b4f840cac8f8d9f4]
class artist--><rect codeLine="2" fill="#FEFECE" filter="url(#f1nvz88vp0docc)" height="48" id="artist" style="stroke:#A80036;stroke-width:1.5;" width="65" x="333.5" y="7"/><ellipse cx="348.5" cy="23" fill="#ADD1B2" rx="11" ry="11" style="stroke:#A80036;stroke-width:1.0;"/><path d="M352.6094,29 L344.8906,29 L344.8906,16.6094 L352.6094,16.6094 L352.6094,18.7656 L347.3438,18.7656 L347.3438,21.4375 L352.1094,21.4375 L352.1094,23.5938 L347.3438,23.5938 L347.3438,26.8438 L352.6094,26.8438 L352.6094,29 Z " fill="#000000"/><text fill="#000000" font-family="sans-serif" font-size="12" lengthAdjust="spacing" textLength="33" x="362.5" y="27.1543">artist</text><line style="stroke:#A80036;stroke-width:1.5;" x1="334.5" x2="397.5" y1="39" y2="39"/><line style="stroke:#A80036;stroke-width:1.5;" x1="334.5" x2="397.5" y1="47" y2="47"/><!--MD5=[21acb44298740fecc380669d05e1f2c6]
class card_rule--><rect codeLine="3" fill="#FEFECE" filter="url(#f1nvz88vp0docc)" height="48" id="card_rule" style="stroke:#A80036;stroke-width:1.5;" width="90" x="7" y="223"/><ellipse cx="22" cy="239" fill="#ADD1B2" rx="11" ry="11" style="stroke:#A80036;stroke-width:1.0;"/><path d="M26.1094,245 L18.3906,245 L18.3906,232.6094 L26.1094,232.6094 L26.1094,234.7656 L20.8438,234.7656 L20.8438,237.4375 L25.6094,237.4375 L25.6094,239.5938 L20.8438,239.5938 L20.8438,242.8438 L26.1094,242.8438 L26.1094,245 Z " fill="#000000"/><text fill="#000000" font-family="sans-serif" font-size="12" lengthAdjust="spacing" textLength="58" x="36" y="243.1543">card_rule</text><line style="stroke:#A80036;stroke-width:1.5;" x1="8" x2="96" y1="255" y2="255"/><line style="stroke:#A80036;stroke-width:1.5;" x1="8" x2="96" y1="263" y2="263"/><!--MD5=[878dcce6574601ff68e834d99fe16dba]
class energy_basic--><rect codeLine="4" fill="#FEFECE" filter="url(#f1nvz88vp0docc)" height="48" id="energy_basic" style="stroke:#A80036;stroke-width:1.5;" width="114" x="132" y="223"/><ellipse cx="147" cy="239" fill="#ADD1B2" rx="11" ry="11" style="stroke:#A80036;stroke-width:1.0;"/><path d="M151.1094,245 L143.3906,245 L143.3906,232.6094 L151.1094,232.6094 L151.1094,234.7656 L145.8438,234.7656 L145.8438,237.4375 L150.6094,237.4375 L150.6094,239.5938 L145.8438,239.5938 L145.8438,242.8438 L151.1094,242.8438 L151.1094,245 Z " fill="#000000"/><text fill="#000000" font-family="sans-serif" font-size="12" lengthAdjust="spacing" textLength="82" x="161" y="243.1543">energy_basic</text><line style="stroke:#A80036;stroke-width:1.5;" x1="133" x2="245" y1="255" y2="255"/><line style="stroke:#A80036;stroke-width:1.5;" x1="133" x2="245" y1="263" y2="263"/><!--MD5=[c030e977c4f8385909f84dee8fee5198]
class energy_special--><rect codeLine="5" fill="#FEFECE" filter="url(#f1nvz88vp0docc)" height="48" id="energy_special" style="stroke:#A80036;stroke-width:1.5;" width="125" x="281.5" y="223"/><ellipse cx="296.5" cy="239" fill="#ADD1B2" rx="11" ry="11" style="stroke:#A80036;stroke-width:1.0;"/><path d="M300.6094,245 L292.8906,245 L292.8906,232.6094 L300.6094,232.6094 L300.6094,234.7656 L295.3438,234.7656 L295.3438,237.4375 L300.1094,237.4375 L300.1094,239.5938 L295.3438,239.5938 L295.3438,242.8438 L300.6094,242.8438 L300.6094,245 Z " fill="#000000"/><text fill="#000000" font-family="sans-serif" font-size="12" lengthAdjust="spacing" textLength="93" x="310.5" y="243.1543">energy_special</text><line style="stroke:#A80036;stroke-width:1.5;" x1="282.5" x2="405.5" y1="255" y2="255"/><line style="stroke:#A80036;stroke-width:1.5;" x1="282.5" x2="405.5" y1="263" y2="263"/><!--MD5=[36fef931eaaaa86bf05843aa429d17ea]
class extended_attributes_core--><rect codeLine="6" fill="#FEFECE" filter="url(#f1nvz88vp0docc)" height="48" id="extended_attributes_core" style="stroke:#A80036;stroke-width:1.5;" width="193" x="441.5" y="223"/><ellipse cx="456.5" cy="239" fill="#ADD1B2" rx="11" ry="11" style="stroke:#A80036;stroke-width:1.0;"/><path d="M460.6094,245 L452.8906,245 L452.8906,232.6094 L460.6094,232.6094 L460.6094,234.7656 L455.3438,234.7656 L455.3438,237.4375 L460.1094,237.4375 L460.1094,239.5938 L455.3438,239.5938 L455.3438,242.8438 L460.6094,242.8438 L460.6094,245 Z " fill="#000000"/><text fill="#000000" font-family="sans-serif" font-size="12" lengthAdjust="spacing" textLength="161" x="470.5" y="243.1543">extended_attributes_core</text><line style="stroke:#A80036;stroke-width:1.5;" x1="442.5" x2="633.5" y1="255" y2="255"/><line style="stroke:#A80036;stroke-width:1.5;" x1="442.5" x2="633.5" y1="263" y2="263"/><!--MD5=[de3056f63fe13fdcdcfe459f38f4258e]
class extended_attributes_special_pokemon_type_lookup--><rect codeLine="7" fill="#FEFECE" filter="url(#f1nvz88vp0docc)" height="48" id="extended_attributes_special_pokemon_type_lookup" style="stroke:#A80036;stroke-width:1.5;" width="354" x="356" y="115"/><ellipse cx="371" cy="131" fill="#ADD1B2" rx="11" ry="11" style="stroke:#A80036;stroke-width:1.0;"/><path d="M375.1094,137 L367.3906,137 L367.3906,124.6094 L375.1094,124.6094 L375.1094,126.7656 L369.8438,126.7656 L369.8438,129.4375 L374.6094,129.4375 L374.6094,131.5938 L369.8438,131.5938 L369.8438,134.8438 L375.1094,134.8438 L375.1094,137 Z " fill="#000000"/><text fill="#000000" font-family="sans-serif" font-size="12" lengthAdjust="spacing" textLength="322" x="385" y="135.1543">extended_attributes_special_pokemon_type_lookup</text><line style="stroke:#A80036;stroke-width:1.5;" x1="357" x2="709" y1="147" y2="147"/><line style="stroke:#A80036;stroke-width:1.5;" x1="357" x2="709" y1="155" y2="155"/><!--MD5=[0226e7a91aa78cb2dba1b9ba67fa7cec]
class rarity--><rect codeLine="8" fill="#FEFECE" filter="url(#f1nvz88vp0docc)" height="48" id="rarity" style="stroke:#A80036;stroke-width:1.5;" width="64" x="234" y="7"/><ellipse cx="249" cy="23" fill="#ADD1B2" rx="11" ry="11" style="stroke:#A80036;stroke-width:1.0;"/><path d="M253.1094,29 L245.3906,29 L245.3906,16.6094 L253.1094,16.6094 L253.1094,18.7656 L247.8438,18.7656 L247.8438,21.4375 L252.6094,21.4375 L252.6094,23.5938 L247.8438,23.5938 L247.8438,26.8438 L253.1094,26.8438 L253.1094,29 Z " fill="#000000"/><text fill="#000000" font-family="sans-serif" font-size="12" lengthAdjust="spacing" textLength="32" x="263" y="27.1543">rarity</text><line style="stroke:#A80036;stroke-width:1.5;" x1="235" x2="297" y1="39" y2="39"/><line style="stroke:#A80036;stroke-width:1.5;" x1="235" x2="297" y1="47" y2="47"/><!--MD5=[36b0e245bf430e2a9a71d9dcae4d8422]
class set--><rect codeLine="9" fill="#FEFECE" filter="url(#f1nvz88vp0docc)" height="48" id="set" style="stroke:#A80036;stroke-width:1.5;" width="52" x="147" y="7"/><ellipse cx="162" cy="23" fill="#ADD1B2" rx="11" ry="11" style="stroke:#A80036;stroke-width:1.0;"/><path d="M166.1094,29 L158.3906,29 L158.3906,16.6094 L166.1094,16.6094 L166.1094,18.7656 L160.8438,18.7656 L160.8438,21.4375 L165.6094,21.4375 L165.6094,23.5938 L160.8438,23.5938 L160.8438,26.8438 L166.1094,26.8438 L166.1094,29 Z " fill="#000000"/><text fill="#000000" font-family="sans-serif" font-size="12" lengthAdjust="spacing" textLength="20" x="176" y="27.1543">set</text><line style="stroke:#A80036;stroke-width:1.5;" x1="148" x2="198" y1="39" y2="39"/><line style="stroke:#A80036;stroke-width:1.5;" x1="148" x2="198" y1="47" y2="47"/><!--MD5=[32bf819a8bcbdde7b71921ac65fcb81b]
class energy_card--><rect fill="#FEFECE" filter="url(#f1nvz88vp0docc)" height="48" id="energy_card" style="stroke:#A80036;stroke-width:1.5;" width="109" x="211.5" y="115"/><ellipse cx="226.5" cy="131" fill="#ADD1B2" rx="11" ry="11" style="stroke:#A80036;stroke-width:1.0;"/><path d="M229.4688,136.6406 Q228.8906,136.9375 228.25,137.0781 Q227.6094,137.2344 226.9063,137.2344 Q224.4063,137.2344 223.0781,135.5938 Q221.7656,133.9375 221.7656,130.8125 Q221.7656,127.6875 223.0781,126.0313 Q224.4063,124.375 226.9063,124.375 Q227.6094,124.375 228.25,124.5313 Q228.9063,124.6875 229.4688,124.9844 L229.4688,127.7031 Q228.8438,127.125 228.25,126.8594 Q227.6563,126.5781 227.0313,126.5781 Q225.6875,126.5781 225,127.6563 Q224.3125,128.7188 224.3125,130.8125 Q224.3125,132.9063 225,133.9844 Q225.6875,135.0469 227.0313,135.0469 Q227.6563,135.0469 228.25,134.7813 Q228.8438,134.5 229.4688,133.9219 L229.4688,136.6406 Z " fill="#000000"/><text fill="#000000" font-family="sans-serif" font-size="12" lengthAdjust="spacing" textLength="77" x="240.5" y="135.1543">energy_card</text><line style="stroke:#A80036;stroke-width:1.5;" x1="212.5" x2="319.5" y1="147" y2="147"/><line style="stroke:#A80036;stroke-width:1.5;" x1="212.5" x2="319.5" y1="155" y2="155"/><!--MD5=[a6dce8836e7f9e8349bf519ec474f45c]
link artist to energy_card--><path codeLine="11" d="M339.46,60.13 C325.16,75.29 307.54,93.96 293.15,109.22 " fill="none" id="artist-energy_card" style="stroke:#A80036;stroke-width:1.0;stroke-dasharray:7.0,7.0;"/><line style="stroke:#A80036;stroke-width:1.0;" x1="293.6543" x2="287.8287" y1="114.5087" y2="109.0257"/><line style="stroke:#A80036;stroke-width:1.0;" x1="295.7104" x2="289.8848" y1="112.3241" y2="106.8411"/><line style="stroke:#A80036;stroke-width:1.0;" x1="293.4829" x2="288" y1="108.8544" y2="114.68"/><line style="stroke:#A80036;stroke-width:1.0;" x1="338.6455" x2="344.4634" y1="55.1634" y2="60.6545"/><line style="stroke:#A80036;stroke-width:1.0;" x1="336.5864" x2="342.4043" y1="57.3451" y2="62.8362"/><line style="stroke:#A80036;stroke-width:1.0;" x1="338.8089" x2="344.3" y1="60.8179" y2="55"/><!--MD5=[515e4c8d215af4f7f22874ef29e8298b]
link energy_card to card_rule--><path codeLine="12" d="M213.05,166.23 C179.7,182.75 136.85,203.97 103.73,220.38 " fill="none" id="energy_card-card_rule" style="stroke:#A80036;stroke-width:1.0;stroke-dasharray:7.0,7.0;"/><line style="stroke:#A80036;stroke-width:1.0;" x1="102.5983" x2="99.0533" y1="225.4033" y2="218.2317"/><line style="stroke:#A80036;stroke-width:1.0;" x1="105.2877" x2="101.7427" y1="224.074" y2="216.9023"/><line style="stroke:#A80036;stroke-width:1.0;" x1="104.4117" x2="97.24" y1="220.045" y2="223.59"/><line style="stroke:#A80036;stroke-width:1.0;" x1="214.2117" x2="217.7567" y1="161.1867" y2="168.3583"/><line style="stroke:#A80036;stroke-width:1.0;" x1="211.5223" x2="215.0673" y1="162.516" y2="169.6877"/><line style="stroke:#A80036;stroke-width:1.0;" x1="212.3983" x2="219.57" y1="166.545" y2="163"/><!--MD5=[b6aadfb0bf490b3c285f5dc2c4c7e49f]
link energy_card to energy_basic--><path codeLine="13" d="M244.92,169.01 C234.1,183.91 220.95,202.02 210.12,216.93 " fill="none" id="energy_card-energy_basic" style="stroke:#A80036;stroke-width:1.0;stroke-dasharray:7.0,7.0;"/><line style="stroke:#A80036;stroke-width:1.0;" x1="211.5251" x2="205.0418" y1="221.7818" y2="217.0949"/><line style="stroke:#A80036;stroke-width:1.0;" x1="213.2827" x2="206.7994" y1="219.3506" y2="214.6637"/><line style="stroke:#A80036;stroke-width:1.0;" x1="210.6269" x2="205.94" y1="216.1967" y2="222.68"/><line style="stroke:#A80036;stroke-width:1.0;" x1="243.7024" x2="250.1723" y1="163.8823" y2="168.5876"/><line style="stroke:#A80036;stroke-width:1.0;" x1="241.9379" x2="248.4077" y1="166.3085" y2="171.0138"/><line style="stroke:#A80036;stroke-width:1.0;" x1="244.5846" x2="249.29" y1="169.4699" y2="163"/><!--MD5=[2dcd5f058e76920105dc9a0b4c22aee9]
link energy_card to energy_special--><path codeLine="14" d="M287.35,169.01 C298.31,183.91 311.64,202.02 322.61,216.93 " fill="none" id="energy_card-energy_special" style="stroke:#A80036;stroke-width:1.0;stroke-dasharray:7.0,7.0;"/><line style="stroke:#A80036;stroke-width:1.0;" x1="327.6903" x2="321.2474" y1="217.0874" y2="221.8297"/><line style="stroke:#A80036;stroke-width:1.0;" x1="325.912" x2="319.4691" y1="214.6713" y2="219.4136"/><line style="stroke:#A80036;stroke-width:1.0;" x1="322.0978" x2="326.84" y1="216.2371" y2="222.68"/><line style="stroke:#A80036;stroke-width:1.0;" x1="282.0629" x2="288.5115" y1="168.5915" y2="163.8571"/><line style="stroke:#A80036;stroke-width:1.0;" x1="283.8383" x2="290.287" y1="171.0098" y2="166.2753"/><line style="stroke:#A80036;stroke-width:1.0;" x1="287.6544" x2="282.92" y1="169.4486" y2="163"/><!--MD5=[885dcdfbbc75833e7acda53689f2fceb]
link energy_card to extended_attributes_core--><path codeLine="15" d="M328.39,164.31 C371,180.92 427.39,202.89 470.95,219.87 " fill="none" id="energy_card-extended_attributes_core" style="stroke:#A80036;stroke-width:1.0;stroke-dasharray:7.0,7.0;"/><line style="stroke:#A80036;stroke-width:1.0;" x1="471.1988" x2="480.834" y1="219.958" y2="217.2816"/><line style="stroke:#A80036;stroke-width:1.0;" x1="471.1988" x2="476.466" y1="219.958" y2="228.4584"/><line style="stroke:#A80036;stroke-width:1.0;" x1="471.1988" x2="478.65" y1="219.958" y2="222.87"/><line style="stroke:#A80036;stroke-width:1.0;" x1="470.792" x2="467.88" y1="215.5044" y2="222.9556"/><line style="stroke:#A80036;stroke-width:1.0;" x1="322.9896" x2="325.9016" y1="166.5016" y2="159.0504"/><line style="stroke:#A80036;stroke-width:1.0;" x1="325.7838" x2="328.6958" y1="167.5936" y2="160.1424"/><line style="stroke:#A80036;stroke-width:1.0;" x1="328.1712" x2="320.72" y1="164.232" y2="161.32"/><!--MD5=[35e175262ffc257b26446dfac71ffa08]
link energy_card to extended_attributes_special_pokemon_type_lookup--><path codeLine="16" d="M327.91,139 C334.93,139 341.95,139 348.97,139 " fill="none" id="energy_card-extended_attributes_special_pokemon_type_lookup" style="stroke:#A80036;stroke-width:1.0;stroke-dasharray:7.0,7.0;"/><line style="stroke:#A80036;stroke-width:1.0;" x1="351.99" x2="351.99" y1="135" y2="143"/><line style="stroke:#A80036;stroke-width:1.0;" x1="348.99" x2="348.99" y1="135" y2="143"/><line style="stroke:#A80036;stroke-width:1.0;" x1="347.99" x2="355.99" y1="139" y2="139"/><line style="stroke:#A80036;stroke-width:1.0;" x1="324.76" x2="324.76" y1="143" y2="135"/><line style="stroke:#A80036;stroke-width:1.0;" x1="327.76" x2="327.76" y1="143" y2="135"/><line style="stroke:#A80036;stroke-width:1.0;" x1="328.76" x2="320.76" y1="139" y2="139"/><!--MD5=[7c6106b9038f68f3a4be9d176563f3da]
link rarity to energy_card--><path codeLine="17" d="M266,62.36 C266,76.52 266,93.35 266,107.53 " fill="none" id="rarity-energy_card" style="stroke:#A80036;stroke-width:1.0;stroke-dasharray:7.0,7.0;"/><line style="stroke:#A80036;stroke-width:1.0;" x1="270" x2="262" y1="110.68" y2="110.68"/><line style="stroke:#A80036;stroke-width:1.0;" x1="270" x2="262" y1="107.68" y2="107.68"/><line style="stroke:#A80036;stroke-width:1.0;" x1="266" x2="266" y1="106.68" y2="114.68"/><line style="stroke:#A80036;stroke-width:1.0;" x1="262" x2="270" y1="59" y2="59"/><line style="stroke:#A80036;stroke-width:1.0;" x1="262" x2="270" y1="62" y2="62"/><line style="stroke:#A80036;stroke-width:1.0;" x1="266" x2="266" y1="63" y2="55"/><!--MD5=[abde0989ac163bd9915579b0c6f44826]
link set to energy_card--><path codeLine="18" d="M198.07,60.57 C211.31,75.67 227.53,94.15 240.8,109.27 " fill="none" id="set-energy_card" style="stroke:#A80036;stroke-width:1.0;stroke-dasharray:7.0,7.0;"/><line style="stroke:#A80036;stroke-width:1.0;" x1="245.9076" x2="239.8951" y1="109.0351" y2="114.3124"/><line style="stroke:#A80036;stroke-width:1.0;" x1="243.9286" x2="237.9161" y1="106.7804" y2="112.0577"/><line style="stroke:#A80036;stroke-width:1.0;" x1="240.2627" x2="245.54" y1="108.6675" y2="114.68"/><line style="stroke:#A80036;stroke-width:1.0;" x1="192.8048" x2="198.8244" y1="60.6444" y2="55.3752"/><line style="stroke:#A80036;stroke-width:1.0;" x1="194.7807" x2="200.8003" y1="62.9017" y2="57.6326"/><line style="stroke:#A80036;stroke-width:1.0;" x1="198.4492" x2="193.18" y1="61.0196" y2="55"/><!--MD5=[4f2e4854137f0b53afe1c22b9b1a8f40]
@startuml energy-card-relationships

entity "artist" as artist {}
entity "card_rule" as card_rule {}
entity "energy_basic" as energy_basic {}
entity "energy_special" as energy_special {}
entity "extended_attributes_core" as extended_attributes_core {}
entity "extended_attributes_special_pokemon_type_lookup" as extended_attributes_special_pokemon_type_lookup {}
entity "rarity" as rarity {}
entity "set" as set {}

energy_card ||..up|| artist
energy_card ||..|| card_rule
energy_card ||..|| energy_basic
energy_card ||..|| energy_special
energy_card ||..|{ extended_attributes_core
energy_card ||..right|| extended_attributes_special_pokemon_type_lookup
energy_card ||..up|| rarity
energy_card ||..up|| set

@enduml

PlantUML version 1.2021.00(Sun Jan 10 10:25:05 GMT 2021)
(GPL source distribution)
Java Runtime: OpenJDK Runtime Environment
JVM: OpenJDK 64-Bit Server VM
Default Encoding: UTF-8
Language: en
Country: GB
--></g></svg>