<?xml version="1.0" encoding="UTF-8" standalone="no"?><svg xmlns="http://www.w3.org/2000/svg" xmlns:xlink="http://www.w3.org/1999/xlink" contentScriptType="application/ecmascript" contentStyleType="text/css" height="285px" preserveAspectRatio="none" style="width:1207px;height:285px;" version="1.1" viewBox="0 0 1207 285" width="1207px" zoomAndPan="magnify"><defs><filter height="300%" id="f64eblwnz62o0" width="300%" x="-1" y="-1"><feGaussianBlur result="blurOut" stdDeviation="2.0"/><feColorMatrix in="blurOut" result="blurOut2" type="matrix" values="0 0 0 0 0 0 0 0 0 0 0 0 0 0 0 0 0 0 .4 0"/><feOffset dx="4.0" dy="4.0" in="blurOut2" result="blurOut3"/><feBlend in="SourceGraphic" in2="blurOut3" mode="normal"/></filter></defs><g><!--MD5=[1b0c078f5d796f81d685886800b19f1a]
class action--><rect codeLine="2" fill="#FEFECE" filter="url(#f64eblwnz62o0)" height="48" id="action" style="stroke:#A80036;stroke-width:1.5;" width="71" x="1072.5" y="115"/><ellipse cx="1087.5" cy="131" fill="#ADD1B2" rx="11" ry="11" style="stroke:#A80036;stroke-width:1.0;"/><path d="M1091.6094,137 L1083.8906,137 L1083.8906,124.6094 L1091.6094,124.6094 L1091.6094,126.7656 L1086.3438,126.7656 L1086.3438,129.4375 L1091.1094,129.4375 L1091.1094,131.5938 L1086.3438,131.5938 L1086.3438,134.8438 L1091.6094,134.8438 L1091.6094,137 Z " fill="#000000"/><text fill="#000000" font-family="sans-serif" font-size="12" lengthAdjust="spacing" textLength="39" x="1101.5" y="135.1543">action</text><line style="stroke:#A80036;stroke-width:1.5;" x1="1073.5" x2="1142.5" y1="147" y2="147"/><line style="stroke:#A80036;stroke-width:1.5;" x1="1073.5" x2="1142.5" y1="155" y2="155"/><!--MD5=[6cad3fb7a93e976c399e165c1664ab7c]
class ancient_trait--><rect codeLine="3" fill="#FEFECE" filter="url(#f64eblwnz62o0)" height="48" id="ancient_trait" style="stroke:#A80036;stroke-width:1.5;" width="111" x="502.5" y="115"/><ellipse cx="517.5" cy="131" fill="#ADD1B2" rx="11" ry="11" style="stroke:#A80036;stroke-width:1.0;"/><path d="M521.6094,137 L513.8906,137 L513.8906,124.6094 L521.6094,124.6094 L521.6094,126.7656 L516.3438,126.7656 L516.3438,129.4375 L521.1094,129.4375 L521.1094,131.5938 L516.3438,131.5938 L516.3438,134.8438 L521.6094,134.8438 L521.6094,137 Z " fill="#000000"/><text fill="#000000" font-family="sans-serif" font-size="12" lengthAdjust="spacing" textLength="79" x="531.5" y="135.1543">ancient_trait</text><line style="stroke:#A80036;stroke-width:1.5;" x1="503.5" x2="612.5" y1="147" y2="147"/><line style="stroke:#A80036;stroke-width:1.5;" x1="503.5" x2="612.5" y1="155" y2="155"/><!--MD5=[e496c8ccb40abcb9b4f840cac8f8d9f4]
class artist--><rect codeLine="4" fill="#FEFECE" filter="url(#f64eblwnz62o0)" height="48" id="artist" style="stroke:#A80036;stroke-width:1.5;" width="65" x="782.5" y="7"/><ellipse cx="797.5" cy="23" fill="#ADD1B2" rx="11" ry="11" style="stroke:#A80036;stroke-width:1.0;"/><path d="M801.6094,29 L793.8906,29 L793.8906,16.6094 L801.6094,16.6094 L801.6094,18.7656 L796.3438,18.7656 L796.3438,21.4375 L801.1094,21.4375 L801.1094,23.5938 L796.3438,23.5938 L796.3438,26.8438 L801.6094,26.8438 L801.6094,29 Z " fill="#000000"/><text fill="#000000" font-family="sans-serif" font-size="12" lengthAdjust="spacing" textLength="33" x="811.5" y="27.1543">artist</text><line style="stroke:#A80036;stroke-width:1.5;" x1="783.5" x2="846.5" y1="39" y2="39"/><line style="stroke:#A80036;stroke-width:1.5;" x1="783.5" x2="846.5" y1="47" y2="47"/><!--MD5=[73f50bc9beaa78259082f568f5749b58]
class attack--><rect codeLine="5" fill="#FEFECE" filter="url(#f64eblwnz62o0)" height="48" id="attack" style="stroke:#A80036;stroke-width:1.5;" width="72" x="675" y="7"/><ellipse cx="690" cy="23" fill="#ADD1B2" rx="11" ry="11" style="stroke:#A80036;stroke-width:1.0;"/><path d="M694.1094,29 L686.3906,29 L686.3906,16.6094 L694.1094,16.6094 L694.1094,18.7656 L688.8438,18.7656 L688.8438,21.4375 L693.6094,21.4375 L693.6094,23.5938 L688.8438,23.5938 L688.8438,26.8438 L694.1094,26.8438 L694.1094,29 Z " fill="#000000"/><text fill="#000000" font-family="sans-serif" font-size="12" lengthAdjust="spacing" textLength="40" x="704" y="27.1543">attack</text><line style="stroke:#A80036;stroke-width:1.5;" x1="676" x2="746" y1="39" y2="39"/><line style="stroke:#A80036;stroke-width:1.5;" x1="676" x2="746" y1="47" y2="47"/><!--MD5=[21acb44298740fecc380669d05e1f2c6]
class card_rule--><rect codeLine="6" fill="#FEFECE" filter="url(#f64eblwnz62o0)" height="48" id="card_rule" style="stroke:#A80036;stroke-width:1.5;" width="90" x="7" y="223"/><ellipse cx="22" cy="239" fill="#ADD1B2" rx="11" ry="11" style="stroke:#A80036;stroke-width:1.0;"/><path d="M26.1094,245 L18.3906,245 L18.3906,232.6094 L26.1094,232.6094 L26.1094,234.7656 L20.8438,234.7656 L20.8438,237.4375 L25.6094,237.4375 L25.6094,239.5938 L20.8438,239.5938 L20.8438,242.8438 L26.1094,242.8438 L26.1094,245 Z " fill="#000000"/><text fill="#000000" font-family="sans-serif" font-size="12" lengthAdjust="spacing" textLength="58" x="36" y="243.1543">card_rule</text><line style="stroke:#A80036;stroke-width:1.5;" x1="8" x2="96" y1="255" y2="255"/><line style="stroke:#A80036;stroke-width:1.5;" x1="8" x2="96" y1="263" y2="263"/><!--MD5=[36fef931eaaaa86bf05843aa429d17ea]
class extended_attributes_core--><rect codeLine="7" fill="#FEFECE" filter="url(#f64eblwnz62o0)" height="48" id="extended_attributes_core" style="stroke:#A80036;stroke-width:1.5;" width="193" x="132.5" y="223"/><ellipse cx="147.5" cy="239" fill="#ADD1B2" rx="11" ry="11" style="stroke:#A80036;stroke-width:1.0;"/><path d="M151.6094,245 L143.8906,245 L143.8906,232.6094 L151.6094,232.6094 L151.6094,234.7656 L146.3438,234.7656 L146.3438,237.4375 L151.1094,237.4375 L151.1094,239.5938 L146.3438,239.5938 L146.3438,242.8438 L151.6094,242.8438 L151.6094,245 Z " fill="#000000"/><text fill="#000000" font-family="sans-serif" font-size="12" lengthAdjust="spacing" textLength="161" x="161.5" y="243.1543">extended_attributes_core</text><line style="stroke:#A80036;stroke-width:1.5;" x1="133.5" x2="324.5" y1="255" y2="255"/><line style="stroke:#A80036;stroke-width:1.5;" x1="133.5" x2="324.5" y1="263" y2="263"/><!--MD5=[4a819daee672845cad70c7a48311cd4a]
class extended_attributes_special_pokemon--><rect codeLine="8" fill="#FEFECE" filter="url(#f64eblwnz62o0)" height="48" id="extended_attributes_special_pokemon" style="stroke:#A80036;stroke-width:1.5;" width="273" x="360.5" y="223"/><ellipse cx="375.5" cy="239" fill="#ADD1B2" rx="11" ry="11" style="stroke:#A80036;stroke-width:1.0;"/><path d="M379.6094,245 L371.8906,245 L371.8906,232.6094 L379.6094,232.6094 L379.6094,234.7656 L374.3438,234.7656 L374.3438,237.4375 L379.1094,237.4375 L379.1094,239.5938 L374.3438,239.5938 L374.3438,242.8438 L379.6094,242.8438 L379.6094,245 Z " fill="#000000"/><text fill="#000000" font-family="sans-serif" font-size="12" lengthAdjust="spacing" textLength="241" x="389.5" y="243.1543">extended_attributes_special_pokemon</text><line style="stroke:#A80036;stroke-width:1.5;" x1="361.5" x2="632.5" y1="255" y2="255"/><line style="stroke:#A80036;stroke-width:1.5;" x1="361.5" x2="632.5" y1="263" y2="263"/><!--MD5=[de3056f63fe13fdcdcfe459f38f4258e]
class extended_attributes_special_pokemon_type_lookup--><rect codeLine="9" fill="#FEFECE" filter="url(#f64eblwnz62o0)" height="48" id="extended_attributes_special_pokemon_type_lookup" style="stroke:#A80036;stroke-width:1.5;" width="354" x="286" y="7"/><ellipse cx="301" cy="23" fill="#ADD1B2" rx="11" ry="11" style="stroke:#A80036;stroke-width:1.0;"/><path d="M305.1094,29 L297.3906,29 L297.3906,16.6094 L305.1094,16.6094 L305.1094,18.7656 L299.8438,18.7656 L299.8438,21.4375 L304.6094,21.4375 L304.6094,23.5938 L299.8438,23.5938 L299.8438,26.8438 L305.1094,26.8438 L305.1094,29 Z " fill="#000000"/><text fill="#000000" font-family="sans-serif" font-size="12" lengthAdjust="spacing" textLength="322" x="315" y="27.1543">extended_attributes_special_pokemon_type_lookup</text><line style="stroke:#A80036;stroke-width:1.5;" x1="287" x2="639" y1="39" y2="39"/><line style="stroke:#A80036;stroke-width:1.5;" x1="287" x2="639" y1="47" y2="47"/><!--MD5=[76e32666241faaf3e6f4c654f890592d]
class pokedex--><rect codeLine="10" fill="#FEFECE" filter="url(#f64eblwnz62o0)" height="48" id="pokedex" style="stroke:#A80036;stroke-width:1.5;" width="85" x="668.5" y="223"/><ellipse cx="683.5" cy="239" fill="#ADD1B2" rx="11" ry="11" style="stroke:#A80036;stroke-width:1.0;"/><path d="M687.6094,245 L679.8906,245 L679.8906,232.6094 L687.6094,232.6094 L687.6094,234.7656 L682.3438,234.7656 L682.3438,237.4375 L687.1094,237.4375 L687.1094,239.5938 L682.3438,239.5938 L682.3438,242.8438 L687.6094,242.8438 L687.6094,245 Z " fill="#000000"/><text fill="#000000" font-family="sans-serif" font-size="12" lengthAdjust="spacing" textLength="53" x="697.5" y="243.1543">pokedex</text><line style="stroke:#A80036;stroke-width:1.5;" x1="669.5" x2="752.5" y1="255" y2="255"/><line style="stroke:#A80036;stroke-width:1.5;" x1="669.5" x2="752.5" y1="263" y2="263"/><!--MD5=[328ff794b810b5b74b7b71c9f2c25ed6]
class pokedex_type--><rect codeLine="11" fill="#FEFECE" filter="url(#f64eblwnz62o0)" height="48" id="pokedex_type" style="stroke:#A80036;stroke-width:1.5;" width="118" x="789" y="223"/><ellipse cx="804" cy="239" fill="#ADD1B2" rx="11" ry="11" style="stroke:#A80036;stroke-width:1.0;"/><path d="M808.1094,245 L800.3906,245 L800.3906,232.6094 L808.1094,232.6094 L808.1094,234.7656 L802.8438,234.7656 L802.8438,237.4375 L807.6094,237.4375 L807.6094,239.5938 L802.8438,239.5938 L802.8438,242.8438 L808.1094,242.8438 L808.1094,245 Z " fill="#000000"/><text fill="#000000" font-family="sans-serif" font-size="12" lengthAdjust="spacing" textLength="86" x="818" y="243.1543">pokedex_type</text><line style="stroke:#A80036;stroke-width:1.5;" x1="790" x2="906" y1="255" y2="255"/><line style="stroke:#A80036;stroke-width:1.5;" x1="790" x2="906" y1="263" y2="263"/><!--MD5=[4f316d913b233257f8e2dafc37d3a192]
class pokemon_card--><rect codeLine="12" fill="#FEFECE" filter="url(#f64eblwnz62o0)" height="48" id="pokemon_card" style="stroke:#A80036;stroke-width:1.5;" width="124" x="649" y="115"/><ellipse cx="664" cy="131" fill="#ADD1B2" rx="11" ry="11" style="stroke:#A80036;stroke-width:1.0;"/><path d="M668.1094,137 L660.3906,137 L660.3906,124.6094 L668.1094,124.6094 L668.1094,126.7656 L662.8438,126.7656 L662.8438,129.4375 L667.6094,129.4375 L667.6094,131.5938 L662.8438,131.5938 L662.8438,134.8438 L668.1094,134.8438 L668.1094,137 Z " fill="#000000"/><text fill="#000000" font-family="sans-serif" font-size="12" lengthAdjust="spacing" textLength="92" x="678" y="135.1543">pokemon_card</text><line style="stroke:#A80036;stroke-width:1.5;" x1="650" x2="772" y1="147" y2="147"/><line style="stroke:#A80036;stroke-width:1.5;" x1="650" x2="772" y1="155" y2="155"/><!--MD5=[eab564ffd3d1077ea51665aeb0cba3aa]
class pokemon_category--><rect codeLine="13" fill="#FEFECE" filter="url(#f64eblwnz62o0)" height="48" id="pokemon_category" style="stroke:#A80036;stroke-width:1.5;" width="151" x="942.5" y="223"/><ellipse cx="957.5" cy="239" fill="#ADD1B2" rx="11" ry="11" style="stroke:#A80036;stroke-width:1.0;"/><path d="M961.6094,245 L953.8906,245 L953.8906,232.6094 L961.6094,232.6094 L961.6094,234.7656 L956.3438,234.7656 L956.3438,237.4375 L961.1094,237.4375 L961.1094,239.5938 L956.3438,239.5938 L956.3438,242.8438 L961.6094,242.8438 L961.6094,245 Z " fill="#000000"/><text fill="#000000" font-family="sans-serif" font-size="12" lengthAdjust="spacing" textLength="119" x="971.5" y="243.1543">pokemon_category</text><line style="stroke:#A80036;stroke-width:1.5;" x1="943.5" x2="1092.5" y1="255" y2="255"/><line style="stroke:#A80036;stroke-width:1.5;" x1="943.5" x2="1092.5" y1="263" y2="263"/><!--MD5=[0226e7a91aa78cb2dba1b9ba67fa7cec]
class rarity--><rect codeLine="14" fill="#FEFECE" filter="url(#f64eblwnz62o0)" height="48" id="rarity" style="stroke:#A80036;stroke-width:1.5;" width="64" x="1129" y="223"/><ellipse cx="1144" cy="239" fill="#ADD1B2" rx="11" ry="11" style="stroke:#A80036;stroke-width:1.0;"/><path d="M1148.1094,245 L1140.3906,245 L1140.3906,232.6094 L1148.1094,232.6094 L1148.1094,234.7656 L1142.8438,234.7656 L1142.8438,237.4375 L1147.6094,237.4375 L1147.6094,239.5938 L1142.8438,239.5938 L1142.8438,242.8438 L1148.1094,242.8438 L1148.1094,245 Z " fill="#000000"/><text fill="#000000" font-family="sans-serif" font-size="12" lengthAdjust="spacing" textLength="32" x="1158" y="243.1543">rarity</text><line style="stroke:#A80036;stroke-width:1.5;" x1="1130" x2="1192" y1="255" y2="255"/><line style="stroke:#A80036;stroke-width:1.5;" x1="1130" x2="1192" y1="263" y2="263"/><!--MD5=[ed7f15a4b111841197208725b5fe3de6]
class resistence_lookup--><rect codeLine="15" fill="#FEFECE" filter="url(#f64eblwnz62o0)" height="48" id="resistence_lookup" style="stroke:#A80036;stroke-width:1.5;" width="146" x="321" y="115"/><ellipse cx="336" cy="131" fill="#ADD1B2" rx="11" ry="11" style="stroke:#A80036;stroke-width:1.0;"/><path d="M340.1094,137 L332.3906,137 L332.3906,124.6094 L340.1094,124.6094 L340.1094,126.7656 L334.8438,126.7656 L334.8438,129.4375 L339.6094,129.4375 L339.6094,131.5938 L334.8438,131.5938 L334.8438,134.8438 L340.1094,134.8438 L340.1094,137 Z " fill="#000000"/><text fill="#000000" font-family="sans-serif" font-size="12" lengthAdjust="spacing" textLength="114" x="350" y="135.1543">resistence_lookup</text><line style="stroke:#A80036;stroke-width:1.5;" x1="322" x2="466" y1="147" y2="147"/><line style="stroke:#A80036;stroke-width:1.5;" x1="322" x2="466" y1="155" y2="155"/><!--MD5=[36b0e245bf430e2a9a71d9dcae4d8422]
class set--><rect codeLine="16" fill="#FEFECE" filter="url(#f64eblwnz62o0)" height="48" id="set" style="stroke:#A80036;stroke-width:1.5;" width="52" x="985" y="115"/><ellipse cx="1000" cy="131" fill="#ADD1B2" rx="11" ry="11" style="stroke:#A80036;stroke-width:1.0;"/><path d="M1004.1094,137 L996.3906,137 L996.3906,124.6094 L1004.1094,124.6094 L1004.1094,126.7656 L998.8438,126.7656 L998.8438,129.4375 L1003.6094,129.4375 L1003.6094,131.5938 L998.8438,131.5938 L998.8438,134.8438 L1004.1094,134.8438 L1004.1094,137 Z " fill="#000000"/><text fill="#000000" font-family="sans-serif" font-size="12" lengthAdjust="spacing" textLength="20" x="1014" y="135.1543">set</text><line style="stroke:#A80036;stroke-width:1.5;" x1="986" x2="1036" y1="147" y2="147"/><line style="stroke:#A80036;stroke-width:1.5;" x1="986" x2="1036" y1="155" y2="155"/><!--MD5=[68991cbac30cf6f756f433d5b0dd6e31]
class weakness_lookup--><rect codeLine="17" fill="#FEFECE" filter="url(#f64eblwnz62o0)" height="48" id="weakness_lookup" style="stroke:#A80036;stroke-width:1.5;" width="142" x="808" y="115"/><ellipse cx="823" cy="131" fill="#ADD1B2" rx="11" ry="11" style="stroke:#A80036;stroke-width:1.0;"/><path d="M827.1094,137 L819.3906,137 L819.3906,124.6094 L827.1094,124.6094 L827.1094,126.7656 L821.8438,126.7656 L821.8438,129.4375 L826.6094,129.4375 L826.6094,131.5938 L821.8438,131.5938 L821.8438,134.8438 L827.1094,134.8438 L827.1094,137 Z " fill="#000000"/><text fill="#000000" font-family="sans-serif" font-size="12" lengthAdjust="spacing" textLength="110" x="837" y="135.1543">weakness_lookup</text><line style="stroke:#A80036;stroke-width:1.5;" x1="809" x2="949" y1="147" y2="147"/><line style="stroke:#A80036;stroke-width:1.5;" x1="809" x2="949" y1="155" y2="155"/><!--MD5=[7e7847dc75292d3c3292e1e3651921d2]
link pokemon_card to action--><path codeLine="19" d="M751.39,110.61 C768.23,100.42 788.5,90.17 808.5,85 C907.04,59.53 941.11,52.33 1037.5,85 C1052.41,90.05 1066.64,99.66 1078.36,109.39 " fill="none" id="pokemon_card-action" style="stroke:#A80036;stroke-width:1.0;stroke-dasharray:7.0,7.0;"/><line style="stroke:#A80036;stroke-width:1.0;" x1="1078.5441" x2="1088.5206" y1="109.5525" y2="110.2381"/><line style="stroke:#A80036;stroke-width:1.0;" x1="1078.5441" x2="1080.6794" y1="109.5525" y2="119.3219"/><line style="stroke:#A80036;stroke-width:1.0;" x1="1078.5441" x2="1084.6" y1="109.5525" y2="114.78"/><line style="stroke:#A80036;stroke-width:1.0;" x1="1079.6439" x2="1074.4164" y1="105.2177" y2="111.2736"/><line style="stroke:#A80036;stroke-width:1.0;" x1="749.9003" x2="745.6693" y1="116.2393" y2="109.4497"/><line style="stroke:#A80036;stroke-width:1.0;" x1="752.4464" x2="748.2154" y1="114.6527" y2="107.8631"/><line style="stroke:#A80036;stroke-width:1.0;" x1="751.1796" x2="744.39" y1="110.729" y2="114.96"/><!--MD5=[4441aa4b972f4715ae38471f9a693f55]
link ancient_trait to pokemon_card--><path codeLine="20" d="M620.77,139 C627.82,139 634.87,139 641.92,139 " fill="none" id="ancient_trait-pokemon_card" style="stroke:#A80036;stroke-width:1.0;stroke-dasharray:7.0,7.0;"/><line style="stroke:#A80036;stroke-width:1.0;" x1="644.97" x2="644.97" y1="135" y2="143"/><line style="stroke:#A80036;stroke-width:1.0;" x1="641.97" x2="641.97" y1="135" y2="143"/><line style="stroke:#A80036;stroke-width:1.0;" x1="640.97" x2="648.97" y1="139" y2="139"/><line style="stroke:#A80036;stroke-width:1.0;" x1="617.58" x2="617.58" y1="143" y2="135"/><line style="stroke:#A80036;stroke-width:1.0;" x1="620.58" x2="620.58" y1="143" y2="135"/><line style="stroke:#A80036;stroke-width:1.0;" x1="621.58" x2="613.58" y1="139" y2="139"/><!--MD5=[df33ec3419b03cf1bee246b5f087dc51]
link artist to pokemon_card--><path codeLine="21" d="M787.4,60.13 C772.39,75.42 753.88,94.29 738.84,109.62 " fill="none" id="artist-pokemon_card" style="stroke:#A80036;stroke-width:1.0;stroke-dasharray:7.0,7.0;"/><line style="stroke:#A80036;stroke-width:1.0;" x1="739.5366" x2="733.831" y1="114.631" y2="109.0234"/><line style="stroke:#A80036;stroke-width:1.0;" x1="741.6395" x2="735.9338" y1="112.4913" y2="106.8837"/><line style="stroke:#A80036;stroke-width:1.0;" x1="739.4876" x2="733.88" y1="108.9743" y2="114.68"/><line style="stroke:#A80036;stroke-width:1.0;" x1="786.7734" x2="792.4871" y1="55.0571" y2="60.6566"/><line style="stroke:#A80036;stroke-width:1.0;" x1="784.6736" x2="790.3874" y1="57.1998" y2="62.7992"/><line style="stroke:#A80036;stroke-width:1.0;" x1="786.8306" x2="792.43" y1="60.7137" y2="55"/><!--MD5=[06cba2ae2bb44617e1d36b1cc0ba0f98]
link attack to pokemon_card--><path codeLine="22" d="M711,63.26 C711,76.89 711,92.85 711,106.51 " fill="none" id="attack-pokemon_card" style="stroke:#A80036;stroke-width:1.0;stroke-dasharray:7.0,7.0;"/><line style="stroke:#A80036;stroke-width:1.0;" x1="715" x2="707" y1="110.68" y2="110.68"/><line style="stroke:#A80036;stroke-width:1.0;" x1="715" x2="707" y1="107.68" y2="107.68"/><line style="stroke:#A80036;stroke-width:1.0;" x1="711" x2="711" y1="106.68" y2="114.68"/><line style="stroke:#A80036;stroke-width:1.0;" x1="711" x2="705" y1="63" y2="55"/><line style="stroke:#A80036;stroke-width:1.0;" x1="711" x2="717" y1="63" y2="55"/><line style="stroke:#A80036;stroke-width:1.0;" x1="711" x2="711" y1="63" y2="55"/><line style="stroke:#A80036;stroke-width:1.0;" x1="707" x2="715" y1="65" y2="65"/><!--MD5=[62c207c2702160c4eb1ea13cada6ae95]
link pokemon_card to card_rule--><path codeLine="23" d="M641.79,160.65 C638.15,161.5 634.54,162.29 631,163 C404.63,208.38 339.64,169.71 115,223 C111.32,223.87 107.56,224.9 103.79,226.02 " fill="none" id="pokemon_card-card_rule" style="stroke:#A80036;stroke-width:1.0;stroke-dasharray:7.0,7.0;"/><line style="stroke:#A80036;stroke-width:1.0;" x1="102.0397" x2="99.6573" y1="230.7473" y2="223.1103"/><line style="stroke:#A80036;stroke-width:1.0;" x1="104.9036" x2="102.5211" y1="229.8538" y2="222.2168"/><line style="stroke:#A80036;stroke-width:1.0;" x1="104.667" x2="97.03" y1="225.7375" y2="228.12"/><line style="stroke:#A80036;stroke-width:1.0;" x1="643.9567" x2="645.8508" y1="156.0108" y2="163.7833"/><line style="stroke:#A80036;stroke-width:1.0;" x1="641.042" x2="642.9361" y1="156.7211" y2="164.4936"/><line style="stroke:#A80036;stroke-width:1.0;" x1="641.0175" x2="648.79" y1="160.8441" y2="158.95"/><!--MD5=[896b8f631eebdd02efca618140f36a35]
link pokemon_card to extended_attributes_core--><path codeLine="24" d="M640.87,160.49 C637.54,161.36 634.24,162.2 631,163 C602.4,170.05 443.01,202.63 333.74,224.81 " fill="none" id="pokemon_card-extended_attributes_core" style="stroke:#A80036;stroke-width:1.0;stroke-dasharray:7.0,7.0;"/><line style="stroke:#A80036;stroke-width:1.0;" x1="333.468" x2="326.8314" y1="224.8481" y2="232.3285"/><line style="stroke:#A80036;stroke-width:1.0;" x1="333.468" x2="324.4286" y1="224.8481" y2="220.5715"/><line style="stroke:#A80036;stroke-width:1.0;" x1="333.468" x2="325.63" y1="224.8481" y2="226.45"/><line style="stroke:#A80036;stroke-width:1.0;" x1="336.2284" x2="334.6265" y1="228.3666" y2="220.5286"/><line style="stroke:#A80036;stroke-width:1.0;" x1="643.7757" x2="645.8335" y1="155.5835" y2="163.3143"/><line style="stroke:#A80036;stroke-width:1.0;" x1="640.8767" x2="642.9344" y1="156.3551" y2="164.0859"/><line style="stroke:#A80036;stroke-width:1.0;" x1="640.9392" x2="648.67" y1="160.4777" y2="158.42"/><!--MD5=[c752fc6315e50b12ab3cec5111921c93]
link pokemon_card to extended_attributes_special_pokemon--><path codeLine="25" d="M658.14,166.18 C625.26,182.47 583.12,203.34 550.17,219.66 " fill="none" id="pokemon_card-extended_attributes_special_pokemon" style="stroke:#A80036;stroke-width:1.0;stroke-dasharray:7.0,7.0;"/><line style="stroke:#A80036;stroke-width:1.0;" x1="549.0683" x2="545.5233" y1="224.6733" y2="217.5017"/><line style="stroke:#A80036;stroke-width:1.0;" x1="551.7577" x2="548.2127" y1="223.344" y2="216.1723"/><line style="stroke:#A80036;stroke-width:1.0;" x1="550.8817" x2="543.71" y1="219.315" y2="222.86"/><line style="stroke:#A80036;stroke-width:1.0;" x1="659.2117" x2="662.7567" y1="161.1867" y2="168.3583"/><line style="stroke:#A80036;stroke-width:1.0;" x1="656.5223" x2="660.0673" y1="162.516" y2="169.6877"/><line style="stroke:#A80036;stroke-width:1.0;" x1="657.3983" x2="664.57" y1="166.545" y2="163"/><!--MD5=[08a6d2034e4fff1cbf3c5bbdb7bee2c9]
link extended_attributes_special_pokemon_type_lookup to pokemon_card--><path codeLine="26" d="M523.5,57.86 C562.01,74.32 611.73,95.57 650.29,112.05 " fill="none" id="extended_attributes_special_pokemon_type_lookup-pokemon_card" style="stroke:#A80036;stroke-width:1.0;stroke-dasharray:7.0,7.0;"/><line style="stroke:#A80036;stroke-width:1.0;" x1="654.7606" x2="651.6211" y1="109.6111" y2="116.9694"/><line style="stroke:#A80036;stroke-width:1.0;" x1="652.0013" x2="648.8618" y1="108.4338" y2="115.792"/><line style="stroke:#A80036;stroke-width:1.0;" x1="649.5118" x2="656.87" y1="111.7205" y2="114.86"/><line style="stroke:#A80036;stroke-width:1.0;" x1="518.9194" x2="522.0589" y1="60.2489" y2="52.8906"/><line style="stroke:#A80036;stroke-width:1.0;" x1="521.6787" x2="524.8182" y1="61.4262" y2="54.068"/><line style="stroke:#A80036;stroke-width:1.0;" x1="524.1682" x2="516.81" y1="58.1395" y2="55"/><!--MD5=[0b8e00b439ab816472bb1bcdb71a5369]
link pokemon_card to pokedex--><path codeLine="27" d="M711,171.26 C711,184.89 711,200.85 711,214.51 " fill="none" id="pokemon_card-pokedex" style="stroke:#A80036;stroke-width:1.0;stroke-dasharray:7.0,7.0;"/><line style="stroke:#A80036;stroke-width:1.0;" x1="711" x2="717" y1="214.68" y2="222.68"/><line style="stroke:#A80036;stroke-width:1.0;" x1="711" x2="705" y1="214.68" y2="222.68"/><line style="stroke:#A80036;stroke-width:1.0;" x1="711" x2="711" y1="214.68" y2="222.68"/><line style="stroke:#A80036;stroke-width:1.0;" x1="715" x2="707" y1="212.68" y2="212.68"/><line style="stroke:#A80036;stroke-width:1.0;" x1="707" x2="715" y1="167" y2="167"/><line style="stroke:#A80036;stroke-width:1.0;" x1="707" x2="715" y1="170" y2="170"/><line style="stroke:#A80036;stroke-width:1.0;" x1="711" x2="711" y1="171" y2="163"/><!--MD5=[bcdb627505f77fefabd79a72fc49efad]
link pokemon_card to pokedex_type--><path codeLine="28" d="M747.07,167.91 C766.88,183.24 791.39,202.2 811.3,217.6 " fill="none" id="pokemon_card-pokedex_type" style="stroke:#A80036;stroke-width:1.0;stroke-dasharray:7.0,7.0;"/><line style="stroke:#A80036;stroke-width:1.0;" x1="811.5275" x2="821.5265" y1="217.7913" y2="217.9306"/><line style="stroke:#A80036;stroke-width:1.0;" x1="811.5275" x2="814.1935" y1="217.7913" y2="227.4294"/><line style="stroke:#A80036;stroke-width:1.0;" x1="811.5275" x2="817.86" y1="217.7913" y2="222.68"/><line style="stroke:#A80036;stroke-width:1.0;" x1="812.3888" x2="807.5" y1="213.4028" y2="219.7353"/><line style="stroke:#A80036;stroke-width:1.0;" x1="741.4439" x2="746.3416" y1="168.6116" y2="162.2861"/><line style="stroke:#A80036;stroke-width:1.0;" x1="743.816" x2="748.7137" y1="170.4482" y2="164.1227"/><line style="stroke:#A80036;stroke-width:1.0;" x1="747.0556" x2="740.73" y1="167.8977" y2="163"/><!--MD5=[cc2ba19013cbd87bce094f0a4925c173]
link pokemon_card to pokemon_category--><path codeLine="29" d="M779.91,163.79 C828.88,180.7 894.57,203.38 944.55,220.64 " fill="none" id="pokemon_card-pokemon_category" style="stroke:#A80036;stroke-width:1.0;stroke-dasharray:7.0,7.0;"/><line style="stroke:#A80036;stroke-width:1.0;" x1="948.7059" x2="946.0929" y1="217.8429" y2="225.4041"/><line style="stroke:#A80036;stroke-width:1.0;" x1="945.8704" x2="943.2574" y1="216.863" y2="224.4243"/><line style="stroke:#A80036;stroke-width:1.0;" x1="943.6188" x2="951.18" y1="220.317" y2="222.93"/><line style="stroke:#A80036;stroke-width:1.0;" x1="775.6041" x2="778.2171" y1="166.5371" y2="158.9759"/><line style="stroke:#A80036;stroke-width:1.0;" x1="778.4396" x2="781.0526" y1="167.517" y2="159.9557"/><line style="stroke:#A80036;stroke-width:1.0;" x1="780.6912" x2="773.13" y1="164.063" y2="161.45"/><!--MD5=[2351c9e03ddb8d4f172810d0e4e523a2]
link pokemon_card to rarity--><path codeLine="30" d="M780.28,160.35 C783.9,161.28 787.49,162.17 791,163 C931.8,196.36 973.12,179.1 1111,223 C1114.7,224.18 1118.48,225.56 1122.23,227.05 " fill="none" id="pokemon_card-rarity" style="stroke:#A80036;stroke-width:1.0;stroke-dasharray:7.0,7.0;"/><line style="stroke:#A80036;stroke-width:1.0;" x1="1126.7727" x2="1123.6865" y1="224.6065" y2="231.9873"/><line style="stroke:#A80036;stroke-width:1.0;" x1="1124.0049" x2="1120.9188" y1="223.4492" y2="230.83"/><line style="stroke:#A80036;stroke-width:1.0;" x1="1121.5393" x2="1128.92" y1="226.7538" y2="229.84"/><line style="stroke:#A80036;stroke-width:1.0;" x1="776.1574" x2="778.1821" y1="163.4121" y2="155.6726"/><line style="stroke:#A80036;stroke-width:1.0;" x1="779.0598" x2="781.0845" y1="164.1714" y2="156.4318"/><line style="stroke:#A80036;stroke-width:1.0;" x1="781.0395" x2="773.3" y1="160.5547" y2="158.53"/><!--MD5=[aa555519e4250e199da012f5153722e4]
link resistence_lookup to pokemon_card--><path codeLine="31" d="M438.59,110.99 C457.54,100.66 480.34,90.21 502.5,85 C550.52,73.71 565.74,72.66 613.5,85 C633.5,90.17 653.77,100.42 670.61,110.61 " fill="none" id="resistence_lookup-pokemon_card" style="stroke:#A80036;stroke-width:1.0;stroke-dasharray:7.0,7.0;"/><line style="stroke:#A80036;stroke-width:1.0;" x1="676.3307" x2="672.0997" y1="109.4497" y2="116.2393"/><line style="stroke:#A80036;stroke-width:1.0;" x1="673.7846" x2="669.5536" y1="107.8631" y2="114.6527"/><line style="stroke:#A80036;stroke-width:1.0;" x1="670.8204" x2="677.61" y1="110.729" y2="114.96"/><line style="stroke:#A80036;stroke-width:1.0;" x1="438.5052" x2="434.4448" y1="111.0303" y2="120.1689"/><line style="stroke:#A80036;stroke-width:1.0;" x1="438.5052" x2="428.5952" y1="111.0303" y2="109.6911"/><line style="stroke:#A80036;stroke-width:1.0;" x1="438.5052" x2="431.52" y1="111.0303" y2="114.93"/><line style="stroke:#A80036;stroke-width:1.0;" x1="442.2013" x2="438.3016" y1="113.548" y2="106.5628"/><!--MD5=[dde5dce0400fa17255421787c78a0130]
link pokemon_card to set--><path codeLine="32" d="M750.49,111.15 C767.5,100.78 788.14,90.26 808.5,85 C869.6,69.21 891.53,62.51 950.5,85 C964.05,90.17 976.5,99.93 986.53,109.74 " fill="none" id="pokemon_card-set" style="stroke:#A80036;stroke-width:1.0;stroke-dasharray:7.0,7.0;"/><line style="stroke:#A80036;stroke-width:1.0;" x1="991.599" x2="985.8934" y1="109.1934" y2="114.801"/><line style="stroke:#A80036;stroke-width:1.0;" x1="989.4962" x2="983.7905" y1="107.0537" y2="112.6613"/><line style="stroke:#A80036;stroke-width:1.0;" x1="985.9424" x2="991.55" y1="109.1443" y2="114.85"/><line style="stroke:#A80036;stroke-width:1.0;" x1="749.8998" x2="745.6715" y1="116.2415" y2="109.4502"/><line style="stroke:#A80036;stroke-width:1.0;" x1="752.4465" x2="748.2183" y1="114.6559" y2="107.8646"/><line style="stroke:#A80036;stroke-width:1.0;" x1="751.1813" x2="744.39" y1="110.7318" y2="114.96"/><!--MD5=[584e7e28fe4cca9035d2262f60b1bcc3]
link pokemon_card to weakness_lookup--><path codeLine="33" d="M781.17,139 C787.27,139 793.37,139 799.47,139 " fill="none" id="pokemon_card-weakness_lookup" style="stroke:#A80036;stroke-width:1.0;stroke-dasharray:7.0,7.0;"/><line style="stroke:#A80036;stroke-width:1.0;" x1="799.79" x2="807.79" y1="139" y2="133"/><line style="stroke:#A80036;stroke-width:1.0;" x1="799.79" x2="807.79" y1="139" y2="145"/><line style="stroke:#A80036;stroke-width:1.0;" x1="799.79" x2="807.79" y1="139" y2="139"/><line style="stroke:#A80036;stroke-width:1.0;" x1="797.79" x2="797.79" y1="135" y2="143"/><line style="stroke:#A80036;stroke-width:1.0;" x1="777.02" x2="777.02" y1="143" y2="135"/><line style="stroke:#A80036;stroke-width:1.0;" x1="780.02" x2="780.02" y1="143" y2="135"/><line style="stroke:#A80036;stroke-width:1.0;" x1="781.02" x2="773.02" y1="139" y2="139"/><!--MD5=[39ba266740c67d07cc66389592ac438a]
@startuml pokemon-card-relationships

entity "action" as action {}
entity "ancient_trait" as ancient_trait {}
entity "artist" as artist {}
entity "attack" as attack {}
entity "card_rule" as card_rule {}
entity "extended_attributes_core" as extended_attributes_core {}
entity "extended_attributes_special_pokemon" as extended_attributes_special_pokemon {}
entity "extended_attributes_special_pokemon_type_lookup" as extended_attributes_special_pokemon_type_lookup {}
entity "pokedex" as pokedex {}
entity "pokedex_type" as pokedex_type {}
entity "pokemon_card" as pokemon_card {}
entity "pokemon_category" as pokemon_category {}
entity "rarity" as rarity {}
entity "resistence_lookup" as resistence_lookup {}
entity "set" as set {}
entity "weakness_lookup" as weakness_lookup {}

pokemon_card ||..right|{ action
pokemon_card ||..left|| ancient_trait
pokemon_card ||..up|| artist
pokemon_card ||..up|{ attack
pokemon_card ||..|| card_rule
pokemon_card ||..|{ extended_attributes_core
pokemon_card ||..|| extended_attributes_special_pokemon
pokemon_card ||..up|| extended_attributes_special_pokemon_type_lookup
pokemon_card ||..|{ pokedex
pokemon_card ||..down|{ pokedex_type
pokemon_card ||..down|| pokemon_category
pokemon_card ||..down|| rarity
pokemon_card ||..left|{ resistence_lookup
pokemon_card ||..right|| set
pokemon_card ||..right|{ weakness_lookup

@enduml

PlantUML version 1.2021.00(Sun Jan 10 10:25:05 GMT 2021)
(GPL source distribution)
Java Runtime: OpenJDK Runtime Environment
JVM: OpenJDK 64-Bit Server VM
Default Encoding: UTF-8
Language: en
Country: GB
--></g></svg>