<?xml version="1.0" encoding="UTF-8" standalone="no"?><svg xmlns="http://www.w3.org/2000/svg" xmlns:xlink="http://www.w3.org/1999/xlink" contentScriptType="application/ecmascript" contentStyleType="text/css" height="285px" preserveAspectRatio="none" style="width:941px;height:285px;" version="1.1" viewBox="0 0 941 285" width="941px" zoomAndPan="magnify"><defs><filter height="300%" id="fmwzz89w7p85q" width="300%" x="-1" y="-1"><feGaussianBlur result="blurOut" stdDeviation="2.0"/><feColorMatrix in="blurOut" result="blurOut2" type="matrix" values="0 0 0 0 0 0 0 0 0 0 0 0 0 0 0 0 0 0 .4 0"/><feOffset dx="4.0" dy="4.0" in="blurOut2" result="blurOut3"/><feBlend in="SourceGraphic" in2="blurOut3" mode="normal"/></filter></defs><g><!--MD5=[1b0c078f5d796f81d685886800b19f1a]
class action--><rect codeLine="2" fill="#FEFECE" filter="url(#fmwzz89w7p85q)" height="48" id="action" style="stroke: #A80036; stroke-width: 1.5;" width="71" x="856" y="115"/><ellipse cx="871" cy="131" fill="#ADD1B2" rx="11" ry="11" style="stroke: #A80036; stroke-width: 1.0;"/><path d="M875.1094,137 L867.3906,137 L867.3906,124.6094 L875.1094,124.6094 L875.1094,126.7656 L869.8438,126.7656 L869.8438,129.4375 L874.6094,129.4375 L874.6094,131.5938 L869.8438,131.5938 L869.8438,134.8438 L875.1094,134.8438 L875.1094,137 Z "/><text fill="#000000" font-family="sans-serif" font-size="12" lengthAdjust="spacingAndGlyphs" textLength="39" x="885" y="135.1543">action</text><line style="stroke: #A80036; stroke-width: 1.5;" x1="857" x2="926" y1="147" y2="147"/><line style="stroke: #A80036; stroke-width: 1.5;" x1="857" x2="926" y1="155" y2="155"/><!--MD5=[6cad3fb7a93e976c399e165c1664ab7c]
class ancient_trait--><rect codeLine="3" fill="#FEFECE" filter="url(#fmwzz89w7p85q)" height="48" id="ancient_trait" style="stroke: #A80036; stroke-width: 1.5;" width="111" x="286" y="115"/><ellipse cx="301" cy="131" fill="#ADD1B2" rx="11" ry="11" style="stroke: #A80036; stroke-width: 1.0;"/><path d="M305.1094,137 L297.3906,137 L297.3906,124.6094 L305.1094,124.6094 L305.1094,126.7656 L299.8438,126.7656 L299.8438,129.4375 L304.6094,129.4375 L304.6094,131.5938 L299.8438,131.5938 L299.8438,134.8438 L305.1094,134.8438 L305.1094,137 Z "/><text fill="#000000" font-family="sans-serif" font-size="12" lengthAdjust="spacingAndGlyphs" textLength="79" x="315" y="135.1543">ancient_trait</text><line style="stroke: #A80036; stroke-width: 1.5;" x1="287" x2="396" y1="147" y2="147"/><line style="stroke: #A80036; stroke-width: 1.5;" x1="287" x2="396" y1="155" y2="155"/><!--MD5=[e496c8ccb40abcb9b4f840cac8f8d9f4]
class artist--><rect codeLine="4" fill="#FEFECE" filter="url(#fmwzz89w7p85q)" height="48" id="artist" style="stroke: #A80036; stroke-width: 1.5;" width="65" x="566" y="7"/><ellipse cx="581" cy="23" fill="#ADD1B2" rx="11" ry="11" style="stroke: #A80036; stroke-width: 1.0;"/><path d="M585.1094,29 L577.3906,29 L577.3906,16.6094 L585.1094,16.6094 L585.1094,18.7656 L579.8438,18.7656 L579.8438,21.4375 L584.6094,21.4375 L584.6094,23.5938 L579.8438,23.5938 L579.8438,26.8438 L585.1094,26.8438 L585.1094,29 Z "/><text fill="#000000" font-family="sans-serif" font-size="12" lengthAdjust="spacingAndGlyphs" textLength="33" x="595" y="27.1543">artist</text><line style="stroke: #A80036; stroke-width: 1.5;" x1="567" x2="630" y1="39" y2="39"/><line style="stroke: #A80036; stroke-width: 1.5;" x1="567" x2="630" y1="47" y2="47"/><!--MD5=[73f50bc9beaa78259082f568f5749b58]
class attack--><rect codeLine="5" fill="#FEFECE" filter="url(#fmwzz89w7p85q)" height="48" id="attack" style="stroke: #A80036; stroke-width: 1.5;" width="72" x="458.5" y="7"/><ellipse cx="473.5" cy="23" fill="#ADD1B2" rx="11" ry="11" style="stroke: #A80036; stroke-width: 1.0;"/><path d="M477.6094,29 L469.8906,29 L469.8906,16.6094 L477.6094,16.6094 L477.6094,18.7656 L472.3438,18.7656 L472.3438,21.4375 L477.1094,21.4375 L477.1094,23.5938 L472.3438,23.5938 L472.3438,26.8438 L477.6094,26.8438 L477.6094,29 Z "/><text fill="#000000" font-family="sans-serif" font-size="12" lengthAdjust="spacingAndGlyphs" textLength="40" x="487.5" y="27.1543">attack</text><line style="stroke: #A80036; stroke-width: 1.5;" x1="459.5" x2="529.5" y1="39" y2="39"/><line style="stroke: #A80036; stroke-width: 1.5;" x1="459.5" x2="529.5" y1="47" y2="47"/><!--MD5=[4a819daee672845cad70c7a48311cd4a]
class extended_attributes_special_pokemon--><rect codeLine="6" fill="#FEFECE" filter="url(#fmwzz89w7p85q)" height="48" id="extended_attributes_special_pokemon" style="stroke: #A80036; stroke-width: 1.5;" width="273" x="7" y="223"/><ellipse cx="22" cy="239" fill="#ADD1B2" rx="11" ry="11" style="stroke: #A80036; stroke-width: 1.0;"/><path d="M26.1094,245 L18.3906,245 L18.3906,232.6094 L26.1094,232.6094 L26.1094,234.7656 L20.8438,234.7656 L20.8438,237.4375 L25.6094,237.4375 L25.6094,239.5938 L20.8438,239.5938 L20.8438,242.8438 L26.1094,242.8438 L26.1094,245 Z "/><text fill="#000000" font-family="sans-serif" font-size="12" lengthAdjust="spacingAndGlyphs" textLength="241" x="36" y="243.1543">extended_attributes_special_pokemon</text><line style="stroke: #A80036; stroke-width: 1.5;" x1="8" x2="279" y1="255" y2="255"/><line style="stroke: #A80036; stroke-width: 1.5;" x1="8" x2="279" y1="263" y2="263"/><!--MD5=[054a44254ebf563cd77b023f4bfa137f]
class extended_attributes_special_pokemon_type--><rect codeLine="7" fill="#FEFECE" filter="url(#fmwzz89w7p85q)" height="48" id="extended_attributes_special_pokemon_type" style="stroke: #A80036; stroke-width: 1.5;" width="306" x="117.5" y="7"/><ellipse cx="132.5" cy="23" fill="#ADD1B2" rx="11" ry="11" style="stroke: #A80036; stroke-width: 1.0;"/><path d="M136.6094,29 L128.8906,29 L128.8906,16.6094 L136.6094,16.6094 L136.6094,18.7656 L131.3438,18.7656 L131.3438,21.4375 L136.1094,21.4375 L136.1094,23.5938 L131.3438,23.5938 L131.3438,26.8438 L136.6094,26.8438 L136.6094,29 Z "/><text fill="#000000" font-family="sans-serif" font-size="12" lengthAdjust="spacingAndGlyphs" textLength="274" x="146.5" y="27.1543">extended_attributes_special_pokemon_type</text><line style="stroke: #A80036; stroke-width: 1.5;" x1="118.5" x2="422.5" y1="39" y2="39"/><line style="stroke: #A80036; stroke-width: 1.5;" x1="118.5" x2="422.5" y1="47" y2="47"/><!--MD5=[76e32666241faaf3e6f4c654f890592d]
class pokedex--><rect codeLine="8" fill="#FEFECE" filter="url(#fmwzz89w7p85q)" height="48" id="pokedex" style="stroke: #A80036; stroke-width: 1.5;" width="85" x="315" y="223"/><ellipse cx="330" cy="239" fill="#ADD1B2" rx="11" ry="11" style="stroke: #A80036; stroke-width: 1.0;"/><path d="M334.1094,245 L326.3906,245 L326.3906,232.6094 L334.1094,232.6094 L334.1094,234.7656 L328.8438,234.7656 L328.8438,237.4375 L333.6094,237.4375 L333.6094,239.5938 L328.8438,239.5938 L328.8438,242.8438 L334.1094,242.8438 L334.1094,245 Z "/><text fill="#000000" font-family="sans-serif" font-size="12" lengthAdjust="spacingAndGlyphs" textLength="53" x="344" y="243.1543">pokedex</text><line style="stroke: #A80036; stroke-width: 1.5;" x1="316" x2="399" y1="255" y2="255"/><line style="stroke: #A80036; stroke-width: 1.5;" x1="316" x2="399" y1="263" y2="263"/><!--MD5=[328ff794b810b5b74b7b71c9f2c25ed6]
class pokedex_type--><rect codeLine="9" fill="#FEFECE" filter="url(#fmwzz89w7p85q)" height="48" id="pokedex_type" style="stroke: #A80036; stroke-width: 1.5;" width="118" x="435.5" y="223"/><ellipse cx="450.5" cy="239" fill="#ADD1B2" rx="11" ry="11" style="stroke: #A80036; stroke-width: 1.0;"/><path d="M454.6094,245 L446.8906,245 L446.8906,232.6094 L454.6094,232.6094 L454.6094,234.7656 L449.3438,234.7656 L449.3438,237.4375 L454.1094,237.4375 L454.1094,239.5938 L449.3438,239.5938 L449.3438,242.8438 L454.6094,242.8438 L454.6094,245 Z "/><text fill="#000000" font-family="sans-serif" font-size="12" lengthAdjust="spacingAndGlyphs" textLength="86" x="464.5" y="243.1543">pokedex_type</text><line style="stroke: #A80036; stroke-width: 1.5;" x1="436.5" x2="552.5" y1="255" y2="255"/><line style="stroke: #A80036; stroke-width: 1.5;" x1="436.5" x2="552.5" y1="263" y2="263"/><!--MD5=[4f316d913b233257f8e2dafc37d3a192]
class pokemon_card--><rect codeLine="10" fill="#FEFECE" filter="url(#fmwzz89w7p85q)" height="48" id="pokemon_card" style="stroke: #A80036; stroke-width: 1.5;" width="124" x="432.5" y="115"/><ellipse cx="447.5" cy="131" fill="#ADD1B2" rx="11" ry="11" style="stroke: #A80036; stroke-width: 1.0;"/><path d="M451.6094,137 L443.8906,137 L443.8906,124.6094 L451.6094,124.6094 L451.6094,126.7656 L446.3438,126.7656 L446.3438,129.4375 L451.1094,129.4375 L451.1094,131.5938 L446.3438,131.5938 L446.3438,134.8438 L451.6094,134.8438 L451.6094,137 Z "/><text fill="#000000" font-family="sans-serif" font-size="12" lengthAdjust="spacingAndGlyphs" textLength="92" x="461.5" y="135.1543">pokemon_card</text><line style="stroke: #A80036; stroke-width: 1.5;" x1="433.5" x2="555.5" y1="147" y2="147"/><line style="stroke: #A80036; stroke-width: 1.5;" x1="433.5" x2="555.5" y1="155" y2="155"/><!--MD5=[eab564ffd3d1077ea51665aeb0cba3aa]
class pokemon_category--><rect codeLine="11" fill="#FEFECE" filter="url(#fmwzz89w7p85q)" height="48" id="pokemon_category" style="stroke: #A80036; stroke-width: 1.5;" width="151" x="589" y="223"/><ellipse cx="604" cy="239" fill="#ADD1B2" rx="11" ry="11" style="stroke: #A80036; stroke-width: 1.0;"/><path d="M608.1094,245 L600.3906,245 L600.3906,232.6094 L608.1094,232.6094 L608.1094,234.7656 L602.8438,234.7656 L602.8438,237.4375 L607.6094,237.4375 L607.6094,239.5938 L602.8438,239.5938 L602.8438,242.8438 L608.1094,242.8438 L608.1094,245 Z "/><text fill="#000000" font-family="sans-serif" font-size="12" lengthAdjust="spacingAndGlyphs" textLength="119" x="618" y="243.1543">pokemon_category</text><line style="stroke: #A80036; stroke-width: 1.5;" x1="590" x2="739" y1="255" y2="255"/><line style="stroke: #A80036; stroke-width: 1.5;" x1="590" x2="739" y1="263" y2="263"/><!--MD5=[0226e7a91aa78cb2dba1b9ba67fa7cec]
class rarity--><rect codeLine="12" fill="#FEFECE" filter="url(#fmwzz89w7p85q)" height="48" id="rarity" style="stroke: #A80036; stroke-width: 1.5;" width="64" x="775.5" y="223"/><ellipse cx="790.5" cy="239" fill="#ADD1B2" rx="11" ry="11" style="stroke: #A80036; stroke-width: 1.0;"/><path d="M794.6094,245 L786.8906,245 L786.8906,232.6094 L794.6094,232.6094 L794.6094,234.7656 L789.3438,234.7656 L789.3438,237.4375 L794.1094,237.4375 L794.1094,239.5938 L789.3438,239.5938 L789.3438,242.8438 L794.6094,242.8438 L794.6094,245 Z "/><text fill="#000000" font-family="sans-serif" font-size="12" lengthAdjust="spacingAndGlyphs" textLength="32" x="804.5" y="243.1543">rarity</text><line style="stroke: #A80036; stroke-width: 1.5;" x1="776.5" x2="838.5" y1="255" y2="255"/><line style="stroke: #A80036; stroke-width: 1.5;" x1="776.5" x2="838.5" y1="263" y2="263"/><!--MD5=[ed7f15a4b111841197208725b5fe3de6]
class resistence_lookup--><rect codeLine="13" fill="#FEFECE" filter="url(#fmwzz89w7p85q)" height="48" id="resistence_lookup" style="stroke: #A80036; stroke-width: 1.5;" width="146" x="104.5" y="115"/><ellipse cx="119.5" cy="131" fill="#ADD1B2" rx="11" ry="11" style="stroke: #A80036; stroke-width: 1.0;"/><path d="M123.6094,137 L115.8906,137 L115.8906,124.6094 L123.6094,124.6094 L123.6094,126.7656 L118.3438,126.7656 L118.3438,129.4375 L123.1094,129.4375 L123.1094,131.5938 L118.3438,131.5938 L118.3438,134.8438 L123.6094,134.8438 L123.6094,137 Z "/><text fill="#000000" font-family="sans-serif" font-size="12" lengthAdjust="spacingAndGlyphs" textLength="114" x="133.5" y="135.1543">resistence_lookup</text><line style="stroke: #A80036; stroke-width: 1.5;" x1="105.5" x2="249.5" y1="147" y2="147"/><line style="stroke: #A80036; stroke-width: 1.5;" x1="105.5" x2="249.5" y1="155" y2="155"/><!--MD5=[36b0e245bf430e2a9a71d9dcae4d8422]
class set--><rect codeLine="14" fill="#FEFECE" filter="url(#fmwzz89w7p85q)" height="48" id="set" style="stroke: #A80036; stroke-width: 1.5;" width="52" x="768.5" y="115"/><ellipse cx="783.5" cy="131" fill="#ADD1B2" rx="11" ry="11" style="stroke: #A80036; stroke-width: 1.0;"/><path d="M787.6094,137 L779.8906,137 L779.8906,124.6094 L787.6094,124.6094 L787.6094,126.7656 L782.3438,126.7656 L782.3438,129.4375 L787.1094,129.4375 L787.1094,131.5938 L782.3438,131.5938 L782.3438,134.8438 L787.6094,134.8438 L787.6094,137 Z "/><text fill="#000000" font-family="sans-serif" font-size="12" lengthAdjust="spacingAndGlyphs" textLength="20" x="797.5" y="135.1543">set</text><line style="stroke: #A80036; stroke-width: 1.5;" x1="769.5" x2="819.5" y1="147" y2="147"/><line style="stroke: #A80036; stroke-width: 1.5;" x1="769.5" x2="819.5" y1="155" y2="155"/><!--MD5=[68991cbac30cf6f756f433d5b0dd6e31]
class weakness_lookup--><rect codeLine="15" fill="#FEFECE" filter="url(#fmwzz89w7p85q)" height="48" id="weakness_lookup" style="stroke: #A80036; stroke-width: 1.5;" width="142" x="591.5" y="115"/><ellipse cx="606.5" cy="131" fill="#ADD1B2" rx="11" ry="11" style="stroke: #A80036; stroke-width: 1.0;"/><path d="M610.6094,137 L602.8906,137 L602.8906,124.6094 L610.6094,124.6094 L610.6094,126.7656 L605.3438,126.7656 L605.3438,129.4375 L610.1094,129.4375 L610.1094,131.5938 L605.3438,131.5938 L605.3438,134.8438 L610.6094,134.8438 L610.6094,137 Z "/><text fill="#000000" font-family="sans-serif" font-size="12" lengthAdjust="spacingAndGlyphs" textLength="110" x="620.5" y="135.1543">weakness_lookup</text><line style="stroke: #A80036; stroke-width: 1.5;" x1="592.5" x2="732.5" y1="147" y2="147"/><line style="stroke: #A80036; stroke-width: 1.5;" x1="592.5" x2="732.5" y1="155" y2="155"/><!--MD5=[7e7847dc75292d3c3292e1e3651921d2]
link pokemon_card to action--><path codeLine="17" d="M534.89,110.61 C551.73,100.42 572,90.17 592,85 C690.54,59.53 724.61,52.33 821,85 C835.91,90.05 850.14,99.66 861.86,109.39 " fill="none" id="pokemon_card-action" style="stroke: #A80036; stroke-width: 1.0; stroke-dasharray: 7.0,7.0;"/><line style="stroke: #A80036; stroke-width: 1.0;" x1="862.0441" x2="872.0206" y1="109.5525" y2="110.2381"/><line style="stroke: #A80036; stroke-width: 1.0;" x1="862.0441" x2="864.1794" y1="109.5525" y2="119.3219"/><line style="stroke: #A80036; stroke-width: 1.0;" x1="862.0441" x2="868.1" y1="109.5525" y2="114.78"/><line style="stroke: #A80036; stroke-width: 1.0;" x1="863.1439" x2="857.9164" y1="105.2177" y2="111.2736"/><line style="stroke: #A80036; stroke-width: 1.0;" x1="533.4003" x2="529.1693" y1="116.2393" y2="109.4497"/><line style="stroke: #A80036; stroke-width: 1.0;" x1="535.9464" x2="531.7154" y1="114.6527" y2="107.8631"/><line style="stroke: #A80036; stroke-width: 1.0;" x1="534.6796" x2="527.89" y1="110.729" y2="114.96"/><!--MD5=[4441aa4b972f4715ae38471f9a693f55]
link ancient_trait to pokemon_card--><path codeLine="18" d="M404.27,139 C411.32,139 418.37,139 425.42,139 " fill="none" id="ancient_trait-pokemon_card" style="stroke: #A80036; stroke-width: 1.0; stroke-dasharray: 7.0,7.0;"/><line style="stroke: #A80036; stroke-width: 1.0;" x1="428.47" x2="428.47" y1="135" y2="143"/><line style="stroke: #A80036; stroke-width: 1.0;" x1="425.47" x2="425.47" y1="135" y2="143"/><line style="stroke: #A80036; stroke-width: 1.0;" x1="424.47" x2="432.47" y1="139" y2="139"/><line style="stroke: #A80036; stroke-width: 1.0;" x1="401.08" x2="401.08" y1="143" y2="135"/><line style="stroke: #A80036; stroke-width: 1.0;" x1="404.08" x2="404.08" y1="143" y2="135"/><line style="stroke: #A80036; stroke-width: 1.0;" x1="405.08" x2="397.08" y1="139" y2="139"/><!--MD5=[df33ec3419b03cf1bee246b5f087dc51]
link artist to pokemon_card--><path codeLine="19" d="M570.9,60.13 C555.89,75.42 537.38,94.29 522.34,109.62 " fill="none" id="artist-pokemon_card" style="stroke: #A80036; stroke-width: 1.0; stroke-dasharray: 7.0,7.0;"/><line style="stroke: #A80036; stroke-width: 1.0;" x1="523.0366" x2="517.331" y1="114.631" y2="109.0234"/><line style="stroke: #A80036; stroke-width: 1.0;" x1="525.1395" x2="519.4338" y1="112.4913" y2="106.8837"/><line style="stroke: #A80036; stroke-width: 1.0;" x1="522.9876" x2="517.38" y1="108.9743" y2="114.68"/><line style="stroke: #A80036; stroke-width: 1.0;" x1="570.2734" x2="575.9871" y1="55.0571" y2="60.6566"/><line style="stroke: #A80036; stroke-width: 1.0;" x1="568.1736" x2="573.8874" y1="57.1998" y2="62.7992"/><line style="stroke: #A80036; stroke-width: 1.0;" x1="570.3306" x2="575.93" y1="60.7137" y2="55"/><!--MD5=[06cba2ae2bb44617e1d36b1cc0ba0f98]
link attack to pokemon_card--><path codeLine="20" d="M494.5,63.26 C494.5,76.89 494.5,92.85 494.5,106.51 " fill="none" id="attack-pokemon_card" style="stroke: #A80036; stroke-width: 1.0; stroke-dasharray: 7.0,7.0;"/><line style="stroke: #A80036; stroke-width: 1.0;" x1="498.5" x2="490.5" y1="110.68" y2="110.68"/><line style="stroke: #A80036; stroke-width: 1.0;" x1="498.5" x2="490.5" y1="107.68" y2="107.68"/><line style="stroke: #A80036; stroke-width: 1.0;" x1="494.5" x2="494.5" y1="106.68" y2="114.68"/><line style="stroke: #A80036; stroke-width: 1.0;" x1="494.5" x2="488.5" y1="63" y2="55"/><line style="stroke: #A80036; stroke-width: 1.0;" x1="494.5" x2="500.5" y1="63" y2="55"/><line style="stroke: #A80036; stroke-width: 1.0;" x1="494.5" x2="494.5" y1="63" y2="55"/><line style="stroke: #A80036; stroke-width: 1.0;" x1="490.5" x2="498.5" y1="65" y2="65"/><!--MD5=[c752fc6315e50b12ab3cec5111921c93]
link pokemon_card to extended_attributes_special_pokemon--><path codeLine="21" d="M425.43,160.86 C368.46,178.06 287.44,202.53 226.86,220.83 " fill="none" id="pokemon_card-extended_attributes_special_pokemon" style="stroke: #A80036; stroke-width: 1.0; stroke-dasharray: 7.0,7.0;"/><line style="stroke: #A80036; stroke-width: 1.0;" x1="224.9375" x2="222.6192" y1="225.5792" y2="217.9225"/><line style="stroke: #A80036; stroke-width: 1.0;" x1="227.8088" x2="225.4905" y1="224.7099" y2="217.0532"/><line style="stroke: #A80036; stroke-width: 1.0;" x1="227.6067" x2="219.95" y1="220.5918" y2="222.91"/><line style="stroke: #A80036; stroke-width: 1.0;" x1="427.1625" x2="429.4808" y1="156.1608" y2="163.8175"/><line style="stroke: #A80036; stroke-width: 1.0;" x1="424.2912" x2="426.6095" y1="157.0301" y2="164.6868"/><line style="stroke: #A80036; stroke-width: 1.0;" x1="424.4933" x2="432.15" y1="161.1482" y2="158.83"/><!--MD5=[41e8bf28827a0a1fc91b420dd5555f9c]
link extended_attributes_special_pokemon_type to pokemon_card--><path codeLine="22" d="M325.83,58.18 C360.39,74.54 404.73,95.52 439.27,111.87 " fill="none" id="extended_attributes_special_pokemon_type-pokemon_card" style="stroke: #A80036; stroke-width: 1.0; stroke-dasharray: 7.0,7.0;"/><line style="stroke: #A80036; stroke-width: 1.0;" x1="443.6891" x2="440.2757" y1="109.5357" y2="116.7709"/><line style="stroke: #A80036; stroke-width: 1.0;" x1="440.9759" x2="437.5625" y1="108.2556" y2="115.4908"/><line style="stroke: #A80036; stroke-width: 1.0;" x1="438.3648" x2="445.6" y1="111.4465" y2="114.86"/><line style="stroke: #A80036; stroke-width: 1.0;" x1="321.0011" x2="324.4279" y1="60.3279" y2="53.0989"/><line style="stroke: #A80036; stroke-width: 1.0;" x1="323.7119" x2="327.1387" y1="61.6129" y2="54.384"/><line style="stroke: #A80036; stroke-width: 1.0;" x1="326.3289" x2="319.1" y1="58.4268" y2="55"/><!--MD5=[0b8e00b439ab816472bb1bcdb71a5369]
link pokemon_card to pokedex--><path codeLine="23" d="M458.43,167.91 C438.62,183.24 414.11,202.2 394.2,217.6 " fill="none" id="pokemon_card-pokedex" style="stroke: #A80036; stroke-width: 1.0; stroke-dasharray: 7.0,7.0;"/><line style="stroke: #A80036; stroke-width: 1.0;" x1="393.9725" x2="391.3065" y1="217.7913" y2="227.4294"/><line style="stroke: #A80036; stroke-width: 1.0;" x1="393.9725" x2="383.9735" y1="217.7913" y2="217.9306"/><line style="stroke: #A80036; stroke-width: 1.0;" x1="393.9725" x2="387.64" y1="217.7913" y2="222.68"/><line style="stroke: #A80036; stroke-width: 1.0;" x1="398" x2="393.1112" y1="219.7353" y2="213.4028"/><line style="stroke: #A80036; stroke-width: 1.0;" x1="459.1584" x2="464.0561" y1="162.2861" y2="168.6116"/><line style="stroke: #A80036; stroke-width: 1.0;" x1="456.7863" x2="461.684" y1="164.1227" y2="170.4482"/><line style="stroke: #A80036; stroke-width: 1.0;" x1="458.4444" x2="464.77" y1="167.8977" y2="163"/><!--MD5=[bcdb627505f77fefabd79a72fc49efad]
link pokemon_card to pokedex_type--><path codeLine="24" d="M494.5,171.26 C494.5,184.89 494.5,200.85 494.5,214.51 " fill="none" id="pokemon_card-pokedex_type" style="stroke: #A80036; stroke-width: 1.0; stroke-dasharray: 7.0,7.0;"/><line style="stroke: #A80036; stroke-width: 1.0;" x1="494.5" x2="500.5" y1="214.68" y2="222.68"/><line style="stroke: #A80036; stroke-width: 1.0;" x1="494.5" x2="488.5" y1="214.68" y2="222.68"/><line style="stroke: #A80036; stroke-width: 1.0;" x1="494.5" x2="494.5" y1="214.68" y2="222.68"/><line style="stroke: #A80036; stroke-width: 1.0;" x1="498.5" x2="490.5" y1="212.68" y2="212.68"/><line style="stroke: #A80036; stroke-width: 1.0;" x1="490.5" x2="498.5" y1="167" y2="167"/><line style="stroke: #A80036; stroke-width: 1.0;" x1="490.5" x2="498.5" y1="170" y2="170"/><line style="stroke: #A80036; stroke-width: 1.0;" x1="494.5" x2="494.5" y1="171" y2="163"/><!--MD5=[cc2ba19013cbd87bce094f0a4925c173]
link pokemon_card to pokemon_category--><path codeLine="25" d="M537.53,166.83 C563.2,182.83 595.67,203.08 621.35,219.1 " fill="none" id="pokemon_card-pokemon_category" style="stroke: #A80036; stroke-width: 1.0; stroke-dasharray: 7.0,7.0;"/><line style="stroke: #A80036; stroke-width: 1.0;" x1="626.1085" x2="621.8802" y1="217.3502" y2="224.1415"/><line style="stroke: #A80036; stroke-width: 1.0;" x1="623.5617" x2="619.3335" y1="215.7646" y2="222.5559"/><line style="stroke: #A80036; stroke-width: 1.0;" x1="620.5987" x2="627.39" y1="218.6318" y2="222.86"/><line style="stroke: #A80036; stroke-width: 1.0;" x1="532.6656" x2="536.9012" y1="168.5112" y2="161.7244"/><line style="stroke: #A80036; stroke-width: 1.0;" x1="535.2106" x2="539.4462" y1="170.0995" y2="163.3128"/><line style="stroke: #A80036; stroke-width: 1.0;" x1="538.1767" x2="531.39" y1="167.2356" y2="163"/><!--MD5=[2351c9e03ddb8d4f172810d0e4e523a2]
link pokemon_card to rarity--><path codeLine="26" d="M563.62,160.74 C628.9,180.52 721.95,209.27 757.5,223 C761.27,224.45 765.16,226.06 769.02,227.72 " fill="none" id="pokemon_card-rarity" style="stroke: #A80036; stroke-width: 1.0; stroke-dasharray: 7.0,7.0;"/><line style="stroke: #A80036; stroke-width: 1.0;" x1="773.4242" x2="770.2099" y1="225.2799" y2="232.6058"/><line style="stroke: #A80036; stroke-width: 1.0;" x1="770.677" x2="767.4627" y1="224.0746" y2="231.4005"/><line style="stroke: #A80036; stroke-width: 1.0;" x1="768.1541" x2="775.48" y1="227.3357" y2="230.55"/><line style="stroke: #A80036; stroke-width: 1.0;" x1="559.2692" x2="561.5875" y1="163.5975" y2="155.9408"/><line style="stroke: #A80036; stroke-width: 1.0;" x1="562.1405" x2="564.4588" y1="164.4668" y2="156.8101"/><line style="stroke: #A80036; stroke-width: 1.0;" x1="564.2567" x2="556.6" y1="160.9282" y2="158.61"/><!--MD5=[aa555519e4250e199da012f5153722e4]
link resistence_lookup to pokemon_card--><path codeLine="27" d="M222.09,110.99 C241.04,100.66 263.84,90.21 286,85 C334.02,73.71 349.24,72.66 397,85 C417,90.17 437.27,100.42 454.11,110.61 " fill="none" id="resistence_lookup-pokemon_card" style="stroke: #A80036; stroke-width: 1.0; stroke-dasharray: 7.0,7.0;"/><line style="stroke: #A80036; stroke-width: 1.0;" x1="459.8307" x2="455.5997" y1="109.4497" y2="116.2393"/><line style="stroke: #A80036; stroke-width: 1.0;" x1="457.2846" x2="453.0536" y1="107.8631" y2="114.6527"/><line style="stroke: #A80036; stroke-width: 1.0;" x1="454.3204" x2="461.11" y1="110.729" y2="114.96"/><line style="stroke: #A80036; stroke-width: 1.0;" x1="222.0052" x2="217.9448" y1="111.0303" y2="120.1689"/><line style="stroke: #A80036; stroke-width: 1.0;" x1="222.0052" x2="212.0952" y1="111.0303" y2="109.6911"/><line style="stroke: #A80036; stroke-width: 1.0;" x1="222.0052" x2="215.02" y1="111.0303" y2="114.93"/><line style="stroke: #A80036; stroke-width: 1.0;" x1="225.7013" x2="221.8016" y1="113.548" y2="106.5628"/><!--MD5=[dde5dce0400fa17255421787c78a0130]
link pokemon_card to set--><path codeLine="28" d="M533.99,111.15 C551,100.78 571.64,90.26 592,85 C653.1,69.21 675.03,62.51 734,85 C747.55,90.17 760,99.93 770.03,109.74 " fill="none" id="pokemon_card-set" style="stroke: #A80036; stroke-width: 1.0; stroke-dasharray: 7.0,7.0;"/><line style="stroke: #A80036; stroke-width: 1.0;" x1="775.099" x2="769.3934" y1="109.1934" y2="114.801"/><line style="stroke: #A80036; stroke-width: 1.0;" x1="772.9962" x2="767.2905" y1="107.0537" y2="112.6613"/><line style="stroke: #A80036; stroke-width: 1.0;" x1="769.4424" x2="775.05" y1="109.1443" y2="114.85"/><line style="stroke: #A80036; stroke-width: 1.0;" x1="533.3998" x2="529.1715" y1="116.2415" y2="109.4502"/><line style="stroke: #A80036; stroke-width: 1.0;" x1="535.9465" x2="531.7183" y1="114.6559" y2="107.8646"/><line style="stroke: #A80036; stroke-width: 1.0;" x1="534.6813" x2="527.89" y1="110.7318" y2="114.96"/><!--MD5=[584e7e28fe4cca9035d2262f60b1bcc3]
link pokemon_card to weakness_lookup--><path codeLine="29" d="M564.67,139 C570.77,139 576.87,139 582.97,139 " fill="none" id="pokemon_card-weakness_lookup" style="stroke: #A80036; stroke-width: 1.0; stroke-dasharray: 7.0,7.0;"/><line style="stroke: #A80036; stroke-width: 1.0;" x1="583.29" x2="591.29" y1="139" y2="133"/><line style="stroke: #A80036; stroke-width: 1.0;" x1="583.29" x2="591.29" y1="139" y2="145"/><line style="stroke: #A80036; stroke-width: 1.0;" x1="583.29" x2="591.29" y1="139" y2="139"/><line style="stroke: #A80036; stroke-width: 1.0;" x1="581.29" x2="581.29" y1="135" y2="143"/><line style="stroke: #A80036; stroke-width: 1.0;" x1="560.52" x2="560.52" y1="143" y2="135"/><line style="stroke: #A80036; stroke-width: 1.0;" x1="563.52" x2="563.52" y1="143" y2="135"/><line style="stroke: #A80036; stroke-width: 1.0;" x1="564.52" x2="556.52" y1="139" y2="139"/><!--MD5=[4ae857ea37d6de693969546831266533]
@startuml pokemon-card-relationships

entity "action" as action {}
entity "ancient_trait" as ancient_trait {}
entity "artist" as artist {}
entity "attack" as attack {}
entity "extended_attributes_special_pokemon" as extended_attributes_special_pokemon {}
entity "extended_attributes_special_pokemon_type" as extended_attributes_special_pokemon_type {}
entity "pokedex" as pokedex {}
entity "pokedex_type" as pokedex_type {}
entity "pokemon_card" as pokemon_card {}
entity "pokemon_category" as pokemon_category {}
entity "rarity" as rarity {}
entity "resistence_lookup" as resistence_lookup {}
entity "set" as set {}
entity "weakness_lookup" as weakness_lookup {}

pokemon_card ||..right|{ action
pokemon_card ||..left|| ancient_trait
pokemon_card ||..up|| artist
pokemon_card ||..up|{ attack
pokemon_card ||..|| extended_attributes_special_pokemon
pokemon_card ||..up|| extended_attributes_special_pokemon_type
pokemon_card ||..|{ pokedex
pokemon_card ||..down|{ pokedex_type
pokemon_card ||..down|| pokemon_category
pokemon_card ||..down|| rarity
pokemon_card ||..left|{ resistence_lookup
pokemon_card ||..right|| set
pokemon_card ||..right|{ weakness_lookup

@enduml

PlantUML version 1.2020.18(Wed Sep 30 20:40:44 BST 2020)
(GPL source distribution)
Java Runtime: OpenJDK Runtime Environment
JVM: OpenJDK 64-Bit Server VM
Default Encoding: UTF-8
Language: en
Country: GB
--></g></svg>