<?xml version="1.0" encoding="UTF-8" standalone="no"?><svg xmlns="http://www.w3.org/2000/svg" xmlns:xlink="http://www.w3.org/1999/xlink" contentScriptType="application/ecmascript" contentStyleType="text/css" height="285px" preserveAspectRatio="none" style="width:1101px;height:285px;" version="1.1" viewBox="0 0 1101 285" width="1101px" zoomAndPan="magnify"><defs><filter height="300%" id="focoyhp08pveo" width="300%" x="-1" y="-1"><feGaussianBlur result="blurOut" stdDeviation="2.0"/><feColorMatrix in="blurOut" result="blurOut2" type="matrix" values="0 0 0 0 0 0 0 0 0 0 0 0 0 0 0 0 0 0 .4 0"/><feOffset dx="4.0" dy="4.0" in="blurOut2" result="blurOut3"/><feBlend in="SourceGraphic" in2="blurOut3" mode="normal"/></filter></defs><g><!--MD5=[1b0c078f5d796f81d685886800b19f1a]
class action--><rect codeLine="2" fill="#FEFECE" filter="url(#focoyhp08pveo)" height="48" id="action" style="stroke:#A80036;stroke-width:1.5;" width="71" x="1016" y="115"/><ellipse cx="1031" cy="131" fill="#ADD1B2" rx="11" ry="11" style="stroke:#A80036;stroke-width:1.0;"/><path d="M1035.1094,137 L1027.3906,137 L1027.3906,124.6094 L1035.1094,124.6094 L1035.1094,126.7656 L1029.8438,126.7656 L1029.8438,129.4375 L1034.6094,129.4375 L1034.6094,131.5938 L1029.8438,131.5938 L1029.8438,134.8438 L1035.1094,134.8438 L1035.1094,137 Z " fill="#000000"/><text fill="#000000" font-family="sans-serif" font-size="12" lengthAdjust="spacingAndGlyphs" textLength="39" x="1045" y="135.1543">action</text><line style="stroke:#A80036;stroke-width:1.5;" x1="1017" x2="1086" y1="147" y2="147"/><line style="stroke:#A80036;stroke-width:1.5;" x1="1017" x2="1086" y1="155" y2="155"/><!--MD5=[6cad3fb7a93e976c399e165c1664ab7c]
class ancient_trait--><rect codeLine="3" fill="#FEFECE" filter="url(#focoyhp08pveo)" height="48" id="ancient_trait" style="stroke:#A80036;stroke-width:1.5;" width="111" x="446" y="115"/><ellipse cx="461" cy="131" fill="#ADD1B2" rx="11" ry="11" style="stroke:#A80036;stroke-width:1.0;"/><path d="M465.1094,137 L457.3906,137 L457.3906,124.6094 L465.1094,124.6094 L465.1094,126.7656 L459.8438,126.7656 L459.8438,129.4375 L464.6094,129.4375 L464.6094,131.5938 L459.8438,131.5938 L459.8438,134.8438 L465.1094,134.8438 L465.1094,137 Z " fill="#000000"/><text fill="#000000" font-family="sans-serif" font-size="12" lengthAdjust="spacingAndGlyphs" textLength="79" x="475" y="135.1543">ancient_trait</text><line style="stroke:#A80036;stroke-width:1.5;" x1="447" x2="556" y1="147" y2="147"/><line style="stroke:#A80036;stroke-width:1.5;" x1="447" x2="556" y1="155" y2="155"/><!--MD5=[e496c8ccb40abcb9b4f840cac8f8d9f4]
class artist--><rect codeLine="4" fill="#FEFECE" filter="url(#focoyhp08pveo)" height="48" id="artist" style="stroke:#A80036;stroke-width:1.5;" width="65" x="726" y="7"/><ellipse cx="741" cy="23" fill="#ADD1B2" rx="11" ry="11" style="stroke:#A80036;stroke-width:1.0;"/><path d="M745.1094,29 L737.3906,29 L737.3906,16.6094 L745.1094,16.6094 L745.1094,18.7656 L739.8438,18.7656 L739.8438,21.4375 L744.6094,21.4375 L744.6094,23.5938 L739.8438,23.5938 L739.8438,26.8438 L745.1094,26.8438 L745.1094,29 Z " fill="#000000"/><text fill="#000000" font-family="sans-serif" font-size="12" lengthAdjust="spacingAndGlyphs" textLength="33" x="755" y="27.1543">artist</text><line style="stroke:#A80036;stroke-width:1.5;" x1="727" x2="790" y1="39" y2="39"/><line style="stroke:#A80036;stroke-width:1.5;" x1="727" x2="790" y1="47" y2="47"/><!--MD5=[73f50bc9beaa78259082f568f5749b58]
class attack--><rect codeLine="5" fill="#FEFECE" filter="url(#focoyhp08pveo)" height="48" id="attack" style="stroke:#A80036;stroke-width:1.5;" width="72" x="618.5" y="7"/><ellipse cx="633.5" cy="23" fill="#ADD1B2" rx="11" ry="11" style="stroke:#A80036;stroke-width:1.0;"/><path d="M637.6094,29 L629.8906,29 L629.8906,16.6094 L637.6094,16.6094 L637.6094,18.7656 L632.3438,18.7656 L632.3438,21.4375 L637.1094,21.4375 L637.1094,23.5938 L632.3438,23.5938 L632.3438,26.8438 L637.6094,26.8438 L637.6094,29 Z " fill="#000000"/><text fill="#000000" font-family="sans-serif" font-size="12" lengthAdjust="spacingAndGlyphs" textLength="40" x="647.5" y="27.1543">attack</text><line style="stroke:#A80036;stroke-width:1.5;" x1="619.5" x2="689.5" y1="39" y2="39"/><line style="stroke:#A80036;stroke-width:1.5;" x1="619.5" x2="689.5" y1="47" y2="47"/><!--MD5=[36fef931eaaaa86bf05843aa429d17ea]
class extended_attributes_core--><rect codeLine="6" fill="#FEFECE" filter="url(#focoyhp08pveo)" height="48" id="extended_attributes_core" style="stroke:#A80036;stroke-width:1.5;" width="193" x="7" y="223"/><ellipse cx="22" cy="239" fill="#ADD1B2" rx="11" ry="11" style="stroke:#A80036;stroke-width:1.0;"/><path d="M26.1094,245 L18.3906,245 L18.3906,232.6094 L26.1094,232.6094 L26.1094,234.7656 L20.8438,234.7656 L20.8438,237.4375 L25.6094,237.4375 L25.6094,239.5938 L20.8438,239.5938 L20.8438,242.8438 L26.1094,242.8438 L26.1094,245 Z " fill="#000000"/><text fill="#000000" font-family="sans-serif" font-size="12" lengthAdjust="spacingAndGlyphs" textLength="161" x="36" y="243.1543">extended_attributes_core</text><line style="stroke:#A80036;stroke-width:1.5;" x1="8" x2="199" y1="255" y2="255"/><line style="stroke:#A80036;stroke-width:1.5;" x1="8" x2="199" y1="263" y2="263"/><!--MD5=[4a819daee672845cad70c7a48311cd4a]
class extended_attributes_special_pokemon--><rect codeLine="7" fill="#FEFECE" filter="url(#focoyhp08pveo)" height="48" id="extended_attributes_special_pokemon" style="stroke:#A80036;stroke-width:1.5;" width="273" x="235" y="223"/><ellipse cx="250" cy="239" fill="#ADD1B2" rx="11" ry="11" style="stroke:#A80036;stroke-width:1.0;"/><path d="M254.1094,245 L246.3906,245 L246.3906,232.6094 L254.1094,232.6094 L254.1094,234.7656 L248.8438,234.7656 L248.8438,237.4375 L253.6094,237.4375 L253.6094,239.5938 L248.8438,239.5938 L248.8438,242.8438 L254.1094,242.8438 L254.1094,245 Z " fill="#000000"/><text fill="#000000" font-family="sans-serif" font-size="12" lengthAdjust="spacingAndGlyphs" textLength="241" x="264" y="243.1543">extended_attributes_special_pokemon</text><line style="stroke:#A80036;stroke-width:1.5;" x1="236" x2="507" y1="255" y2="255"/><line style="stroke:#A80036;stroke-width:1.5;" x1="236" x2="507" y1="263" y2="263"/><!--MD5=[de3056f63fe13fdcdcfe459f38f4258e]
class extended_attributes_special_pokemon_type_lookup--><rect codeLine="8" fill="#FEFECE" filter="url(#focoyhp08pveo)" height="48" id="extended_attributes_special_pokemon_type_lookup" style="stroke:#A80036;stroke-width:1.5;" width="354" x="229.5" y="7"/><ellipse cx="244.5" cy="23" fill="#ADD1B2" rx="11" ry="11" style="stroke:#A80036;stroke-width:1.0;"/><path d="M248.6094,29 L240.8906,29 L240.8906,16.6094 L248.6094,16.6094 L248.6094,18.7656 L243.3438,18.7656 L243.3438,21.4375 L248.1094,21.4375 L248.1094,23.5938 L243.3438,23.5938 L243.3438,26.8438 L248.6094,26.8438 L248.6094,29 Z " fill="#000000"/><text fill="#000000" font-family="sans-serif" font-size="12" lengthAdjust="spacingAndGlyphs" textLength="322" x="258.5" y="27.1543">extended_attributes_special_pokemon_type_lookup</text><line style="stroke:#A80036;stroke-width:1.5;" x1="230.5" x2="582.5" y1="39" y2="39"/><line style="stroke:#A80036;stroke-width:1.5;" x1="230.5" x2="582.5" y1="47" y2="47"/><!--MD5=[76e32666241faaf3e6f4c654f890592d]
class pokedex--><rect codeLine="9" fill="#FEFECE" filter="url(#focoyhp08pveo)" height="48" id="pokedex" style="stroke:#A80036;stroke-width:1.5;" width="85" x="543" y="223"/><ellipse cx="558" cy="239" fill="#ADD1B2" rx="11" ry="11" style="stroke:#A80036;stroke-width:1.0;"/><path d="M562.1094,245 L554.3906,245 L554.3906,232.6094 L562.1094,232.6094 L562.1094,234.7656 L556.8438,234.7656 L556.8438,237.4375 L561.6094,237.4375 L561.6094,239.5938 L556.8438,239.5938 L556.8438,242.8438 L562.1094,242.8438 L562.1094,245 Z " fill="#000000"/><text fill="#000000" font-family="sans-serif" font-size="12" lengthAdjust="spacingAndGlyphs" textLength="53" x="572" y="243.1543">pokedex</text><line style="stroke:#A80036;stroke-width:1.5;" x1="544" x2="627" y1="255" y2="255"/><line style="stroke:#A80036;stroke-width:1.5;" x1="544" x2="627" y1="263" y2="263"/><!--MD5=[328ff794b810b5b74b7b71c9f2c25ed6]
class pokedex_type--><rect codeLine="10" fill="#FEFECE" filter="url(#focoyhp08pveo)" height="48" id="pokedex_type" style="stroke:#A80036;stroke-width:1.5;" width="118" x="663.5" y="223"/><ellipse cx="678.5" cy="239" fill="#ADD1B2" rx="11" ry="11" style="stroke:#A80036;stroke-width:1.0;"/><path d="M682.6094,245 L674.8906,245 L674.8906,232.6094 L682.6094,232.6094 L682.6094,234.7656 L677.3438,234.7656 L677.3438,237.4375 L682.1094,237.4375 L682.1094,239.5938 L677.3438,239.5938 L677.3438,242.8438 L682.6094,242.8438 L682.6094,245 Z " fill="#000000"/><text fill="#000000" font-family="sans-serif" font-size="12" lengthAdjust="spacingAndGlyphs" textLength="86" x="692.5" y="243.1543">pokedex_type</text><line style="stroke:#A80036;stroke-width:1.5;" x1="664.5" x2="780.5" y1="255" y2="255"/><line style="stroke:#A80036;stroke-width:1.5;" x1="664.5" x2="780.5" y1="263" y2="263"/><!--MD5=[4f316d913b233257f8e2dafc37d3a192]
class pokemon_card--><rect codeLine="11" fill="#FEFECE" filter="url(#focoyhp08pveo)" height="48" id="pokemon_card" style="stroke:#A80036;stroke-width:1.5;" width="124" x="592.5" y="115"/><ellipse cx="607.5" cy="131" fill="#ADD1B2" rx="11" ry="11" style="stroke:#A80036;stroke-width:1.0;"/><path d="M611.6094,137 L603.8906,137 L603.8906,124.6094 L611.6094,124.6094 L611.6094,126.7656 L606.3438,126.7656 L606.3438,129.4375 L611.1094,129.4375 L611.1094,131.5938 L606.3438,131.5938 L606.3438,134.8438 L611.6094,134.8438 L611.6094,137 Z " fill="#000000"/><text fill="#000000" font-family="sans-serif" font-size="12" lengthAdjust="spacingAndGlyphs" textLength="92" x="621.5" y="135.1543">pokemon_card</text><line style="stroke:#A80036;stroke-width:1.5;" x1="593.5" x2="715.5" y1="147" y2="147"/><line style="stroke:#A80036;stroke-width:1.5;" x1="593.5" x2="715.5" y1="155" y2="155"/><!--MD5=[eab564ffd3d1077ea51665aeb0cba3aa]
class pokemon_category--><rect codeLine="12" fill="#FEFECE" filter="url(#focoyhp08pveo)" height="48" id="pokemon_category" style="stroke:#A80036;stroke-width:1.5;" width="151" x="817" y="223"/><ellipse cx="832" cy="239" fill="#ADD1B2" rx="11" ry="11" style="stroke:#A80036;stroke-width:1.0;"/><path d="M836.1094,245 L828.3906,245 L828.3906,232.6094 L836.1094,232.6094 L836.1094,234.7656 L830.8438,234.7656 L830.8438,237.4375 L835.6094,237.4375 L835.6094,239.5938 L830.8438,239.5938 L830.8438,242.8438 L836.1094,242.8438 L836.1094,245 Z " fill="#000000"/><text fill="#000000" font-family="sans-serif" font-size="12" lengthAdjust="spacingAndGlyphs" textLength="119" x="846" y="243.1543">pokemon_category</text><line style="stroke:#A80036;stroke-width:1.5;" x1="818" x2="967" y1="255" y2="255"/><line style="stroke:#A80036;stroke-width:1.5;" x1="818" x2="967" y1="263" y2="263"/><!--MD5=[0226e7a91aa78cb2dba1b9ba67fa7cec]
class rarity--><rect codeLine="13" fill="#FEFECE" filter="url(#focoyhp08pveo)" height="48" id="rarity" style="stroke:#A80036;stroke-width:1.5;" width="64" x="1003.5" y="223"/><ellipse cx="1018.5" cy="239" fill="#ADD1B2" rx="11" ry="11" style="stroke:#A80036;stroke-width:1.0;"/><path d="M1022.6094,245 L1014.8906,245 L1014.8906,232.6094 L1022.6094,232.6094 L1022.6094,234.7656 L1017.3438,234.7656 L1017.3438,237.4375 L1022.1094,237.4375 L1022.1094,239.5938 L1017.3438,239.5938 L1017.3438,242.8438 L1022.6094,242.8438 L1022.6094,245 Z " fill="#000000"/><text fill="#000000" font-family="sans-serif" font-size="12" lengthAdjust="spacingAndGlyphs" textLength="32" x="1032.5" y="243.1543">rarity</text><line style="stroke:#A80036;stroke-width:1.5;" x1="1004.5" x2="1066.5" y1="255" y2="255"/><line style="stroke:#A80036;stroke-width:1.5;" x1="1004.5" x2="1066.5" y1="263" y2="263"/><!--MD5=[ed7f15a4b111841197208725b5fe3de6]
class resistence_lookup--><rect codeLine="14" fill="#FEFECE" filter="url(#focoyhp08pveo)" height="48" id="resistence_lookup" style="stroke:#A80036;stroke-width:1.5;" width="146" x="264.5" y="115"/><ellipse cx="279.5" cy="131" fill="#ADD1B2" rx="11" ry="11" style="stroke:#A80036;stroke-width:1.0;"/><path d="M283.6094,137 L275.8906,137 L275.8906,124.6094 L283.6094,124.6094 L283.6094,126.7656 L278.3438,126.7656 L278.3438,129.4375 L283.1094,129.4375 L283.1094,131.5938 L278.3438,131.5938 L278.3438,134.8438 L283.6094,134.8438 L283.6094,137 Z " fill="#000000"/><text fill="#000000" font-family="sans-serif" font-size="12" lengthAdjust="spacingAndGlyphs" textLength="114" x="293.5" y="135.1543">resistence_lookup</text><line style="stroke:#A80036;stroke-width:1.5;" x1="265.5" x2="409.5" y1="147" y2="147"/><line style="stroke:#A80036;stroke-width:1.5;" x1="265.5" x2="409.5" y1="155" y2="155"/><!--MD5=[36b0e245bf430e2a9a71d9dcae4d8422]
class set--><rect codeLine="15" fill="#FEFECE" filter="url(#focoyhp08pveo)" height="48" id="set" style="stroke:#A80036;stroke-width:1.5;" width="52" x="928.5" y="115"/><ellipse cx="943.5" cy="131" fill="#ADD1B2" rx="11" ry="11" style="stroke:#A80036;stroke-width:1.0;"/><path d="M947.6094,137 L939.8906,137 L939.8906,124.6094 L947.6094,124.6094 L947.6094,126.7656 L942.3438,126.7656 L942.3438,129.4375 L947.1094,129.4375 L947.1094,131.5938 L942.3438,131.5938 L942.3438,134.8438 L947.6094,134.8438 L947.6094,137 Z " fill="#000000"/><text fill="#000000" font-family="sans-serif" font-size="12" lengthAdjust="spacingAndGlyphs" textLength="20" x="957.5" y="135.1543">set</text><line style="stroke:#A80036;stroke-width:1.5;" x1="929.5" x2="979.5" y1="147" y2="147"/><line style="stroke:#A80036;stroke-width:1.5;" x1="929.5" x2="979.5" y1="155" y2="155"/><!--MD5=[68991cbac30cf6f756f433d5b0dd6e31]
class weakness_lookup--><rect codeLine="16" fill="#FEFECE" filter="url(#focoyhp08pveo)" height="48" id="weakness_lookup" style="stroke:#A80036;stroke-width:1.5;" width="142" x="751.5" y="115"/><ellipse cx="766.5" cy="131" fill="#ADD1B2" rx="11" ry="11" style="stroke:#A80036;stroke-width:1.0;"/><path d="M770.6094,137 L762.8906,137 L762.8906,124.6094 L770.6094,124.6094 L770.6094,126.7656 L765.3438,126.7656 L765.3438,129.4375 L770.1094,129.4375 L770.1094,131.5938 L765.3438,131.5938 L765.3438,134.8438 L770.6094,134.8438 L770.6094,137 Z " fill="#000000"/><text fill="#000000" font-family="sans-serif" font-size="12" lengthAdjust="spacingAndGlyphs" textLength="110" x="780.5" y="135.1543">weakness_lookup</text><line style="stroke:#A80036;stroke-width:1.5;" x1="752.5" x2="892.5" y1="147" y2="147"/><line style="stroke:#A80036;stroke-width:1.5;" x1="752.5" x2="892.5" y1="155" y2="155"/><!--MD5=[7e7847dc75292d3c3292e1e3651921d2]
link pokemon_card to action--><path codeLine="18" d="M694.89,110.61 C711.73,100.42 732,90.17 752,85 C850.54,59.53 884.61,52.33 981,85 C995.91,90.05 1010.14,99.66 1021.86,109.39 " fill="none" id="pokemon_card-action" style="stroke:#A80036;stroke-width:1.0;stroke-dasharray:7.0,7.0;"/><line style="stroke:#A80036;stroke-width:1.0;" x1="1022.0441" x2="1032.0206" y1="109.5525" y2="110.2381"/><line style="stroke:#A80036;stroke-width:1.0;" x1="1022.0441" x2="1024.1794" y1="109.5525" y2="119.3219"/><line style="stroke:#A80036;stroke-width:1.0;" x1="1022.0441" x2="1028.1" y1="109.5525" y2="114.78"/><line style="stroke:#A80036;stroke-width:1.0;" x1="1023.1439" x2="1017.9164" y1="105.2177" y2="111.2736"/><line style="stroke:#A80036;stroke-width:1.0;" x1="693.4003" x2="689.1693" y1="116.2393" y2="109.4497"/><line style="stroke:#A80036;stroke-width:1.0;" x1="695.9464" x2="691.7154" y1="114.6527" y2="107.8631"/><line style="stroke:#A80036;stroke-width:1.0;" x1="694.6796" x2="687.89" y1="110.729" y2="114.96"/><!--MD5=[4441aa4b972f4715ae38471f9a693f55]
link ancient_trait to pokemon_card--><path codeLine="19" d="M564.27,139 C571.32,139 578.37,139 585.42,139 " fill="none" id="ancient_trait-pokemon_card" style="stroke:#A80036;stroke-width:1.0;stroke-dasharray:7.0,7.0;"/><line style="stroke:#A80036;stroke-width:1.0;" x1="588.47" x2="588.47" y1="135" y2="143"/><line style="stroke:#A80036;stroke-width:1.0;" x1="585.47" x2="585.47" y1="135" y2="143"/><line style="stroke:#A80036;stroke-width:1.0;" x1="584.47" x2="592.47" y1="139" y2="139"/><line style="stroke:#A80036;stroke-width:1.0;" x1="561.08" x2="561.08" y1="143" y2="135"/><line style="stroke:#A80036;stroke-width:1.0;" x1="564.08" x2="564.08" y1="143" y2="135"/><line style="stroke:#A80036;stroke-width:1.0;" x1="565.08" x2="557.08" y1="139" y2="139"/><!--MD5=[df33ec3419b03cf1bee246b5f087dc51]
link artist to pokemon_card--><path codeLine="20" d="M730.9,60.13 C715.89,75.42 697.38,94.29 682.34,109.62 " fill="none" id="artist-pokemon_card" style="stroke:#A80036;stroke-width:1.0;stroke-dasharray:7.0,7.0;"/><line style="stroke:#A80036;stroke-width:1.0;" x1="683.0366" x2="677.331" y1="114.631" y2="109.0234"/><line style="stroke:#A80036;stroke-width:1.0;" x1="685.1395" x2="679.4338" y1="112.4913" y2="106.8837"/><line style="stroke:#A80036;stroke-width:1.0;" x1="682.9876" x2="677.38" y1="108.9743" y2="114.68"/><line style="stroke:#A80036;stroke-width:1.0;" x1="730.2734" x2="735.9871" y1="55.0571" y2="60.6566"/><line style="stroke:#A80036;stroke-width:1.0;" x1="728.1736" x2="733.8874" y1="57.1998" y2="62.7992"/><line style="stroke:#A80036;stroke-width:1.0;" x1="730.3306" x2="735.93" y1="60.7137" y2="55"/><!--MD5=[06cba2ae2bb44617e1d36b1cc0ba0f98]
link attack to pokemon_card--><path codeLine="21" d="M654.5,63.26 C654.5,76.89 654.5,92.85 654.5,106.51 " fill="none" id="attack-pokemon_card" style="stroke:#A80036;stroke-width:1.0;stroke-dasharray:7.0,7.0;"/><line style="stroke:#A80036;stroke-width:1.0;" x1="658.5" x2="650.5" y1="110.68" y2="110.68"/><line style="stroke:#A80036;stroke-width:1.0;" x1="658.5" x2="650.5" y1="107.68" y2="107.68"/><line style="stroke:#A80036;stroke-width:1.0;" x1="654.5" x2="654.5" y1="106.68" y2="114.68"/><line style="stroke:#A80036;stroke-width:1.0;" x1="654.5" x2="648.5" y1="63" y2="55"/><line style="stroke:#A80036;stroke-width:1.0;" x1="654.5" x2="660.5" y1="63" y2="55"/><line style="stroke:#A80036;stroke-width:1.0;" x1="654.5" x2="654.5" y1="63" y2="55"/><line style="stroke:#A80036;stroke-width:1.0;" x1="650.5" x2="658.5" y1="65" y2="65"/><!--MD5=[896b8f631eebdd02efca618140f36a35]
link pokemon_card to extended_attributes_core--><path codeLine="22" d="M584.4,160.64 C581.06,161.47 577.75,162.26 574.5,163 C417.6,198.62 375.71,193.75 217.5,223 C214.41,223.57 211.27,224.16 208.1,224.76 " fill="none" id="pokemon_card-extended_attributes_core" style="stroke:#A80036;stroke-width:1.0;stroke-dasharray:7.0,7.0;"/><line style="stroke:#A80036;stroke-width:1.0;" x1="208.0281" x2="201.2951" y1="224.7698" y2="232.1636"/><line style="stroke:#A80036;stroke-width:1.0;" x1="208.0281" x2="199.0449" y1="224.7698" y2="220.3764"/><line style="stroke:#A80036;stroke-width:1.0;" x1="208.0281" x2="200.17" y1="224.7698" y2="226.27"/><line style="stroke:#A80036;stroke-width:1.0;" x1="210.7427" x2="209.2425" y1="228.3238" y2="220.4657"/><line style="stroke:#A80036;stroke-width:1.0;" x1="587.363" x2="589.3469" y1="155.7569" y2="163.507"/><line style="stroke:#A80036;stroke-width:1.0;" x1="584.4567" x2="586.4406" y1="156.5009" y2="164.251"/><line style="stroke:#A80036;stroke-width:1.0;" x1="584.4799" x2="592.23" y1="160.6239" y2="158.64"/><!--MD5=[c752fc6315e50b12ab3cec5111921c93]
link pokemon_card to extended_attributes_special_pokemon--><path codeLine="23" d="M586.33,165.53 C542,182.14 484.4,203.71 440,220.34 " fill="none" id="pokemon_card-extended_attributes_special_pokemon" style="stroke:#A80036;stroke-width:1.0;stroke-dasharray:7.0,7.0;"/><line style="stroke:#A80036;stroke-width:1.0;" x1="438.4193" x2="435.6121" y1="225.2021" y2="217.7107"/><line style="stroke:#A80036;stroke-width:1.0;" x1="441.2285" x2="438.4213" y1="224.1494" y2="216.658"/><line style="stroke:#A80036;stroke-width:1.0;" x1="440.7613" x2="433.27" y1="220.0528" y2="222.86"/><line style="stroke:#A80036;stroke-width:1.0;" x1="587.9407" x2="590.7479" y1="160.6579" y2="168.1493"/><line style="stroke:#A80036;stroke-width:1.0;" x1="585.1315" x2="587.9387" y1="161.7106" y2="169.202"/><line style="stroke:#A80036;stroke-width:1.0;" x1="585.5987" x2="593.09" y1="165.8072" y2="163"/><!--MD5=[08a6d2034e4fff1cbf3c5bbdb7bee2c9]
link extended_attributes_special_pokemon_type_lookup to pokemon_card--><path codeLine="24" d="M467,57.86 C505.51,74.32 555.23,95.57 593.79,112.05 " fill="none" id="extended_attributes_special_pokemon_type_lookup-pokemon_card" style="stroke:#A80036;stroke-width:1.0;stroke-dasharray:7.0,7.0;"/><line style="stroke:#A80036;stroke-width:1.0;" x1="598.2606" x2="595.1211" y1="109.6111" y2="116.9694"/><line style="stroke:#A80036;stroke-width:1.0;" x1="595.5013" x2="592.3618" y1="108.4338" y2="115.792"/><line style="stroke:#A80036;stroke-width:1.0;" x1="593.0118" x2="600.37" y1="111.7205" y2="114.86"/><line style="stroke:#A80036;stroke-width:1.0;" x1="462.4194" x2="465.5589" y1="60.2489" y2="52.8906"/><line style="stroke:#A80036;stroke-width:1.0;" x1="465.1787" x2="468.3182" y1="61.4262" y2="54.068"/><line style="stroke:#A80036;stroke-width:1.0;" x1="467.6682" x2="460.31" y1="58.1395" y2="55"/><!--MD5=[0b8e00b439ab816472bb1bcdb71a5369]
link pokemon_card to pokedex--><path codeLine="25" d="M635.03,169.91 C625.68,184.28 614.49,201.46 605.12,215.86 " fill="none" id="pokemon_card-pokedex" style="stroke:#A80036;stroke-width:1.0;stroke-dasharray:7.0,7.0;"/><line style="stroke:#A80036;stroke-width:1.0;" x1="605.0414" x2="605.7099" y1="215.9734" y2="225.9511"/><line style="stroke:#A80036;stroke-width:1.0;" x1="605.0414" x2="595.6501" y1="215.9734" y2="219.4089"/><line style="stroke:#A80036;stroke-width:1.0;" x1="605.0414" x2="600.68" y1="215.9734" y2="222.68"/><line style="stroke:#A80036;stroke-width:1.0;" x1="609.4851" x2="602.7785" y1="216.4775" y2="212.1161"/><line style="stroke:#A80036;stroke-width:1.0;" x1="633.996" x2="640.7026" y1="164.1726" y2="168.534"/><line style="stroke:#A80036;stroke-width:1.0;" x1="632.3605" x2="639.067" y1="166.6875" y2="171.049"/><line style="stroke:#A80036;stroke-width:1.0;" x1="635.1686" x2="639.53" y1="169.7066" y2="163"/><!--MD5=[bcdb627505f77fefabd79a72fc49efad]
link pokemon_card to pokedex_type--><path codeLine="26" d="M673.69,169.91 C682.9,184.28 693.93,201.46 703.16,215.86 " fill="none" id="pokemon_card-pokedex_type" style="stroke:#A80036;stroke-width:1.0;stroke-dasharray:7.0,7.0;"/><line style="stroke:#A80036;stroke-width:1.0;" x1="703.2183" x2="712.5892" y1="215.9478" y2="219.4387"/><line style="stroke:#A80036;stroke-width:1.0;" x1="703.2183" x2="702.4908" y1="215.9478" y2="225.9213"/><line style="stroke:#A80036;stroke-width:1.0;" x1="703.2183" x2="707.54" y1="215.9478" y2="222.68"/><line style="stroke:#A80036;stroke-width:1.0;" x1="705.5039" x2="698.7717" y1="212.1039" y2="216.4256"/><line style="stroke:#A80036;stroke-width:1.0;" x1="668.0501" x2="674.7781" y1="168.5281" y2="164.1999"/><line style="stroke:#A80036;stroke-width:1.0;" x1="669.6732" x2="676.4012" y1="171.0511" y2="166.7229"/><line style="stroke:#A80036;stroke-width:1.0;" x1="673.5782" x2="669.25" y1="169.728" y2="163"/><!--MD5=[cc2ba19013cbd87bce094f0a4925c173]
link pokemon_card to pokemon_category--><path codeLine="27" d="M712.8,165.97 C749.58,182.35 796.93,203.44 833.79,219.85 " fill="none" id="pokemon_card-pokemon_category" style="stroke:#A80036;stroke-width:1.0;stroke-dasharray:7.0,7.0;"/><line style="stroke:#A80036;stroke-width:1.0;" x1="838.5226" x2="835.2689" y1="217.5789" y2="224.8874"/><line style="stroke:#A80036;stroke-width:1.0;" x1="835.7819" x2="832.5283" y1="216.3588" y2="223.6673"/><line style="stroke:#A80036;stroke-width:1.0;" x1="833.2415" x2="840.55" y1="219.6063" y2="222.86"/><line style="stroke:#A80036;stroke-width:1.0;" x1="708.1718" x2="711.4194" y1="168.2794" y2="160.9682"/><line style="stroke:#A80036;stroke-width:1.0;" x1="710.9135" x2="714.1611" y1="169.4972" y2="162.1861"/><line style="stroke:#A80036;stroke-width:1.0;" x1="713.4512" x2="706.14" y1="166.2476" y2="163"/><!--MD5=[2351c9e03ddb8d4f172810d0e4e523a2]
link pokemon_card to rarity--><path codeLine="28" d="M723.83,160.14 C727.44,161.12 731.01,162.08 734.5,163 C845.42,192.19 877.1,185.52 985.5,223 C989.17,224.27 992.93,225.71 996.67,227.25 " fill="none" id="pokemon_card-rarity" style="stroke:#A80036;stroke-width:1.0;stroke-dasharray:7.0,7.0;"/><line style="stroke:#A80036;stroke-width:1.0;" x1="1001.2166" x2="998.0968" y1="224.8368" y2="232.2034"/><line style="stroke:#A80036;stroke-width:1.0;" x1="998.4541" x2="995.3343" y1="223.6669" y2="231.0335"/><line style="stroke:#A80036;stroke-width:1.0;" x1="995.9734" x2="1003.34" y1="226.9602" y2="230.08"/><line style="stroke:#A80036;stroke-width:1.0;" x1="719.6769" x2="721.797" y1="163.147" y2="155.4331"/><line style="stroke:#A80036;stroke-width:1.0;" x1="722.5697" x2="724.6898" y1="163.9421" y2="156.2281"/><line style="stroke:#A80036;stroke-width:1.0;" x1="724.594" x2="716.88" y1="160.3501" y2="158.23"/><!--MD5=[aa555519e4250e199da012f5153722e4]
link resistence_lookup to pokemon_card--><path codeLine="29" d="M382.09,110.99 C401.04,100.66 423.84,90.21 446,85 C494.02,73.71 509.24,72.66 557,85 C577,90.17 597.27,100.42 614.11,110.61 " fill="none" id="resistence_lookup-pokemon_card" style="stroke:#A80036;stroke-width:1.0;stroke-dasharray:7.0,7.0;"/><line style="stroke:#A80036;stroke-width:1.0;" x1="619.8307" x2="615.5997" y1="109.4497" y2="116.2393"/><line style="stroke:#A80036;stroke-width:1.0;" x1="617.2846" x2="613.0536" y1="107.8631" y2="114.6527"/><line style="stroke:#A80036;stroke-width:1.0;" x1="614.3204" x2="621.11" y1="110.729" y2="114.96"/><line style="stroke:#A80036;stroke-width:1.0;" x1="382.0052" x2="377.9448" y1="111.0303" y2="120.1689"/><line style="stroke:#A80036;stroke-width:1.0;" x1="382.0052" x2="372.0952" y1="111.0303" y2="109.6911"/><line style="stroke:#A80036;stroke-width:1.0;" x1="382.0052" x2="375.02" y1="111.0303" y2="114.93"/><line style="stroke:#A80036;stroke-width:1.0;" x1="385.7013" x2="381.8016" y1="113.548" y2="106.5628"/><!--MD5=[dde5dce0400fa17255421787c78a0130]
link pokemon_card to set--><path codeLine="30" d="M693.99,111.15 C711,100.78 731.64,90.26 752,85 C813.1,69.21 835.03,62.51 894,85 C907.55,90.17 920,99.93 930.03,109.74 " fill="none" id="pokemon_card-set" style="stroke:#A80036;stroke-width:1.0;stroke-dasharray:7.0,7.0;"/><line style="stroke:#A80036;stroke-width:1.0;" x1="935.099" x2="929.3934" y1="109.1934" y2="114.801"/><line style="stroke:#A80036;stroke-width:1.0;" x1="932.9962" x2="927.2905" y1="107.0537" y2="112.6613"/><line style="stroke:#A80036;stroke-width:1.0;" x1="929.4424" x2="935.05" y1="109.1443" y2="114.85"/><line style="stroke:#A80036;stroke-width:1.0;" x1="693.3998" x2="689.1715" y1="116.2415" y2="109.4502"/><line style="stroke:#A80036;stroke-width:1.0;" x1="695.9465" x2="691.7183" y1="114.6559" y2="107.8646"/><line style="stroke:#A80036;stroke-width:1.0;" x1="694.6813" x2="687.89" y1="110.7318" y2="114.96"/><!--MD5=[584e7e28fe4cca9035d2262f60b1bcc3]
link pokemon_card to weakness_lookup--><path codeLine="31" d="M724.67,139 C730.77,139 736.87,139 742.97,139 " fill="none" id="pokemon_card-weakness_lookup" style="stroke:#A80036;stroke-width:1.0;stroke-dasharray:7.0,7.0;"/><line style="stroke:#A80036;stroke-width:1.0;" x1="743.29" x2="751.29" y1="139" y2="133"/><line style="stroke:#A80036;stroke-width:1.0;" x1="743.29" x2="751.29" y1="139" y2="145"/><line style="stroke:#A80036;stroke-width:1.0;" x1="743.29" x2="751.29" y1="139" y2="139"/><line style="stroke:#A80036;stroke-width:1.0;" x1="741.29" x2="741.29" y1="135" y2="143"/><line style="stroke:#A80036;stroke-width:1.0;" x1="720.52" x2="720.52" y1="143" y2="135"/><line style="stroke:#A80036;stroke-width:1.0;" x1="723.52" x2="723.52" y1="143" y2="135"/><line style="stroke:#A80036;stroke-width:1.0;" x1="724.52" x2="716.52" y1="139" y2="139"/><!--MD5=[5bb7804b645a1b2438c3fa3351542829]
@startuml pokemon-card-relationships

entity "action" as action {}
entity "ancient_trait" as ancient_trait {}
entity "artist" as artist {}
entity "attack" as attack {}
entity "extended_attributes_core" as extended_attributes_core {}
entity "extended_attributes_special_pokemon" as extended_attributes_special_pokemon {}
entity "extended_attributes_special_pokemon_type_lookup" as extended_attributes_special_pokemon_type_lookup {}
entity "pokedex" as pokedex {}
entity "pokedex_type" as pokedex_type {}
entity "pokemon_card" as pokemon_card {}
entity "pokemon_category" as pokemon_category {}
entity "rarity" as rarity {}
entity "resistence_lookup" as resistence_lookup {}
entity "set" as set {}
entity "weakness_lookup" as weakness_lookup {}

pokemon_card ||..right|{ action
pokemon_card ||..left|| ancient_trait
pokemon_card ||..up|| artist
pokemon_card ||..up|{ attack
pokemon_card ||..|{ extended_attributes_core
pokemon_card ||..|| extended_attributes_special_pokemon
pokemon_card ||..up|| extended_attributes_special_pokemon_type_lookup
pokemon_card ||..|{ pokedex
pokemon_card ||..down|{ pokedex_type
pokemon_card ||..down|| pokemon_category
pokemon_card ||..down|| rarity
pokemon_card ||..left|{ resistence_lookup
pokemon_card ||..right|| set
pokemon_card ||..right|{ weakness_lookup

@enduml

PlantUML version 1.2020.22(Sun Dec 06 09:36:27 GMT 2020)
(GPL source distribution)
Java Runtime: OpenJDK Runtime Environment
JVM: OpenJDK 64-Bit Server VM
Default Encoding: UTF-8
Language: en
Country: GB
--></g></svg>