<?xml version="1.0" encoding="UTF-8" standalone="no"?><svg xmlns="http://www.w3.org/2000/svg" xmlns:xlink="http://www.w3.org/1999/xlink" contentScriptType="application/ecmascript" contentStyleType="text/css" height="285px" preserveAspectRatio="none" style="width:690px;height:285px;" version="1.1" viewBox="0 0 690 285" width="690px" zoomAndPan="magnify"><defs><filter height="300%" id="ffklgqzf80xdf" width="300%" x="-1" y="-1"><feGaussianBlur result="blurOut" stdDeviation="2.0"/><feColorMatrix in="blurOut" result="blurOut2" type="matrix" values="0 0 0 0 0 0 0 0 0 0 0 0 0 0 0 0 0 0 .4 0"/><feOffset dx="4.0" dy="4.0" in="blurOut2" result="blurOut3"/><feBlend in="SourceGraphic" in2="blurOut3" mode="normal"/></filter></defs><g><!--MD5=[1b0c078f5d796f81d685886800b19f1a]
class action--><rect codeLine="2" fill="#FEFECE" filter="url(#ffklgqzf80xdf)" height="48" id="action" style="stroke:#A80036;stroke-width:1.5;" width="71" x="352.5" y="7"/><ellipse cx="367.5" cy="23" fill="#ADD1B2" rx="11" ry="11" style="stroke:#A80036;stroke-width:1.0;"/><path d="M371.6094,29 L363.8906,29 L363.8906,16.6094 L371.6094,16.6094 L371.6094,18.7656 L366.3438,18.7656 L366.3438,21.4375 L371.1094,21.4375 L371.1094,23.5938 L366.3438,23.5938 L366.3438,26.8438 L371.6094,26.8438 L371.6094,29 Z " fill="#000000"/><text fill="#000000" font-family="sans-serif" font-size="12" lengthAdjust="spacingAndGlyphs" textLength="39" x="381.5" y="27.1543">action</text><line style="stroke:#A80036;stroke-width:1.5;" x1="353.5" x2="422.5" y1="39" y2="39"/><line style="stroke:#A80036;stroke-width:1.5;" x1="353.5" x2="422.5" y1="47" y2="47"/><!--MD5=[e496c8ccb40abcb9b4f840cac8f8d9f4]
class artist--><rect codeLine="3" fill="#FEFECE" filter="url(#ffklgqzf80xdf)" height="48" id="artist" style="stroke:#A80036;stroke-width:1.5;" width="65" x="252.5" y="7"/><ellipse cx="267.5" cy="23" fill="#ADD1B2" rx="11" ry="11" style="stroke:#A80036;stroke-width:1.0;"/><path d="M271.6094,29 L263.8906,29 L263.8906,16.6094 L271.6094,16.6094 L271.6094,18.7656 L266.3438,18.7656 L266.3438,21.4375 L271.1094,21.4375 L271.1094,23.5938 L266.3438,23.5938 L266.3438,26.8438 L271.6094,26.8438 L271.6094,29 Z " fill="#000000"/><text fill="#000000" font-family="sans-serif" font-size="12" lengthAdjust="spacingAndGlyphs" textLength="33" x="281.5" y="27.1543">artist</text><line style="stroke:#A80036;stroke-width:1.5;" x1="253.5" x2="316.5" y1="39" y2="39"/><line style="stroke:#A80036;stroke-width:1.5;" x1="253.5" x2="316.5" y1="47" y2="47"/><!--MD5=[73f50bc9beaa78259082f568f5749b58]
class attack--><rect codeLine="4" fill="#FEFECE" filter="url(#ffklgqzf80xdf)" height="48" id="attack" style="stroke:#A80036;stroke-width:1.5;" width="72" x="145" y="7"/><ellipse cx="160" cy="23" fill="#ADD1B2" rx="11" ry="11" style="stroke:#A80036;stroke-width:1.0;"/><path d="M164.1094,29 L156.3906,29 L156.3906,16.6094 L164.1094,16.6094 L164.1094,18.7656 L158.8438,18.7656 L158.8438,21.4375 L163.6094,21.4375 L163.6094,23.5938 L158.8438,23.5938 L158.8438,26.8438 L164.1094,26.8438 L164.1094,29 Z " fill="#000000"/><text fill="#000000" font-family="sans-serif" font-size="12" lengthAdjust="spacingAndGlyphs" textLength="40" x="174" y="27.1543">attack</text><line style="stroke:#A80036;stroke-width:1.5;" x1="146" x2="216" y1="39" y2="39"/><line style="stroke:#A80036;stroke-width:1.5;" x1="146" x2="216" y1="47" y2="47"/><!--MD5=[21acb44298740fecc380669d05e1f2c6]
class card_rule--><rect codeLine="5" fill="#FEFECE" filter="url(#ffklgqzf80xdf)" height="48" id="card_rule" style="stroke:#A80036;stroke-width:1.5;" width="90" x="7" y="223"/><ellipse cx="22" cy="239" fill="#ADD1B2" rx="11" ry="11" style="stroke:#A80036;stroke-width:1.0;"/><path d="M26.1094,245 L18.3906,245 L18.3906,232.6094 L26.1094,232.6094 L26.1094,234.7656 L20.8438,234.7656 L20.8438,237.4375 L25.6094,237.4375 L25.6094,239.5938 L20.8438,239.5938 L20.8438,242.8438 L26.1094,242.8438 L26.1094,245 Z " fill="#000000"/><text fill="#000000" font-family="sans-serif" font-size="12" lengthAdjust="spacingAndGlyphs" textLength="58" x="36" y="243.1543">card_rule</text><line style="stroke:#A80036;stroke-width:1.5;" x1="8" x2="96" y1="255" y2="255"/><line style="stroke:#A80036;stroke-width:1.5;" x1="8" x2="96" y1="263" y2="263"/><!--MD5=[de3056f63fe13fdcdcfe459f38f4258e]
class extended_attributes_special_pokemon_type_lookup--><rect codeLine="6" fill="#FEFECE" filter="url(#ffklgqzf80xdf)" height="48" id="extended_attributes_special_pokemon_type_lookup" style="stroke:#A80036;stroke-width:1.5;" width="354" x="322" y="115"/><ellipse cx="337" cy="131" fill="#ADD1B2" rx="11" ry="11" style="stroke:#A80036;stroke-width:1.0;"/><path d="M341.1094,137 L333.3906,137 L333.3906,124.6094 L341.1094,124.6094 L341.1094,126.7656 L335.8438,126.7656 L335.8438,129.4375 L340.6094,129.4375 L340.6094,131.5938 L335.8438,131.5938 L335.8438,134.8438 L341.1094,134.8438 L341.1094,137 Z " fill="#000000"/><text fill="#000000" font-family="sans-serif" font-size="12" lengthAdjust="spacingAndGlyphs" textLength="322" x="351" y="135.1543">extended_attributes_special_pokemon_type_lookup</text><line style="stroke:#A80036;stroke-width:1.5;" x1="323" x2="675" y1="147" y2="147"/><line style="stroke:#A80036;stroke-width:1.5;" x1="323" x2="675" y1="155" y2="155"/><!--MD5=[0226e7a91aa78cb2dba1b9ba67fa7cec]
class rarity--><rect codeLine="7" fill="#FEFECE" filter="url(#ffklgqzf80xdf)" height="48" id="rarity" style="stroke:#A80036;stroke-width:1.5;" width="64" x="132" y="223"/><ellipse cx="147" cy="239" fill="#ADD1B2" rx="11" ry="11" style="stroke:#A80036;stroke-width:1.0;"/><path d="M151.1094,245 L143.3906,245 L143.3906,232.6094 L151.1094,232.6094 L151.1094,234.7656 L145.8438,234.7656 L145.8438,237.4375 L150.6094,237.4375 L150.6094,239.5938 L145.8438,239.5938 L145.8438,242.8438 L151.1094,242.8438 L151.1094,245 Z " fill="#000000"/><text fill="#000000" font-family="sans-serif" font-size="12" lengthAdjust="spacingAndGlyphs" textLength="32" x="161" y="243.1543">rarity</text><line style="stroke:#A80036;stroke-width:1.5;" x1="133" x2="195" y1="255" y2="255"/><line style="stroke:#A80036;stroke-width:1.5;" x1="133" x2="195" y1="263" y2="263"/><!--MD5=[36b0e245bf430e2a9a71d9dcae4d8422]
class set--><rect codeLine="8" fill="#FEFECE" filter="url(#ffklgqzf80xdf)" height="48" id="set" style="stroke:#A80036;stroke-width:1.5;" width="52" x="58" y="7"/><ellipse cx="73" cy="23" fill="#ADD1B2" rx="11" ry="11" style="stroke:#A80036;stroke-width:1.0;"/><path d="M77.1094,29 L69.3906,29 L69.3906,16.6094 L77.1094,16.6094 L77.1094,18.7656 L71.8438,18.7656 L71.8438,21.4375 L76.6094,21.4375 L76.6094,23.5938 L71.8438,23.5938 L71.8438,26.8438 L77.1094,26.8438 L77.1094,29 Z " fill="#000000"/><text fill="#000000" font-family="sans-serif" font-size="12" lengthAdjust="spacingAndGlyphs" textLength="20" x="87" y="27.1543">set</text><line style="stroke:#A80036;stroke-width:1.5;" x1="59" x2="109" y1="39" y2="39"/><line style="stroke:#A80036;stroke-width:1.5;" x1="59" x2="109" y1="47" y2="47"/><!--MD5=[00f394106ca67837340883460b0fa24d]
class trainer_card--><rect codeLine="9" fill="#FEFECE" filter="url(#ffklgqzf80xdf)" height="48" id="trainer_card" style="stroke:#A80036;stroke-width:1.5;" width="108" x="179" y="115"/><ellipse cx="194" cy="131" fill="#ADD1B2" rx="11" ry="11" style="stroke:#A80036;stroke-width:1.0;"/><path d="M198.1094,137 L190.3906,137 L190.3906,124.6094 L198.1094,124.6094 L198.1094,126.7656 L192.8438,126.7656 L192.8438,129.4375 L197.6094,129.4375 L197.6094,131.5938 L192.8438,131.5938 L192.8438,134.8438 L198.1094,134.8438 L198.1094,137 Z " fill="#000000"/><text fill="#000000" font-family="sans-serif" font-size="12" lengthAdjust="spacingAndGlyphs" textLength="76" x="208" y="135.1543">trainer_card</text><line style="stroke:#A80036;stroke-width:1.5;" x1="180" x2="286" y1="147" y2="147"/><line style="stroke:#A80036;stroke-width:1.5;" x1="180" x2="286" y1="155" y2="155"/><!--MD5=[27e337e55ad5f76356bb64249c29ac7b]
class trainer_card_type--><rect codeLine="10" fill="#FEFECE" filter="url(#ffklgqzf80xdf)" height="48" id="trainer_card_type" style="stroke:#A80036;stroke-width:1.5;" width="141" x="231.5" y="223"/><ellipse cx="246.5" cy="239" fill="#ADD1B2" rx="11" ry="11" style="stroke:#A80036;stroke-width:1.0;"/><path d="M250.6094,245 L242.8906,245 L242.8906,232.6094 L250.6094,232.6094 L250.6094,234.7656 L245.3438,234.7656 L245.3438,237.4375 L250.1094,237.4375 L250.1094,239.5938 L245.3438,239.5938 L245.3438,242.8438 L250.6094,242.8438 L250.6094,245 Z " fill="#000000"/><text fill="#000000" font-family="sans-serif" font-size="12" lengthAdjust="spacingAndGlyphs" textLength="109" x="260.5" y="243.1543">trainer_card_type</text><line style="stroke:#A80036;stroke-width:1.5;" x1="232.5" x2="371.5" y1="255" y2="255"/><line style="stroke:#A80036;stroke-width:1.5;" x1="232.5" x2="371.5" y1="263" y2="263"/><!--MD5=[65d09fc9463805e3a3a2e0a4dabebef1]
class trainer_category--><rect codeLine="11" fill="#FEFECE" filter="url(#ffklgqzf80xdf)" height="48" id="trainer_category" style="stroke:#A80036;stroke-width:1.5;" width="135" x="407.5" y="223"/><ellipse cx="422.5" cy="239" fill="#ADD1B2" rx="11" ry="11" style="stroke:#A80036;stroke-width:1.0;"/><path d="M426.6094,245 L418.8906,245 L418.8906,232.6094 L426.6094,232.6094 L426.6094,234.7656 L421.3438,234.7656 L421.3438,237.4375 L426.1094,237.4375 L426.1094,239.5938 L421.3438,239.5938 L421.3438,242.8438 L426.6094,242.8438 L426.6094,245 Z " fill="#000000"/><text fill="#000000" font-family="sans-serif" font-size="12" lengthAdjust="spacingAndGlyphs" textLength="103" x="436.5" y="243.1543">trainer_category</text><line style="stroke:#A80036;stroke-width:1.5;" x1="408.5" x2="541.5" y1="255" y2="255"/><line style="stroke:#A80036;stroke-width:1.5;" x1="408.5" x2="541.5" y1="263" y2="263"/><!--MD5=[a002cd366aced757618f3dbdf19ea6ae]
link action to trainer_card--><path codeLine="13" d="M348.45,59.05 C325.29,74.89 296.13,94.83 272.91,110.71 " fill="none" id="action-trainer_card" style="stroke:#A80036;stroke-width:1.0;stroke-dasharray:7.0,7.0;"/><line style="stroke:#A80036;stroke-width:1.0;" x1="272.391" x2="267.8671" y1="115.8971" y2="109.299"/><line style="stroke:#A80036;stroke-width:1.0;" x1="274.8652" x2="270.3413" y1="114.2006" y2="107.6026"/><line style="stroke:#A80036;stroke-width:1.0;" x1="273.428" x2="266.83" y1="110.3361" y2="114.86"/><line style="stroke:#A80036;stroke-width:1.0;" x1="348.8108" x2="353.3236" y1="53.9536" y2="60.5592"/><line style="stroke:#A80036;stroke-width:1.0;" x1="346.3337" x2="350.8464" y1="55.6459" y2="62.2515"/><line style="stroke:#A80036;stroke-width:1.0;" x1="347.7643" x2="354.37" y1="59.5128" y2="55"/><!--MD5=[d0958699bdbb96aefceca9db15a7c18d]
link artist to trainer_card--><path codeLine="14" d="M270.55,61.46 C263.4,76.03 254.79,93.57 247.62,108.19 " fill="none" id="artist-trainer_card" style="stroke:#A80036;stroke-width:1.0;stroke-dasharray:7.0,7.0;"/><line style="stroke:#A80036;stroke-width:1.0;" x1="249.7934" x2="242.612" y1="112.852" y2="109.3266"/><line style="stroke:#A80036;stroke-width:1.0;" x1="251.1154" x2="243.934" y1="110.159" y2="106.6336"/><line style="stroke:#A80036;stroke-width:1.0;" x1="247.9654" x2="244.44" y1="107.4987" y2="114.68"/><line style="stroke:#A80036;stroke-width:1.0;" x1="268.37" x2="275.5578" y1="56.8378" y2="60.35"/><line style="stroke:#A80036;stroke-width:1.0;" x1="267.0529" x2="274.2407" y1="59.5332" y2="63.0454"/><line style="stroke:#A80036;stroke-width:1.0;" x1="270.2078" x2="273.72" y1="62.1878" y2="55"/><!--MD5=[7dae38db60cb57f1befe6c18daeb5d80]
link attack to trainer_card--><path codeLine="15" d="M195.45,61.46 C202.6,76.03 211.21,93.57 218.38,108.19 " fill="none" id="attack-trainer_card" style="stroke:#A80036;stroke-width:1.0;stroke-dasharray:7.0,7.0;"/><line style="stroke:#A80036;stroke-width:1.0;" x1="223.388" x2="216.2066" y1="109.3266" y2="112.852"/><line style="stroke:#A80036;stroke-width:1.0;" x1="222.066" x2="214.8846" y1="106.6336" y2="110.159"/><line style="stroke:#A80036;stroke-width:1.0;" x1="218.0346" x2="221.56" y1="107.4987" y2="114.68"/><line style="stroke:#A80036;stroke-width:1.0;" x1="190.4422" x2="197.63" y1="60.35" y2="56.8378"/><line style="stroke:#A80036;stroke-width:1.0;" x1="191.7593" x2="198.9471" y1="63.0454" y2="59.5332"/><line style="stroke:#A80036;stroke-width:1.0;" x1="195.7922" x2="192.28" y1="62.1878" y2="55"/><!--MD5=[c643aff730ec94c461f228ef45e4a779]
link trainer_card to extended_attributes_special_pokemon_type_lookup--><path codeLine="16" d="M294.1,139 C300.88,139 307.66,139 314.45,139 " fill="none" id="trainer_card-extended_attributes_special_pokemon_type_lookup" style="stroke:#A80036;stroke-width:1.0;stroke-dasharray:7.0,7.0;"/><line style="stroke:#A80036;stroke-width:1.0;" x1="317.81" x2="317.81" y1="135" y2="143"/><line style="stroke:#A80036;stroke-width:1.0;" x1="314.81" x2="314.81" y1="135" y2="143"/><line style="stroke:#A80036;stroke-width:1.0;" x1="313.81" x2="321.81" y1="139" y2="139"/><line style="stroke:#A80036;stroke-width:1.0;" x1="291.03" x2="291.03" y1="143" y2="135"/><line style="stroke:#A80036;stroke-width:1.0;" x1="294.03" x2="294.03" y1="143" y2="135"/><line style="stroke:#A80036;stroke-width:1.0;" x1="295.03" x2="287.03" y1="139" y2="139"/><!--MD5=[0696cc8e1af702bb4624c910d1b72a5a]
link trainer_card to rarity--><path codeLine="17" d="M214.11,169.01 C204.5,183.78 192.84,201.7 183.18,216.53 " fill="none" id="trainer_card-rarity" style="stroke:#A80036;stroke-width:1.0;stroke-dasharray:7.0,7.0;"/><line style="stroke:#A80036;stroke-width:1.0;" x1="184.7147" x2="178.0109" y1="221.5109" y2="217.1453"/><line style="stroke:#A80036;stroke-width:1.0;" x1="186.3519" x2="179.648" y1="218.997" y2="214.6313"/><line style="stroke:#A80036;stroke-width:1.0;" x1="183.5457" x2="179.18" y1="215.9762" y2="222.68"/><line style="stroke:#A80036;stroke-width:1.0;" x1="212.4953" x2="219.1991" y1="164.1691" y2="168.5347"/><line style="stroke:#A80036;stroke-width:1.0;" x1="210.8581" x2="217.562" y1="166.683" y2="171.0487"/><line style="stroke:#A80036;stroke-width:1.0;" x1="213.6643" x2="218.03" y1="169.7038" y2="163"/><!--MD5=[97e1f923f12353435d6169fdfedbcea3]
link set to trainer_card--><path codeLine="18" d="M116.1,54.83 C139.17,71.25 170.38,93.45 194.75,110.79 " fill="none" id="set-trainer_card" style="stroke:#A80036;stroke-width:1.0;stroke-dasharray:7.0,7.0;"/><line style="stroke:#A80036;stroke-width:1.0;" x1="199.5242" x2="194.8928" y1="109.2828" y2="115.8058"/><line style="stroke:#A80036;stroke-width:1.0;" x1="197.078" x2="192.4466" y1="107.546" y2="114.0691"/><line style="stroke:#A80036;stroke-width:1.0;" x1="193.9469" x2="200.47" y1="110.2286" y2="114.86"/><line style="stroke:#A80036;stroke-width:1.0;" x1="111.2393" x2="115.8783" y1="56.2883" y2="49.7707"/><line style="stroke:#A80036;stroke-width:1.0;" x1="113.6833" x2="118.3224" y1="58.028" y2="51.5104"/><line style="stroke:#A80036;stroke-width:1.0;" x1="116.8176" x2="110.3" y1="55.3491" y2="50.71"/><!--MD5=[e0ee911e2c7fb5e796da71ae4b70b548]
link trainer_card to trainer_card_type--><path codeLine="19" d="M251.89,169.01 C261.5,183.78 273.16,201.7 282.82,216.53 " fill="none" id="trainer_card-trainer_card_type" style="stroke:#A80036;stroke-width:1.0;stroke-dasharray:7.0,7.0;"/><line style="stroke:#A80036;stroke-width:1.0;" x1="287.9891" x2="281.2853" y1="217.1453" y2="221.5109"/><line style="stroke:#A80036;stroke-width:1.0;" x1="286.352" x2="279.6481" y1="214.6313" y2="218.997"/><line style="stroke:#A80036;stroke-width:1.0;" x1="282.4543" x2="286.82" y1="215.9762" y2="222.68"/><line style="stroke:#A80036;stroke-width:1.0;" x1="246.8009" x2="253.5047" y1="168.5347" y2="164.1691"/><line style="stroke:#A80036;stroke-width:1.0;" x1="248.438" x2="255.1419" y1="171.0487" y2="166.683"/><line style="stroke:#A80036;stroke-width:1.0;" x1="252.3357" x2="247.97" y1="169.7038" y2="163"/><!--MD5=[7a958effd89f627988292443af3a019f]
link trainer_card to trainer_category--><path codeLine="20" d="M292.28,165.97 C329.68,182.35 377.83,203.44 415.31,219.85 " fill="none" id="trainer_card-trainer_category" style="stroke:#A80036;stroke-width:1.0;stroke-dasharray:7.0,7.0;"/><line style="stroke:#A80036;stroke-width:1.0;" x1="420.1142" x2="416.8999" y1="217.5899" y2="224.9158"/><line style="stroke:#A80036;stroke-width:1.0;" x1="417.367" x2="414.1527" y1="216.3846" y2="223.7105"/><line style="stroke:#A80036;stroke-width:1.0;" x1="414.8441" x2="422.17" y1="219.6457" y2="222.86"/><line style="stroke:#A80036;stroke-width:1.0;" x1="287.5658" x2="290.7801" y1="168.2701" y2="160.9442"/><line style="stroke:#A80036;stroke-width:1.0;" x1="290.313" x2="293.5273" y1="169.4754" y2="162.1495"/><line style="stroke:#A80036;stroke-width:1.0;" x1="292.8359" x2="285.51" y1="166.2143" y2="163"/><!--MD5=[0a60abca816a7ea137caf64c9a61beae]
link trainer_card to card_rule--><path codeLine="21" d="M187.55,166.61 C160.07,182.71 125.14,203.17 97.62,219.28 " fill="none" id="trainer_card-card_rule" style="stroke:#A80036;stroke-width:1.0;stroke-dasharray:7.0,7.0;"/><line style="stroke:#A80036;stroke-width:1.0;" x1="96.9838" x2="92.9376" y1="224.2876" y2="217.3862"/><line style="stroke:#A80036;stroke-width:1.0;" x1="99.5718" x2="95.5256" y1="222.7703" y2="215.8689"/><line style="stroke:#A80036;stroke-width:1.0;" x1="98.4113" x2="91.51" y1="218.8138" y2="222.86"/><line style="stroke:#A80036;stroke-width:1.0;" x1="188.2588" x2="192.2928" y1="161.5628" y2="168.4712"/><line style="stroke:#A80036;stroke-width:1.0;" x1="185.6681" x2="189.7021" y1="163.0755" y2="169.984"/><line style="stroke:#A80036;stroke-width:1.0;" x1="186.8215" x2="193.73" y1="167.034" y2="163"/><!--MD5=[9d5e5691f02ff45986e07cf605996eb5]
@startuml trainer-card-relationships

entity "action" as action {}
entity "artist" as artist {}
entity "attack" as attack {}
entity "card_rule" as card_rule {}
entity "extended_attributes_special_pokemon_type_lookup" as extended_attributes_special_pokemon_type_lookup {}
entity "rarity" as rarity {}
entity "set" as set {}
entity "trainer_card" as trainer_card {}
entity "trainer_card_type" as trainer_card_type {}
entity "trainer_category" as trainer_category {}

trainer_card ||..up|| action
trainer_card ||..up|| artist
trainer_card ||..up|| attack 
trainer_card ||..right|| extended_attributes_special_pokemon_type_lookup
trainer_card ||..|| rarity
trainer_card ||..up|| set
trainer_card ||..|| trainer_card_type
trainer_card ||..|| trainer_category
trainer_card ||..|| card_rule

@enduml

PlantUML version 1.2020.22(Sun Dec 06 09:36:27 GMT 2020)
(GPL source distribution)
Java Runtime: OpenJDK Runtime Environment
JVM: OpenJDK 64-Bit Server VM
Default Encoding: UTF-8
Language: en
Country: GB
--></g></svg>