<?xml version="1.0" encoding="UTF-8" standalone="no"?><svg xmlns="http://www.w3.org/2000/svg" xmlns:xlink="http://www.w3.org/1999/xlink" contentScriptType="application/ecmascript" contentStyleType="text/css" height="285px" preserveAspectRatio="none" style="width:778px;height:285px;" version="1.1" viewBox="0 0 778 285" width="778px" zoomAndPan="magnify"><defs><filter height="300%" id="f1kuq8gwch174v" width="300%" x="-1" y="-1"><feGaussianBlur result="blurOut" stdDeviation="2.0"/><feColorMatrix in="blurOut" result="blurOut2" type="matrix" values="0 0 0 0 0 0 0 0 0 0 0 0 0 0 0 0 0 0 .4 0"/><feOffset dx="4.0" dy="4.0" in="blurOut2" result="blurOut3"/><feBlend in="SourceGraphic" in2="blurOut3" mode="normal"/></filter></defs><g><!--MD5=[1b0c078f5d796f81d685886800b19f1a]
class action--><rect codeLine="2" fill="#FEFECE" filter="url(#f1kuq8gwch174v)" height="48" id="action" style="stroke:#A80036;stroke-width:1.5;" width="71" x="489" y="7"/><ellipse cx="504" cy="23" fill="#ADD1B2" rx="11" ry="11" style="stroke:#A80036;stroke-width:1.0;"/><path d="M508.1094,29 L500.3906,29 L500.3906,16.6094 L508.1094,16.6094 L508.1094,18.7656 L502.8438,18.7656 L502.8438,21.4375 L507.6094,21.4375 L507.6094,23.5938 L502.8438,23.5938 L502.8438,26.8438 L508.1094,26.8438 L508.1094,29 Z " fill="#000000"/><text fill="#000000" font-family="sans-serif" font-size="12" lengthAdjust="spacingAndGlyphs" textLength="39" x="518" y="27.1543">action</text><line style="stroke:#A80036;stroke-width:1.5;" x1="490" x2="559" y1="39" y2="39"/><line style="stroke:#A80036;stroke-width:1.5;" x1="490" x2="559" y1="47" y2="47"/><!--MD5=[e496c8ccb40abcb9b4f840cac8f8d9f4]
class artist--><rect codeLine="3" fill="#FEFECE" filter="url(#f1kuq8gwch174v)" height="48" id="artist" style="stroke:#A80036;stroke-width:1.5;" width="65" x="389" y="7"/><ellipse cx="404" cy="23" fill="#ADD1B2" rx="11" ry="11" style="stroke:#A80036;stroke-width:1.0;"/><path d="M408.1094,29 L400.3906,29 L400.3906,16.6094 L408.1094,16.6094 L408.1094,18.7656 L402.8438,18.7656 L402.8438,21.4375 L407.6094,21.4375 L407.6094,23.5938 L402.8438,23.5938 L402.8438,26.8438 L408.1094,26.8438 L408.1094,29 Z " fill="#000000"/><text fill="#000000" font-family="sans-serif" font-size="12" lengthAdjust="spacingAndGlyphs" textLength="33" x="418" y="27.1543">artist</text><line style="stroke:#A80036;stroke-width:1.5;" x1="390" x2="453" y1="39" y2="39"/><line style="stroke:#A80036;stroke-width:1.5;" x1="390" x2="453" y1="47" y2="47"/><!--MD5=[73f50bc9beaa78259082f568f5749b58]
class attack--><rect codeLine="4" fill="#FEFECE" filter="url(#f1kuq8gwch174v)" height="48" id="attack" style="stroke:#A80036;stroke-width:1.5;" width="72" x="281.5" y="7"/><ellipse cx="296.5" cy="23" fill="#ADD1B2" rx="11" ry="11" style="stroke:#A80036;stroke-width:1.0;"/><path d="M300.6094,29 L292.8906,29 L292.8906,16.6094 L300.6094,16.6094 L300.6094,18.7656 L295.3438,18.7656 L295.3438,21.4375 L300.1094,21.4375 L300.1094,23.5938 L295.3438,23.5938 L295.3438,26.8438 L300.6094,26.8438 L300.6094,29 Z " fill="#000000"/><text fill="#000000" font-family="sans-serif" font-size="12" lengthAdjust="spacingAndGlyphs" textLength="40" x="310.5" y="27.1543">attack</text><line style="stroke:#A80036;stroke-width:1.5;" x1="282.5" x2="352.5" y1="39" y2="39"/><line style="stroke:#A80036;stroke-width:1.5;" x1="282.5" x2="352.5" y1="47" y2="47"/><!--MD5=[21acb44298740fecc380669d05e1f2c6]
class card_rule--><rect codeLine="5" fill="#FEFECE" filter="url(#f1kuq8gwch174v)" height="48" id="card_rule" style="stroke:#A80036;stroke-width:1.5;" width="90" x="143.5" y="223"/><ellipse cx="158.5" cy="239" fill="#ADD1B2" rx="11" ry="11" style="stroke:#A80036;stroke-width:1.0;"/><path d="M162.6094,245 L154.8906,245 L154.8906,232.6094 L162.6094,232.6094 L162.6094,234.7656 L157.3438,234.7656 L157.3438,237.4375 L162.1094,237.4375 L162.1094,239.5938 L157.3438,239.5938 L157.3438,242.8438 L162.6094,242.8438 L162.6094,245 Z " fill="#000000"/><text fill="#000000" font-family="sans-serif" font-size="12" lengthAdjust="spacingAndGlyphs" textLength="58" x="172.5" y="243.1543">card_rule</text><line style="stroke:#A80036;stroke-width:1.5;" x1="144.5" x2="232.5" y1="255" y2="255"/><line style="stroke:#A80036;stroke-width:1.5;" x1="144.5" x2="232.5" y1="263" y2="263"/><!--MD5=[4a819daee672845cad70c7a48311cd4a]
class extended_attributes_special_pokemon--><rect codeLine="6" fill="#FEFECE" filter="url(#f1kuq8gwch174v)" height="48" id="extended_attributes_special_pokemon" style="stroke:#A80036;stroke-width:1.5;" width="273" x="7" y="115"/><ellipse cx="22" cy="131" fill="#ADD1B2" rx="11" ry="11" style="stroke:#A80036;stroke-width:1.0;"/><path d="M26.1094,137 L18.3906,137 L18.3906,124.6094 L26.1094,124.6094 L26.1094,126.7656 L20.8438,126.7656 L20.8438,129.4375 L25.6094,129.4375 L25.6094,131.5938 L20.8438,131.5938 L20.8438,134.8438 L26.1094,134.8438 L26.1094,137 Z " fill="#000000"/><text fill="#000000" font-family="sans-serif" font-size="12" lengthAdjust="spacingAndGlyphs" textLength="241" x="36" y="135.1543">extended_attributes_special_pokemon</text><line style="stroke:#A80036;stroke-width:1.5;" x1="8" x2="279" y1="147" y2="147"/><line style="stroke:#A80036;stroke-width:1.5;" x1="8" x2="279" y1="155" y2="155"/><!--MD5=[054a44254ebf563cd77b023f4bfa137f]
class extended_attributes_special_pokemon_type--><rect codeLine="7" fill="#FEFECE" filter="url(#f1kuq8gwch174v)" height="48" id="extended_attributes_special_pokemon_type" style="stroke:#A80036;stroke-width:1.5;" width="306" x="458.5" y="115"/><ellipse cx="473.5" cy="131" fill="#ADD1B2" rx="11" ry="11" style="stroke:#A80036;stroke-width:1.0;"/><path d="M477.6094,137 L469.8906,137 L469.8906,124.6094 L477.6094,124.6094 L477.6094,126.7656 L472.3438,126.7656 L472.3438,129.4375 L477.1094,129.4375 L477.1094,131.5938 L472.3438,131.5938 L472.3438,134.8438 L477.6094,134.8438 L477.6094,137 Z " fill="#000000"/><text fill="#000000" font-family="sans-serif" font-size="12" lengthAdjust="spacingAndGlyphs" textLength="274" x="487.5" y="135.1543">extended_attributes_special_pokemon_type</text><line style="stroke:#A80036;stroke-width:1.5;" x1="459.5" x2="763.5" y1="147" y2="147"/><line style="stroke:#A80036;stroke-width:1.5;" x1="459.5" x2="763.5" y1="155" y2="155"/><!--MD5=[0226e7a91aa78cb2dba1b9ba67fa7cec]
class rarity--><rect codeLine="8" fill="#FEFECE" filter="url(#f1kuq8gwch174v)" height="48" id="rarity" style="stroke:#A80036;stroke-width:1.5;" width="64" x="268.5" y="223"/><ellipse cx="283.5" cy="239" fill="#ADD1B2" rx="11" ry="11" style="stroke:#A80036;stroke-width:1.0;"/><path d="M287.6094,245 L279.8906,245 L279.8906,232.6094 L287.6094,232.6094 L287.6094,234.7656 L282.3438,234.7656 L282.3438,237.4375 L287.1094,237.4375 L287.1094,239.5938 L282.3438,239.5938 L282.3438,242.8438 L287.6094,242.8438 L287.6094,245 Z " fill="#000000"/><text fill="#000000" font-family="sans-serif" font-size="12" lengthAdjust="spacingAndGlyphs" textLength="32" x="297.5" y="243.1543">rarity</text><line style="stroke:#A80036;stroke-width:1.5;" x1="269.5" x2="331.5" y1="255" y2="255"/><line style="stroke:#A80036;stroke-width:1.5;" x1="269.5" x2="331.5" y1="263" y2="263"/><!--MD5=[36b0e245bf430e2a9a71d9dcae4d8422]
class set--><rect codeLine="9" fill="#FEFECE" filter="url(#f1kuq8gwch174v)" height="48" id="set" style="stroke:#A80036;stroke-width:1.5;" width="52" x="194.5" y="7"/><ellipse cx="209.5" cy="23" fill="#ADD1B2" rx="11" ry="11" style="stroke:#A80036;stroke-width:1.0;"/><path d="M213.6094,29 L205.8906,29 L205.8906,16.6094 L213.6094,16.6094 L213.6094,18.7656 L208.3438,18.7656 L208.3438,21.4375 L213.1094,21.4375 L213.1094,23.5938 L208.3438,23.5938 L208.3438,26.8438 L213.6094,26.8438 L213.6094,29 Z " fill="#000000"/><text fill="#000000" font-family="sans-serif" font-size="12" lengthAdjust="spacingAndGlyphs" textLength="20" x="223.5" y="27.1543">set</text><line style="stroke:#A80036;stroke-width:1.5;" x1="195.5" x2="245.5" y1="39" y2="39"/><line style="stroke:#A80036;stroke-width:1.5;" x1="195.5" x2="245.5" y1="47" y2="47"/><!--MD5=[00f394106ca67837340883460b0fa24d]
class trainer_card--><rect codeLine="10" fill="#FEFECE" filter="url(#f1kuq8gwch174v)" height="48" id="trainer_card" style="stroke:#A80036;stroke-width:1.5;" width="108" x="315.5" y="115"/><ellipse cx="330.5" cy="131" fill="#ADD1B2" rx="11" ry="11" style="stroke:#A80036;stroke-width:1.0;"/><path d="M334.6094,137 L326.8906,137 L326.8906,124.6094 L334.6094,124.6094 L334.6094,126.7656 L329.3438,126.7656 L329.3438,129.4375 L334.1094,129.4375 L334.1094,131.5938 L329.3438,131.5938 L329.3438,134.8438 L334.6094,134.8438 L334.6094,137 Z " fill="#000000"/><text fill="#000000" font-family="sans-serif" font-size="12" lengthAdjust="spacingAndGlyphs" textLength="76" x="344.5" y="135.1543">trainer_card</text><line style="stroke:#A80036;stroke-width:1.5;" x1="316.5" x2="422.5" y1="147" y2="147"/><line style="stroke:#A80036;stroke-width:1.5;" x1="316.5" x2="422.5" y1="155" y2="155"/><!--MD5=[27e337e55ad5f76356bb64249c29ac7b]
class trainer_card_type--><rect codeLine="11" fill="#FEFECE" filter="url(#f1kuq8gwch174v)" height="48" id="trainer_card_type" style="stroke:#A80036;stroke-width:1.5;" width="141" x="368" y="223"/><ellipse cx="383" cy="239" fill="#ADD1B2" rx="11" ry="11" style="stroke:#A80036;stroke-width:1.0;"/><path d="M387.1094,245 L379.3906,245 L379.3906,232.6094 L387.1094,232.6094 L387.1094,234.7656 L381.8438,234.7656 L381.8438,237.4375 L386.6094,237.4375 L386.6094,239.5938 L381.8438,239.5938 L381.8438,242.8438 L387.1094,242.8438 L387.1094,245 Z " fill="#000000"/><text fill="#000000" font-family="sans-serif" font-size="12" lengthAdjust="spacingAndGlyphs" textLength="109" x="397" y="243.1543">trainer_card_type</text><line style="stroke:#A80036;stroke-width:1.5;" x1="369" x2="508" y1="255" y2="255"/><line style="stroke:#A80036;stroke-width:1.5;" x1="369" x2="508" y1="263" y2="263"/><!--MD5=[65d09fc9463805e3a3a2e0a4dabebef1]
class trainer_category--><rect codeLine="12" fill="#FEFECE" filter="url(#f1kuq8gwch174v)" height="48" id="trainer_category" style="stroke:#A80036;stroke-width:1.5;" width="135" x="544" y="223"/><ellipse cx="559" cy="239" fill="#ADD1B2" rx="11" ry="11" style="stroke:#A80036;stroke-width:1.0;"/><path d="M563.1094,245 L555.3906,245 L555.3906,232.6094 L563.1094,232.6094 L563.1094,234.7656 L557.8438,234.7656 L557.8438,237.4375 L562.6094,237.4375 L562.6094,239.5938 L557.8438,239.5938 L557.8438,242.8438 L563.1094,242.8438 L563.1094,245 Z " fill="#000000"/><text fill="#000000" font-family="sans-serif" font-size="12" lengthAdjust="spacingAndGlyphs" textLength="103" x="573" y="243.1543">trainer_category</text><line style="stroke:#A80036;stroke-width:1.5;" x1="545" x2="678" y1="255" y2="255"/><line style="stroke:#A80036;stroke-width:1.5;" x1="545" x2="678" y1="263" y2="263"/><!--MD5=[a002cd366aced757618f3dbdf19ea6ae]
link action to trainer_card--><path codeLine="14" d="M484.95,59.05 C461.79,74.89 432.63,94.83 409.41,110.71 " fill="none" id="action-trainer_card" style="stroke:#A80036;stroke-width:1.0;stroke-dasharray:7.0,7.0;"/><line style="stroke:#A80036;stroke-width:1.0;" x1="408.891" x2="404.3671" y1="115.8971" y2="109.299"/><line style="stroke:#A80036;stroke-width:1.0;" x1="411.3652" x2="406.8413" y1="114.2006" y2="107.6026"/><line style="stroke:#A80036;stroke-width:1.0;" x1="409.928" x2="403.33" y1="110.3361" y2="114.86"/><line style="stroke:#A80036;stroke-width:1.0;" x1="485.3108" x2="489.8236" y1="53.9536" y2="60.5592"/><line style="stroke:#A80036;stroke-width:1.0;" x1="482.8337" x2="487.3464" y1="55.6459" y2="62.2515"/><line style="stroke:#A80036;stroke-width:1.0;" x1="484.2643" x2="490.87" y1="59.5128" y2="55"/><!--MD5=[d0958699bdbb96aefceca9db15a7c18d]
link artist to trainer_card--><path codeLine="15" d="M407.05,61.46 C399.9,76.03 391.29,93.57 384.12,108.19 " fill="none" id="artist-trainer_card" style="stroke:#A80036;stroke-width:1.0;stroke-dasharray:7.0,7.0;"/><line style="stroke:#A80036;stroke-width:1.0;" x1="386.2934" x2="379.112" y1="112.852" y2="109.3266"/><line style="stroke:#A80036;stroke-width:1.0;" x1="387.6154" x2="380.434" y1="110.159" y2="106.6336"/><line style="stroke:#A80036;stroke-width:1.0;" x1="384.4654" x2="380.94" y1="107.4987" y2="114.68"/><line style="stroke:#A80036;stroke-width:1.0;" x1="404.87" x2="412.0578" y1="56.8378" y2="60.35"/><line style="stroke:#A80036;stroke-width:1.0;" x1="403.5529" x2="410.7407" y1="59.5332" y2="63.0454"/><line style="stroke:#A80036;stroke-width:1.0;" x1="406.7078" x2="410.22" y1="62.1878" y2="55"/><!--MD5=[7dae38db60cb57f1befe6c18daeb5d80]
link attack to trainer_card--><path codeLine="16" d="M331.95,61.46 C339.1,76.03 347.71,93.57 354.88,108.19 " fill="none" id="attack-trainer_card" style="stroke:#A80036;stroke-width:1.0;stroke-dasharray:7.0,7.0;"/><line style="stroke:#A80036;stroke-width:1.0;" x1="359.888" x2="352.7066" y1="109.3266" y2="112.852"/><line style="stroke:#A80036;stroke-width:1.0;" x1="358.566" x2="351.3846" y1="106.6336" y2="110.159"/><line style="stroke:#A80036;stroke-width:1.0;" x1="354.5346" x2="358.06" y1="107.4987" y2="114.68"/><line style="stroke:#A80036;stroke-width:1.0;" x1="326.9422" x2="334.13" y1="60.35" y2="56.8378"/><line style="stroke:#A80036;stroke-width:1.0;" x1="328.2593" x2="335.4471" y1="63.0454" y2="59.5332"/><line style="stroke:#A80036;stroke-width:1.0;" x1="332.2922" x2="328.78" y1="62.1878" y2="55"/><!--MD5=[a727d387118be0b7c9feea1d78bd14c0]
link extended_attributes_special_pokemon to trainer_card--><path codeLine="17" d="M287.41,139 C294.2,139 301,139 307.79,139 " fill="none" id="extended_attributes_special_pokemon-trainer_card" style="stroke:#A80036;stroke-width:1.0;stroke-dasharray:7.0,7.0;"/><line style="stroke:#A80036;stroke-width:1.0;" x1="311.17" x2="311.17" y1="135" y2="143"/><line style="stroke:#A80036;stroke-width:1.0;" x1="308.17" x2="308.17" y1="135" y2="143"/><line style="stroke:#A80036;stroke-width:1.0;" x1="307.17" x2="315.17" y1="139" y2="139"/><line style="stroke:#A80036;stroke-width:1.0;" x1="284.34" x2="284.34" y1="143" y2="135"/><line style="stroke:#A80036;stroke-width:1.0;" x1="287.34" x2="287.34" y1="143" y2="135"/><line style="stroke:#A80036;stroke-width:1.0;" x1="288.34" x2="280.34" y1="139" y2="139"/><!--MD5=[8699e4c9fe2086c986d44ae8b9dd295d]
link trainer_card to extended_attributes_special_pokemon_type--><path codeLine="18" d="M431.12,139 C437.78,139 444.43,139 451.09,139 " fill="none" id="trainer_card-extended_attributes_special_pokemon_type" style="stroke:#A80036;stroke-width:1.0;stroke-dasharray:7.0,7.0;"/><line style="stroke:#A80036;stroke-width:1.0;" x1="454.31" x2="454.31" y1="135" y2="143"/><line style="stroke:#A80036;stroke-width:1.0;" x1="451.31" x2="451.31" y1="135" y2="143"/><line style="stroke:#A80036;stroke-width:1.0;" x1="450.31" x2="458.31" y1="139" y2="139"/><line style="stroke:#A80036;stroke-width:1.0;" x1="427.86" x2="427.86" y1="143" y2="135"/><line style="stroke:#A80036;stroke-width:1.0;" x1="430.86" x2="430.86" y1="143" y2="135"/><line style="stroke:#A80036;stroke-width:1.0;" x1="431.86" x2="423.86" y1="139" y2="139"/><!--MD5=[0696cc8e1af702bb4624c910d1b72a5a]
link trainer_card to rarity--><path codeLine="19" d="M350.61,169.01 C341,183.78 329.34,201.7 319.68,216.53 " fill="none" id="trainer_card-rarity" style="stroke:#A80036;stroke-width:1.0;stroke-dasharray:7.0,7.0;"/><line style="stroke:#A80036;stroke-width:1.0;" x1="321.2147" x2="314.5109" y1="221.5109" y2="217.1453"/><line style="stroke:#A80036;stroke-width:1.0;" x1="322.8519" x2="316.148" y1="218.997" y2="214.6313"/><line style="stroke:#A80036;stroke-width:1.0;" x1="320.0457" x2="315.68" y1="215.9762" y2="222.68"/><line style="stroke:#A80036;stroke-width:1.0;" x1="348.9953" x2="355.6991" y1="164.1691" y2="168.5347"/><line style="stroke:#A80036;stroke-width:1.0;" x1="347.3581" x2="354.062" y1="166.683" y2="171.0487"/><line style="stroke:#A80036;stroke-width:1.0;" x1="350.1643" x2="354.53" y1="169.7038" y2="163"/><!--MD5=[97e1f923f12353435d6169fdfedbcea3]
link set to trainer_card--><path codeLine="20" d="M252.6,54.83 C275.67,71.25 306.88,93.45 331.25,110.79 " fill="none" id="set-trainer_card" style="stroke:#A80036;stroke-width:1.0;stroke-dasharray:7.0,7.0;"/><line style="stroke:#A80036;stroke-width:1.0;" x1="336.0242" x2="331.3928" y1="109.2828" y2="115.8058"/><line style="stroke:#A80036;stroke-width:1.0;" x1="333.578" x2="328.9466" y1="107.546" y2="114.0691"/><line style="stroke:#A80036;stroke-width:1.0;" x1="330.4469" x2="336.97" y1="110.2286" y2="114.86"/><line style="stroke:#A80036;stroke-width:1.0;" x1="247.7393" x2="252.3783" y1="56.2883" y2="49.7707"/><line style="stroke:#A80036;stroke-width:1.0;" x1="250.1833" x2="254.8224" y1="58.028" y2="51.5104"/><line style="stroke:#A80036;stroke-width:1.0;" x1="253.3176" x2="246.8" y1="55.3491" y2="50.71"/><!--MD5=[e0ee911e2c7fb5e796da71ae4b70b548]
link trainer_card to trainer_card_type--><path codeLine="21" d="M388.39,169.01 C398,183.78 409.66,201.7 419.32,216.53 " fill="none" id="trainer_card-trainer_card_type" style="stroke:#A80036;stroke-width:1.0;stroke-dasharray:7.0,7.0;"/><line style="stroke:#A80036;stroke-width:1.0;" x1="424.4891" x2="417.7853" y1="217.1453" y2="221.5109"/><line style="stroke:#A80036;stroke-width:1.0;" x1="422.852" x2="416.1481" y1="214.6313" y2="218.997"/><line style="stroke:#A80036;stroke-width:1.0;" x1="418.9543" x2="423.32" y1="215.9762" y2="222.68"/><line style="stroke:#A80036;stroke-width:1.0;" x1="383.3009" x2="390.0047" y1="168.5347" y2="164.1691"/><line style="stroke:#A80036;stroke-width:1.0;" x1="384.938" x2="391.6419" y1="171.0487" y2="166.683"/><line style="stroke:#A80036;stroke-width:1.0;" x1="388.8357" x2="384.47" y1="169.7038" y2="163"/><!--MD5=[7a958effd89f627988292443af3a019f]
link trainer_card to trainer_category--><path codeLine="22" d="M428.78,165.97 C466.18,182.35 514.33,203.44 551.81,219.85 " fill="none" id="trainer_card-trainer_category" style="stroke:#A80036;stroke-width:1.0;stroke-dasharray:7.0,7.0;"/><line style="stroke:#A80036;stroke-width:1.0;" x1="556.6142" x2="553.3999" y1="217.5899" y2="224.9158"/><line style="stroke:#A80036;stroke-width:1.0;" x1="553.867" x2="550.6527" y1="216.3846" y2="223.7105"/><line style="stroke:#A80036;stroke-width:1.0;" x1="551.3441" x2="558.67" y1="219.6457" y2="222.86"/><line style="stroke:#A80036;stroke-width:1.0;" x1="424.0658" x2="427.2801" y1="168.2701" y2="160.9442"/><line style="stroke:#A80036;stroke-width:1.0;" x1="426.813" x2="430.0273" y1="169.4754" y2="162.1495"/><line style="stroke:#A80036;stroke-width:1.0;" x1="429.3359" x2="422.01" y1="166.2143" y2="163"/><!--MD5=[0a60abca816a7ea137caf64c9a61beae]
link trainer_card to card_rule--><path codeLine="23" d="M324.05,166.61 C296.57,182.71 261.64,203.17 234.12,219.28 " fill="none" id="trainer_card-card_rule" style="stroke:#A80036;stroke-width:1.0;stroke-dasharray:7.0,7.0;"/><line style="stroke:#A80036;stroke-width:1.0;" x1="233.4838" x2="229.4376" y1="224.2876" y2="217.3862"/><line style="stroke:#A80036;stroke-width:1.0;" x1="236.0718" x2="232.0256" y1="222.7703" y2="215.8689"/><line style="stroke:#A80036;stroke-width:1.0;" x1="234.9113" x2="228.01" y1="218.8138" y2="222.86"/><line style="stroke:#A80036;stroke-width:1.0;" x1="324.7588" x2="328.7928" y1="161.5628" y2="168.4712"/><line style="stroke:#A80036;stroke-width:1.0;" x1="322.1681" x2="326.2021" y1="163.0755" y2="169.984"/><line style="stroke:#A80036;stroke-width:1.0;" x1="323.3215" x2="330.23" y1="167.034" y2="163"/><!--MD5=[ca34b6497e25ca13602090618f0dee42]
@startuml trainer-card-relationships

entity "action" as action {}
entity "artist" as artist {}
entity "attack" as attack {}
entity "card_rule" as card_rule {}
entity "extended_attributes_special_pokemon" as extended_attributes_special_pokemon {}
entity "extended_attributes_special_pokemon_type" as extended_attributes_special_pokemon_type {}
entity "rarity" as rarity {}
entity "set" as set {}
entity "trainer_card" as trainer_card {}
entity "trainer_card_type" as trainer_card_type {}
entity "trainer_category" as trainer_category {}

trainer_card ||..up|| action
trainer_card ||..up|| artist
trainer_card ||..up|| attack 
trainer_card ||..left|| extended_attributes_special_pokemon
trainer_card ||..right|| extended_attributes_special_pokemon_type
trainer_card ||..|| rarity
trainer_card ||..up|| set
trainer_card ||..|| trainer_card_type
trainer_card ||..|| trainer_category
trainer_card ||..|| card_rule

@enduml

PlantUML version 1.2020.22(Sun Dec 06 09:36:27 GMT 2020)
(GPL source distribution)
Java Runtime: OpenJDK Runtime Environment
JVM: OpenJDK 64-Bit Server VM
Default Encoding: UTF-8
Language: en
Country: GB
--></g></svg>