<?xml version="1.0" encoding="UTF-8" standalone="no"?><svg xmlns="http://www.w3.org/2000/svg" xmlns:xlink="http://www.w3.org/1999/xlink" contentScriptType="application/ecmascript" contentStyleType="text/css" height="285px" preserveAspectRatio="none" style="width:850px;height:285px;" version="1.1" viewBox="0 0 850 285" width="850px" zoomAndPan="magnify"><defs><filter height="300%" id="f1t6wbqd5ne2q4" width="300%" x="-1" y="-1"><feGaussianBlur result="blurOut" stdDeviation="2.0"/><feColorMatrix in="blurOut" result="blurOut2" type="matrix" values="0 0 0 0 0 0 0 0 0 0 0 0 0 0 0 0 0 0 .4 0"/><feOffset dx="4.0" dy="4.0" in="blurOut2" result="blurOut3"/><feBlend in="SourceGraphic" in2="blurOut3" mode="normal"/></filter></defs><g><!--MD5=[1b0c078f5d796f81d685886800b19f1a]
class action--><rect codeLine="2" fill="#FEFECE" filter="url(#f1t6wbqd5ne2q4)" height="48" id="action" style="stroke:#A80036;stroke-width:1.5;" width="71" x="512.5" y="7"/><ellipse cx="527.5" cy="23" fill="#ADD1B2" rx="11" ry="11" style="stroke:#A80036;stroke-width:1.0;"/><path d="M531.6094,29 L523.8906,29 L523.8906,16.6094 L531.6094,16.6094 L531.6094,18.7656 L526.3438,18.7656 L526.3438,21.4375 L531.1094,21.4375 L531.1094,23.5938 L526.3438,23.5938 L526.3438,26.8438 L531.6094,26.8438 L531.6094,29 Z " fill="#000000"/><text fill="#000000" font-family="sans-serif" font-size="12" lengthAdjust="spacingAndGlyphs" textLength="39" x="541.5" y="27.1543">action</text><line style="stroke:#A80036;stroke-width:1.5;" x1="513.5" x2="582.5" y1="39" y2="39"/><line style="stroke:#A80036;stroke-width:1.5;" x1="513.5" x2="582.5" y1="47" y2="47"/><!--MD5=[e496c8ccb40abcb9b4f840cac8f8d9f4]
class artist--><rect codeLine="3" fill="#FEFECE" filter="url(#f1t6wbqd5ne2q4)" height="48" id="artist" style="stroke:#A80036;stroke-width:1.5;" width="65" x="412.5" y="7"/><ellipse cx="427.5" cy="23" fill="#ADD1B2" rx="11" ry="11" style="stroke:#A80036;stroke-width:1.0;"/><path d="M431.6094,29 L423.8906,29 L423.8906,16.6094 L431.6094,16.6094 L431.6094,18.7656 L426.3438,18.7656 L426.3438,21.4375 L431.1094,21.4375 L431.1094,23.5938 L426.3438,23.5938 L426.3438,26.8438 L431.6094,26.8438 L431.6094,29 Z " fill="#000000"/><text fill="#000000" font-family="sans-serif" font-size="12" lengthAdjust="spacingAndGlyphs" textLength="33" x="441.5" y="27.1543">artist</text><line style="stroke:#A80036;stroke-width:1.5;" x1="413.5" x2="476.5" y1="39" y2="39"/><line style="stroke:#A80036;stroke-width:1.5;" x1="413.5" x2="476.5" y1="47" y2="47"/><!--MD5=[73f50bc9beaa78259082f568f5749b58]
class attack--><rect codeLine="4" fill="#FEFECE" filter="url(#f1t6wbqd5ne2q4)" height="48" id="attack" style="stroke:#A80036;stroke-width:1.5;" width="72" x="305" y="7"/><ellipse cx="320" cy="23" fill="#ADD1B2" rx="11" ry="11" style="stroke:#A80036;stroke-width:1.0;"/><path d="M324.1094,29 L316.3906,29 L316.3906,16.6094 L324.1094,16.6094 L324.1094,18.7656 L318.8438,18.7656 L318.8438,21.4375 L323.6094,21.4375 L323.6094,23.5938 L318.8438,23.5938 L318.8438,26.8438 L324.1094,26.8438 L324.1094,29 Z " fill="#000000"/><text fill="#000000" font-family="sans-serif" font-size="12" lengthAdjust="spacingAndGlyphs" textLength="40" x="334" y="27.1543">attack</text><line style="stroke:#A80036;stroke-width:1.5;" x1="306" x2="376" y1="39" y2="39"/><line style="stroke:#A80036;stroke-width:1.5;" x1="306" x2="376" y1="47" y2="47"/><!--MD5=[21acb44298740fecc380669d05e1f2c6]
class card_rule--><rect codeLine="5" fill="#FEFECE" filter="url(#f1t6wbqd5ne2q4)" height="48" id="card_rule" style="stroke:#A80036;stroke-width:1.5;" width="90" x="7" y="223"/><ellipse cx="22" cy="239" fill="#ADD1B2" rx="11" ry="11" style="stroke:#A80036;stroke-width:1.0;"/><path d="M26.1094,245 L18.3906,245 L18.3906,232.6094 L26.1094,232.6094 L26.1094,234.7656 L20.8438,234.7656 L20.8438,237.4375 L25.6094,237.4375 L25.6094,239.5938 L20.8438,239.5938 L20.8438,242.8438 L26.1094,242.8438 L26.1094,245 Z " fill="#000000"/><text fill="#000000" font-family="sans-serif" font-size="12" lengthAdjust="spacingAndGlyphs" textLength="58" x="36" y="243.1543">card_rule</text><line style="stroke:#A80036;stroke-width:1.5;" x1="8" x2="96" y1="255" y2="255"/><line style="stroke:#A80036;stroke-width:1.5;" x1="8" x2="96" y1="263" y2="263"/><!--MD5=[36fef931eaaaa86bf05843aa429d17ea]
class extended_attributes_core--><rect codeLine="6" fill="#FEFECE" filter="url(#f1t6wbqd5ne2q4)" height="48" id="extended_attributes_core" style="stroke:#A80036;stroke-width:1.5;" width="193" x="132.5" y="223"/><ellipse cx="147.5" cy="239" fill="#ADD1B2" rx="11" ry="11" style="stroke:#A80036;stroke-width:1.0;"/><path d="M151.6094,245 L143.8906,245 L143.8906,232.6094 L151.6094,232.6094 L151.6094,234.7656 L146.3438,234.7656 L146.3438,237.4375 L151.1094,237.4375 L151.1094,239.5938 L146.3438,239.5938 L146.3438,242.8438 L151.6094,242.8438 L151.6094,245 Z " fill="#000000"/><text fill="#000000" font-family="sans-serif" font-size="12" lengthAdjust="spacingAndGlyphs" textLength="161" x="161.5" y="243.1543">extended_attributes_core</text><line style="stroke:#A80036;stroke-width:1.5;" x1="133.5" x2="324.5" y1="255" y2="255"/><line style="stroke:#A80036;stroke-width:1.5;" x1="133.5" x2="324.5" y1="263" y2="263"/><!--MD5=[de3056f63fe13fdcdcfe459f38f4258e]
class extended_attributes_special_pokemon_type_lookup--><rect codeLine="7" fill="#FEFECE" filter="url(#f1t6wbqd5ne2q4)" height="48" id="extended_attributes_special_pokemon_type_lookup" style="stroke:#A80036;stroke-width:1.5;" width="354" x="482" y="115"/><ellipse cx="497" cy="131" fill="#ADD1B2" rx="11" ry="11" style="stroke:#A80036;stroke-width:1.0;"/><path d="M501.1094,137 L493.3906,137 L493.3906,124.6094 L501.1094,124.6094 L501.1094,126.7656 L495.8438,126.7656 L495.8438,129.4375 L500.6094,129.4375 L500.6094,131.5938 L495.8438,131.5938 L495.8438,134.8438 L501.1094,134.8438 L501.1094,137 Z " fill="#000000"/><text fill="#000000" font-family="sans-serif" font-size="12" lengthAdjust="spacingAndGlyphs" textLength="322" x="511" y="135.1543">extended_attributes_special_pokemon_type_lookup</text><line style="stroke:#A80036;stroke-width:1.5;" x1="483" x2="835" y1="147" y2="147"/><line style="stroke:#A80036;stroke-width:1.5;" x1="483" x2="835" y1="155" y2="155"/><!--MD5=[0226e7a91aa78cb2dba1b9ba67fa7cec]
class rarity--><rect codeLine="8" fill="#FEFECE" filter="url(#f1t6wbqd5ne2q4)" height="48" id="rarity" style="stroke:#A80036;stroke-width:1.5;" width="64" x="361" y="223"/><ellipse cx="376" cy="239" fill="#ADD1B2" rx="11" ry="11" style="stroke:#A80036;stroke-width:1.0;"/><path d="M380.1094,245 L372.3906,245 L372.3906,232.6094 L380.1094,232.6094 L380.1094,234.7656 L374.8438,234.7656 L374.8438,237.4375 L379.6094,237.4375 L379.6094,239.5938 L374.8438,239.5938 L374.8438,242.8438 L380.1094,242.8438 L380.1094,245 Z " fill="#000000"/><text fill="#000000" font-family="sans-serif" font-size="12" lengthAdjust="spacingAndGlyphs" textLength="32" x="390" y="243.1543">rarity</text><line style="stroke:#A80036;stroke-width:1.5;" x1="362" x2="424" y1="255" y2="255"/><line style="stroke:#A80036;stroke-width:1.5;" x1="362" x2="424" y1="263" y2="263"/><!--MD5=[36b0e245bf430e2a9a71d9dcae4d8422]
class set--><rect codeLine="9" fill="#FEFECE" filter="url(#f1t6wbqd5ne2q4)" height="48" id="set" style="stroke:#A80036;stroke-width:1.5;" width="52" x="218" y="7"/><ellipse cx="233" cy="23" fill="#ADD1B2" rx="11" ry="11" style="stroke:#A80036;stroke-width:1.0;"/><path d="M237.1094,29 L229.3906,29 L229.3906,16.6094 L237.1094,16.6094 L237.1094,18.7656 L231.8438,18.7656 L231.8438,21.4375 L236.6094,21.4375 L236.6094,23.5938 L231.8438,23.5938 L231.8438,26.8438 L237.1094,26.8438 L237.1094,29 Z " fill="#000000"/><text fill="#000000" font-family="sans-serif" font-size="12" lengthAdjust="spacingAndGlyphs" textLength="20" x="247" y="27.1543">set</text><line style="stroke:#A80036;stroke-width:1.5;" x1="219" x2="269" y1="39" y2="39"/><line style="stroke:#A80036;stroke-width:1.5;" x1="219" x2="269" y1="47" y2="47"/><!--MD5=[00f394106ca67837340883460b0fa24d]
class trainer_card--><rect codeLine="10" fill="#FEFECE" filter="url(#f1t6wbqd5ne2q4)" height="48" id="trainer_card" style="stroke:#A80036;stroke-width:1.5;" width="108" x="339" y="115"/><ellipse cx="354" cy="131" fill="#ADD1B2" rx="11" ry="11" style="stroke:#A80036;stroke-width:1.0;"/><path d="M358.1094,137 L350.3906,137 L350.3906,124.6094 L358.1094,124.6094 L358.1094,126.7656 L352.8438,126.7656 L352.8438,129.4375 L357.6094,129.4375 L357.6094,131.5938 L352.8438,131.5938 L352.8438,134.8438 L358.1094,134.8438 L358.1094,137 Z " fill="#000000"/><text fill="#000000" font-family="sans-serif" font-size="12" lengthAdjust="spacingAndGlyphs" textLength="76" x="368" y="135.1543">trainer_card</text><line style="stroke:#A80036;stroke-width:1.5;" x1="340" x2="446" y1="147" y2="147"/><line style="stroke:#A80036;stroke-width:1.5;" x1="340" x2="446" y1="155" y2="155"/><!--MD5=[27e337e55ad5f76356bb64249c29ac7b]
class trainer_card_type--><rect codeLine="11" fill="#FEFECE" filter="url(#f1t6wbqd5ne2q4)" height="48" id="trainer_card_type" style="stroke:#A80036;stroke-width:1.5;" width="141" x="460.5" y="223"/><ellipse cx="475.5" cy="239" fill="#ADD1B2" rx="11" ry="11" style="stroke:#A80036;stroke-width:1.0;"/><path d="M479.6094,245 L471.8906,245 L471.8906,232.6094 L479.6094,232.6094 L479.6094,234.7656 L474.3438,234.7656 L474.3438,237.4375 L479.1094,237.4375 L479.1094,239.5938 L474.3438,239.5938 L474.3438,242.8438 L479.6094,242.8438 L479.6094,245 Z " fill="#000000"/><text fill="#000000" font-family="sans-serif" font-size="12" lengthAdjust="spacingAndGlyphs" textLength="109" x="489.5" y="243.1543">trainer_card_type</text><line style="stroke:#A80036;stroke-width:1.5;" x1="461.5" x2="600.5" y1="255" y2="255"/><line style="stroke:#A80036;stroke-width:1.5;" x1="461.5" x2="600.5" y1="263" y2="263"/><!--MD5=[65d09fc9463805e3a3a2e0a4dabebef1]
class trainer_category--><rect codeLine="12" fill="#FEFECE" filter="url(#f1t6wbqd5ne2q4)" height="48" id="trainer_category" style="stroke:#A80036;stroke-width:1.5;" width="135" x="636.5" y="223"/><ellipse cx="651.5" cy="239" fill="#ADD1B2" rx="11" ry="11" style="stroke:#A80036;stroke-width:1.0;"/><path d="M655.6094,245 L647.8906,245 L647.8906,232.6094 L655.6094,232.6094 L655.6094,234.7656 L650.3438,234.7656 L650.3438,237.4375 L655.1094,237.4375 L655.1094,239.5938 L650.3438,239.5938 L650.3438,242.8438 L655.6094,242.8438 L655.6094,245 Z " fill="#000000"/><text fill="#000000" font-family="sans-serif" font-size="12" lengthAdjust="spacingAndGlyphs" textLength="103" x="665.5" y="243.1543">trainer_category</text><line style="stroke:#A80036;stroke-width:1.5;" x1="637.5" x2="770.5" y1="255" y2="255"/><line style="stroke:#A80036;stroke-width:1.5;" x1="637.5" x2="770.5" y1="263" y2="263"/><!--MD5=[a002cd366aced757618f3dbdf19ea6ae]
link action to trainer_card--><path codeLine="14" d="M508.45,59.05 C485.29,74.89 456.13,94.83 432.91,110.71 " fill="none" id="action-trainer_card" style="stroke:#A80036;stroke-width:1.0;stroke-dasharray:7.0,7.0;"/><line style="stroke:#A80036;stroke-width:1.0;" x1="432.391" x2="427.8671" y1="115.8971" y2="109.299"/><line style="stroke:#A80036;stroke-width:1.0;" x1="434.8652" x2="430.3413" y1="114.2006" y2="107.6026"/><line style="stroke:#A80036;stroke-width:1.0;" x1="433.428" x2="426.83" y1="110.3361" y2="114.86"/><line style="stroke:#A80036;stroke-width:1.0;" x1="508.8108" x2="513.3236" y1="53.9536" y2="60.5592"/><line style="stroke:#A80036;stroke-width:1.0;" x1="506.3337" x2="510.8464" y1="55.6459" y2="62.2515"/><line style="stroke:#A80036;stroke-width:1.0;" x1="507.7643" x2="514.37" y1="59.5128" y2="55"/><!--MD5=[d0958699bdbb96aefceca9db15a7c18d]
link artist to trainer_card--><path codeLine="15" d="M430.55,61.46 C423.4,76.03 414.79,93.57 407.62,108.19 " fill="none" id="artist-trainer_card" style="stroke:#A80036;stroke-width:1.0;stroke-dasharray:7.0,7.0;"/><line style="stroke:#A80036;stroke-width:1.0;" x1="409.7934" x2="402.612" y1="112.852" y2="109.3266"/><line style="stroke:#A80036;stroke-width:1.0;" x1="411.1154" x2="403.934" y1="110.159" y2="106.6336"/><line style="stroke:#A80036;stroke-width:1.0;" x1="407.9654" x2="404.44" y1="107.4987" y2="114.68"/><line style="stroke:#A80036;stroke-width:1.0;" x1="428.37" x2="435.5578" y1="56.8378" y2="60.35"/><line style="stroke:#A80036;stroke-width:1.0;" x1="427.0529" x2="434.2407" y1="59.5332" y2="63.0454"/><line style="stroke:#A80036;stroke-width:1.0;" x1="430.2078" x2="433.72" y1="62.1878" y2="55"/><!--MD5=[7dae38db60cb57f1befe6c18daeb5d80]
link attack to trainer_card--><path codeLine="16" d="M355.45,61.46 C362.6,76.03 371.21,93.57 378.38,108.19 " fill="none" id="attack-trainer_card" style="stroke:#A80036;stroke-width:1.0;stroke-dasharray:7.0,7.0;"/><line style="stroke:#A80036;stroke-width:1.0;" x1="383.388" x2="376.2066" y1="109.3266" y2="112.852"/><line style="stroke:#A80036;stroke-width:1.0;" x1="382.066" x2="374.8846" y1="106.6336" y2="110.159"/><line style="stroke:#A80036;stroke-width:1.0;" x1="378.0346" x2="381.56" y1="107.4987" y2="114.68"/><line style="stroke:#A80036;stroke-width:1.0;" x1="350.4422" x2="357.63" y1="60.35" y2="56.8378"/><line style="stroke:#A80036;stroke-width:1.0;" x1="351.7593" x2="358.9471" y1="63.0454" y2="59.5332"/><line style="stroke:#A80036;stroke-width:1.0;" x1="355.7922" x2="352.28" y1="62.1878" y2="55"/><!--MD5=[28fba2852242d5e16ecd46ca3d5f6f6e]
link trainer_card to extended_attributes_core--><path codeLine="17" d="M350.47,167.49 C326.27,183.13 296.04,202.67 271.79,218.34 " fill="none" id="trainer_card-extended_attributes_core" style="stroke:#A80036;stroke-width:1.0;stroke-dasharray:7.0,7.0;"/><line style="stroke:#A80036;stroke-width:1.0;" x1="271.5173" x2="268.0586" y1="218.5152" y2="227.898"/><line style="stroke:#A80036;stroke-width:1.0;" x1="271.5173" x2="261.5414" y1="218.5152" y2="217.822"/><line style="stroke:#A80036;stroke-width:1.0;" x1="271.5173" x2="264.8" y1="218.5152" y2="222.86"/><line style="stroke:#A80036;stroke-width:1.0;" x1="275.3691" x2="271.0242" y1="220.7876" y2="214.0703"/><line style="stroke:#A80036;stroke-width:1.0;" x1="351.8789" x2="356.2237" y1="161.8137" y2="168.5311"/><line style="stroke:#A80036;stroke-width:1.0;" x1="349.3599" x2="353.7048" y1="163.4431" y2="170.1604"/><line style="stroke:#A80036;stroke-width:1.0;" x1="350.6927" x2="357.41" y1="167.3448" y2="163"/><!--MD5=[c643aff730ec94c461f228ef45e4a779]
link trainer_card to extended_attributes_special_pokemon_type_lookup--><path codeLine="18" d="M454.1,139 C460.88,139 467.66,139 474.45,139 " fill="none" id="trainer_card-extended_attributes_special_pokemon_type_lookup" style="stroke:#A80036;stroke-width:1.0;stroke-dasharray:7.0,7.0;"/><line style="stroke:#A80036;stroke-width:1.0;" x1="477.81" x2="477.81" y1="135" y2="143"/><line style="stroke:#A80036;stroke-width:1.0;" x1="474.81" x2="474.81" y1="135" y2="143"/><line style="stroke:#A80036;stroke-width:1.0;" x1="473.81" x2="481.81" y1="139" y2="139"/><line style="stroke:#A80036;stroke-width:1.0;" x1="451.03" x2="451.03" y1="143" y2="135"/><line style="stroke:#A80036;stroke-width:1.0;" x1="454.03" x2="454.03" y1="143" y2="135"/><line style="stroke:#A80036;stroke-width:1.0;" x1="455.03" x2="447.03" y1="139" y2="139"/><!--MD5=[0696cc8e1af702bb4624c910d1b72a5a]
link trainer_card to rarity--><path codeLine="19" d="M393,170.36 C393,184.52 393,201.35 393,215.53 " fill="none" id="trainer_card-rarity" style="stroke:#A80036;stroke-width:1.0;stroke-dasharray:7.0,7.0;"/><line style="stroke:#A80036;stroke-width:1.0;" x1="397" x2="389" y1="218.68" y2="218.68"/><line style="stroke:#A80036;stroke-width:1.0;" x1="397" x2="389" y1="215.68" y2="215.68"/><line style="stroke:#A80036;stroke-width:1.0;" x1="393" x2="393" y1="214.68" y2="222.68"/><line style="stroke:#A80036;stroke-width:1.0;" x1="389" x2="397" y1="167" y2="167"/><line style="stroke:#A80036;stroke-width:1.0;" x1="389" x2="397" y1="170" y2="170"/><line style="stroke:#A80036;stroke-width:1.0;" x1="393" x2="393" y1="171" y2="163"/><!--MD5=[97e1f923f12353435d6169fdfedbcea3]
link set to trainer_card--><path codeLine="20" d="M276.1,54.83 C299.17,71.25 330.38,93.45 354.75,110.79 " fill="none" id="set-trainer_card" style="stroke:#A80036;stroke-width:1.0;stroke-dasharray:7.0,7.0;"/><line style="stroke:#A80036;stroke-width:1.0;" x1="359.5242" x2="354.8928" y1="109.2828" y2="115.8058"/><line style="stroke:#A80036;stroke-width:1.0;" x1="357.078" x2="352.4466" y1="107.546" y2="114.0691"/><line style="stroke:#A80036;stroke-width:1.0;" x1="353.9469" x2="360.47" y1="110.2286" y2="114.86"/><line style="stroke:#A80036;stroke-width:1.0;" x1="271.2393" x2="275.8783" y1="56.2883" y2="49.7707"/><line style="stroke:#A80036;stroke-width:1.0;" x1="273.6833" x2="278.3224" y1="58.028" y2="51.5104"/><line style="stroke:#A80036;stroke-width:1.0;" x1="276.8176" x2="270.3" y1="55.3491" y2="50.71"/><!--MD5=[e0ee911e2c7fb5e796da71ae4b70b548]
link trainer_card to trainer_card_type--><path codeLine="21" d="M428.77,167.47 C449.15,183.13 474.61,202.68 495.02,218.36 " fill="none" id="trainer_card-trainer_card_type" style="stroke:#A80036;stroke-width:1.0;stroke-dasharray:7.0,7.0;"/><line style="stroke:#A80036;stroke-width:1.0;" x1="499.9063" x2="495.0309" y1="217.0709" y2="223.4137"/><line style="stroke:#A80036;stroke-width:1.0;" x1="497.5277" x2="492.6524" y1="215.2427" y2="221.5855"/><line style="stroke:#A80036;stroke-width:1.0;" x1="494.2972" x2="500.64" y1="217.8047" y2="222.68"/><line style="stroke:#A80036;stroke-width:1.0;" x1="423.6737" x2="428.5491" y1="168.6091" y2="162.2663"/><line style="stroke:#A80036;stroke-width:1.0;" x1="426.0523" x2="430.9276" y1="170.4373" y2="164.0945"/><line style="stroke:#A80036;stroke-width:1.0;" x1="429.2828" x2="422.94" y1="167.8753" y2="163"/><!--MD5=[7a958effd89f627988292443af3a019f]
link trainer_card to trainer_category--><path codeLine="22" d="M454.09,160.82 C504.4,177.97 575.92,202.35 629.57,220.63 " fill="none" id="trainer_card-trainer_category" style="stroke:#A80036;stroke-width:1.0;stroke-dasharray:7.0,7.0;"/><line style="stroke:#A80036;stroke-width:1.0;" x1="633.8562" x2="631.2725" y1="217.8625" y2="225.4338"/><line style="stroke:#A80036;stroke-width:1.0;" x1="631.017" x2="628.4333" y1="216.8936" y2="224.4649"/><line style="stroke:#A80036;stroke-width:1.0;" x1="628.7787" x2="636.35" y1="220.3563" y2="222.94"/><line style="stroke:#A80036;stroke-width:1.0;" x1="449.6671" x2="452.2459" y1="163.5359" y2="155.9629"/><line style="stroke:#A80036;stroke-width:1.0;" x1="452.507" x2="455.0857" y1="164.5029" y2="156.9299"/><line style="stroke:#A80036;stroke-width:1.0;" x1="454.743" x2="447.17" y1="161.0387" y2="158.46"/><!--MD5=[0a60abca816a7ea137caf64c9a61beae]
link trainer_card to card_rule--><path codeLine="23" d="M332.14,157.03 C275.6,173.13 189.2,198.4 115,223 C111.41,224.19 107.71,225.45 104,226.74 " fill="none" id="trainer_card-card_rule" style="stroke:#A80036;stroke-width:1.0;stroke-dasharray:7.0,7.0;"/><line style="stroke:#A80036;stroke-width:1.0;" x1="102.413" x2="99.7513" y1="231.5313" y2="223.987"/><line style="stroke:#A80036;stroke-width:1.0;" x1="105.242" x2="102.5803" y1="230.5331" y2="222.9889"/><line style="stroke:#A80036;stroke-width:1.0;" x1="104.8542" x2="97.31" y1="226.4283" y2="229.09"/><line style="stroke:#A80036;stroke-width:1.0;" x1="333.9496" x2="336.1345" y1="152.3645" y2="160.0604"/><line style="stroke:#A80036;stroke-width:1.0;" x1="331.0637" x2="333.2485" y1="153.1838" y2="160.8797"/><line style="stroke:#A80036;stroke-width:1.0;" x1="331.1941" x2="338.89" y1="157.3048" y2="155.12"/><!--MD5=[419352548664d9e733c3dfefe2fb4df8]
@startuml trainer-card-relationships

entity "action" as action {}
entity "artist" as artist {}
entity "attack" as attack {}
entity "card_rule" as card_rule {}
entity "extended_attributes_core" as extended_attributes_core {}
entity "extended_attributes_special_pokemon_type_lookup" as extended_attributes_special_pokemon_type_lookup {}
entity "rarity" as rarity {}
entity "set" as set {}
entity "trainer_card" as trainer_card {}
entity "trainer_card_type" as trainer_card_type {}
entity "trainer_category" as trainer_category {}

trainer_card ||..up|| action
trainer_card ||..up|| artist
trainer_card ||..up|| attack
trainer_card ||..|{ extended_attributes_core
trainer_card ||..right|| extended_attributes_special_pokemon_type_lookup
trainer_card ||..|| rarity
trainer_card ||..up|| set
trainer_card ||..|| trainer_card_type
trainer_card ||..|| trainer_category
trainer_card ||..|| card_rule

@enduml

PlantUML version 1.2020.22(Sun Dec 06 09:36:27 GMT 2020)
(GPL source distribution)
Java Runtime: OpenJDK Runtime Environment
JVM: OpenJDK 64-Bit Server VM
Default Encoding: UTF-8
Language: en
Country: GB
--></g></svg>